<?xml version="1.0" encoding="UTF-8" standalone="no"?>
<!-- Created with Inkscape (http://www.inkscape.org/) -->

<svg
   xmlns:dc="http://purl.org/dc/elements/1.1/"
   xmlns:cc="http://creativecommons.org/ns#"
   xmlns:rdf="http://www.w3.org/1999/02/22-rdf-syntax-ns#"
   xmlns:svg="http://www.w3.org/2000/svg"
   xmlns="http://www.w3.org/2000/svg"
   xmlns:xlink="http://www.w3.org/1999/xlink"
   xmlns:sodipodi="http://sodipodi.sourceforge.net/DTD/sodipodi-0.dtd"
   xmlns:inkscape="http://www.inkscape.org/namespaces/inkscape"
   width="744.09448819"
   height="1052.3622047"
   id="svg2"
   sodipodi:version="0.32"
   inkscape:version="0.48.1 r9760"
   sodipodi:docname="Admiral.svg"
   inkscape:output_extension="org.inkscape.output.svg.inkscape"
   version="1.1">
  <defs
     id="defs4">
    <linearGradient
       inkscape:collect="always"
       id="linearGradient3193">
      <stop
         style="stop-color:#000000;stop-opacity:1;"
         offset="0"
         id="stop3195" />
      <stop
         style="stop-color:#000000;stop-opacity:0;"
         offset="1"
         id="stop3197" />
    </linearGradient>
    <linearGradient
       inkscape:collect="always"
       id="linearGradient3181">
      <stop
         style="stop-color:#f6f9ff;stop-opacity:1;"
         offset="0"
         id="stop3183" />
      <stop
         style="stop-color:#f6f9ff;stop-opacity:0;"
         offset="1"
         id="stop3185" />
    </linearGradient>
    <inkscape:perspective
       sodipodi:type="inkscape:persp3d"
       inkscape:vp_x="0 : 526.18109 : 1"
       inkscape:vp_y="0 : 1000 : 0"
       inkscape:vp_z="744.09448 : 526.18109 : 1"
       inkscape:persp3d-origin="372.04724 : 350.78739 : 1"
       id="perspective10" />
    <filter
       inkscape:collect="always"
       id="filter3175"
       x="-0.021278046"
       width="1.0425561"
       y="-0.11683938"
       height="1.2336788">
      <feGaussianBlur
         inkscape:collect="always"
         stdDeviation="1.9617973"
         id="feGaussianBlur3177" />
    </filter>
    <linearGradient
       inkscape:collect="always"
       xlink:href="#linearGradient3181"
       id="linearGradient3187"
       x1="252.85713"
       y1="290.73254"
       x2="252.85713"
       y2="301.30396"
       gradientUnits="userSpaceOnUse"
       gradientTransform="matrix(0.4799233,0,0,0.576428,197.31341,162.14241)" />
    <filter
       inkscape:collect="always"
       id="filter3222">
      <feGaussianBlur
         inkscape:collect="always"
         stdDeviation="0.92779789"
         id="feGaussianBlur3224" />
    </filter>
    <linearGradient
       inkscape:collect="always"
       xlink:href="#linearGradient3193"
       id="linearGradient3232"
       gradientUnits="userSpaceOnUse"
       gradientTransform="matrix(0.5057694,0,0,0.6138757,285.38943,-207.18213)"
       x1="65.792801"
       y1="-294.66806"
       x2="65.792801"
       y2="-231.23503" />
    <pattern
       patternUnits="userSpaceOnUse"
       width="142.16519"
       height="56.55355"
       patternTransform="translate(338.07464,231.62637)"
       id="pattern4689">
      <path
         id="flowRoot3234"
         d="M 0.72922,8.27254 L 2.75139,8.27254 L 2.75139,1.29297 L 0.55151,1.73417 L 0.55151,0.60665 L 2.73914,0.16545 L 3.97696,0.16545 L 3.97696,8.27254 L 5.99913,8.27254 L 5.99913,9.31427 L 0.72922,9.31427 L 0.72922,8.27254 M 11.15262,0.98045 C 10.51533,0.98046 10.03532,1.29502 9.71258,1.92413 C 9.39393,2.54918 9.23461,3.49082 9.23461,4.74905 C 9.23461,6.00322 9.39393,6.94485 9.71258,7.57397 C 10.03532,8.19901 10.51533,8.51153 11.15262,8.51153 C 11.79399,8.51153 12.274,8.19901 12.59265,7.57397 C 12.91538,6.94485 13.07675,6.00322 13.07675,4.74905 C 13.07675,3.49082 12.91538,2.54918 12.59265,1.92413 C 12.274,1.29502 11.79399,0.98046 11.15262,0.98045 M 11.15262,5.6843419e-14 C 12.178,1e-05 12.96031,0.40648 13.49957,1.21943 C 14.04289,2.02832 14.31456,3.20486 14.31457,4.74905 C 14.31456,6.28918 14.04289,7.46572 13.49957,8.27867 C 12.96031,9.08754 12.178,9.49198 11.15262,9.49198 C 10.12722,9.49198 9.34287,9.08754 8.79954,8.27867 C 8.26029,7.46572 7.99066,6.28918 7.99066,4.74905 C 7.99066,3.20486 8.26029,2.02832 8.79954,1.21943 C 9.34287,0.40648 10.12722,1e-05 11.15262,5.6843419e-14 M 16.71054,8.27254 L 18.73272,8.27254 L 18.73272,1.29297 L 16.53283,1.73417 L 16.53283,0.60665 L 18.72046,0.16545 L 19.95828,0.16545 L 19.95828,8.27254 L 21.98046,8.27254 L 21.98046,9.31427 L 16.71054,9.31427 L 16.71054,8.27254 M 27.13394,0.98045 C 26.49665,0.98046 26.01664,1.29502 25.69391,1.92413 C 25.37527,2.54918 25.21594,3.49082 25.21594,4.74905 C 25.21594,6.00322 25.37527,6.94485 25.69391,7.57397 C 26.01664,8.19901 26.49665,8.51153 27.13394,8.51153 C 27.77532,8.51153 28.25533,8.19901 28.57398,7.57397 C 28.89671,6.94485 29.05807,6.00322 29.05808,4.74905 C 29.05807,3.49082 28.89671,2.54918 28.57398,1.92413 C 28.25533,1.29502 27.77532,0.98046 27.13394,0.98045 M 27.13394,5.6843419e-14 C 28.15933,1e-05 28.94165,0.40648 29.4809,1.21943 C 30.02422,2.02832 30.29589,3.20486 30.2959,4.74905 C 30.29589,6.28918 30.02422,7.46572 29.4809,8.27867 C 28.94165,9.08754 28.15933,9.49198 27.13394,9.49198 C 26.10856,9.49198 25.3242,9.08754 24.78086,8.27867 C 24.24162,7.46572 23.972,6.28918 23.972,4.74905 C 23.972,3.20486 24.24162,2.02832 24.78086,1.21943 C 25.3242,0.40648 26.10856,1e-05 27.13394,5.6843419e-14 M 32.69187,8.27254 L 34.71405,8.27254 L 34.71405,1.29297 L 32.51417,1.73417 L 32.51417,0.60665 L 34.70179,0.16545 L 35.9396,0.16545 L 35.9396,8.27254 L 37.96178,8.27254 L 37.96178,9.31427 L 32.69187,9.31427 L 32.69187,8.27254 M 43.11527,0.98045 C 42.47798,0.98046 41.99797,1.29502 41.67524,1.92413 C 41.35659,2.54918 41.19727,3.49082 41.19727,4.74905 C 41.19727,6.00322 41.35659,6.94485 41.67524,7.57397 C 41.99797,8.19901 42.47798,8.51153 43.11527,8.51153 C 43.75665,8.51153 44.23666,8.19901 44.55531,7.57397 C 44.87803,6.94485 45.0394,6.00322 45.0394,4.74905 C 45.0394,3.49082 44.87803,2.54918 44.55531,1.92413 C 44.23666,1.29502 43.75665,0.98046 43.11527,0.98045 M 43.11527,5.6843419e-14 C 44.14065,1e-05 44.92297,0.40648 45.46222,1.21943 C 46.00555,2.02832 46.27721,3.20486 46.27722,4.74905 C 46.27721,6.28918 46.00555,7.46572 45.46222,8.27867 C 44.92297,9.08754 44.14065,9.49198 43.11527,9.49198 C 42.08988,9.49198 41.30553,9.08754 40.7622,8.27867 C 40.22294,7.46572 39.95332,6.28918 39.95332,4.74905 C 39.95332,3.20486 40.22294,2.02832 40.7622,1.21943 C 41.30553,0.40648 42.08988,1e-05 43.11527,5.6843419e-14 M 51.10594,0.98045 C 50.46864,0.98046 49.98863,1.29502 49.6659,1.92413 C 49.34725,2.54918 49.18793,3.49082 49.18793,4.74905 C 49.18793,6.00322 49.34725,6.94485 49.6659,7.57397 C 49.98863,8.19901 50.46864,8.51153 51.10594,8.51153 C 51.74731,8.51153 52.22732,8.19901 52.54598,7.57397 C 52.8687,6.94485 53.03006,6.00322 53.03006,4.74905 C 53.03006,3.49082 52.8687,2.54918 52.54598,1.92413 C 52.22732,1.29502 51.74731,0.98046 51.10594,0.98045 M 51.10594,5.6843419e-14 C 52.13131,1e-05 52.91364,0.40648 53.45288,1.21943 C 53.99622,2.02832 54.26788,3.20486 54.26788,4.74905 C 54.26788,6.28918 53.99622,7.46572 53.45288,8.27867 C 52.91364,9.08754 52.13131,9.49198 51.10594,9.49198 C 50.08055,9.49198 49.29619,9.08754 48.75286,8.27867 C 48.21361,7.46572 47.94399,6.28918 47.94399,4.74905 C 47.94399,3.20486 48.21361,2.02832 48.75286,1.21943 C 49.29619,0.40648 50.08055,1e-05 51.10594,5.6843419e-14 M 59.0966,0.98045 C 58.4593,0.98046 57.97929,1.29502 57.65657,1.92413 C 57.33792,2.54918 57.17859,3.49082 57.17859,4.74905 C 57.17859,6.00322 57.33792,6.94485 57.65657,7.57397 C 57.97929,8.19901 58.4593,8.51153 59.0966,8.51153 C 59.73797,8.51153 60.21798,8.19901 60.53664,7.57397 C 60.85936,6.94485 61.02073,6.00322 61.02073,4.74905 C 61.02073,3.49082 60.85936,2.54918 60.53664,1.92413 C 60.21798,1.29502 59.73797,0.98046 59.0966,0.98045 M 59.0966,5.6843419e-14 C 60.12198,1e-05 60.9043,0.40648 61.44355,1.21943 C 61.98688,2.02832 62.25854,3.20486 62.25855,4.74905 C 62.25854,6.28918 61.98688,7.46572 61.44355,8.27867 C 60.9043,9.08754 60.12198,9.49198 59.0966,9.49198 C 58.07121,9.49198 57.28685,9.08754 56.74352,8.27867 C 56.20427,7.46572 55.93465,6.28918 55.93465,4.74905 C 55.93465,3.20486 56.20427,2.02832 56.74352,1.21943 C 57.28685,0.40648 58.07121,1e-05 59.0966,5.6843419e-14 M 64.65452,8.27254 L 66.6767,8.27254 L 66.6767,1.29297 L 64.47682,1.73417 L 64.47682,0.60665 L 66.66445,0.16545 L 67.90227,0.16545 L 67.90227,8.27254 L 69.92444,8.27254 L 69.92444,9.31427 L 64.65452,9.31427 L 64.65452,8.27254 M 75.07793,0.98045 C 74.44063,0.98046 73.96062,1.29502 73.63789,1.92413 C 73.31924,2.54918 73.15992,3.49082 73.15992,4.74905 C 73.15992,6.00322 73.31924,6.94485 73.63789,7.57397 C 73.96062,8.19901 74.44063,8.51153 75.07793,8.51153 C 75.7193,8.51153 76.19931,8.19901 76.51796,7.57397 C 76.84069,6.94485 77.00206,6.00322 77.00206,4.74905 C 77.00206,3.49082 76.84069,2.54918 76.51796,1.92413 C 76.19931,1.29502 75.7193,0.98046 75.07793,0.98045 M 75.07793,5.6843419e-14 C 76.10331,1e-05 76.88562,0.40648 77.42488,1.21943 C 77.9682,2.02832 78.23987,3.20486 78.23988,4.74905 C 78.23987,6.28918 77.9682,7.46572 77.42488,8.27867 C 76.88562,9.08754 76.10331,9.49198 75.07793,9.49198 C 74.05253,9.49198 73.26818,9.08754 72.72485,8.27867 C 72.1856,7.46572 71.91597,6.28918 71.91597,4.74905 C 71.91597,3.20486 72.1856,2.02832 72.72485,1.21943 C 73.26818,0.40648 74.05253,1e-05 75.07793,5.6843419e-14 M 80.63585,8.27254 L 82.65803,8.27254 L 82.65803,1.29297 L 80.45814,1.73417 L 80.45814,0.60665 L 82.64577,0.16545 L 83.88359,0.16545 L 83.88359,8.27254 L 85.90577,8.27254 L 85.90577,9.31427 L 80.63585,9.31427 L 80.63585,8.27254 M 91.05925,0.98045 C 90.42196,0.98046 89.94195,1.29502 89.61922,1.92413 C 89.30057,2.54918 89.14125,3.49082 89.14125,4.74905 C 89.14125,6.00322 89.30057,6.94485 89.61922,7.57397 C 89.94195,8.19901 90.42196,8.51153 91.05925,8.51153 C 91.70063,8.51153 92.18064,8.19901 92.49929,7.57397 C 92.82202,6.94485 92.98338,6.00322 92.98339,4.74905 C 92.98338,3.49082 92.82202,2.54918 92.49929,1.92413 C 92.18064,1.29502 91.70063,0.98046 91.05925,0.98045 M 91.05925,5.6843419e-14 C 92.08464,1e-05 92.86695,0.40648 93.40621,1.21943 C 93.94953,2.02832 94.2212,3.20486 94.22121,4.74905 C 94.2212,6.28918 93.94953,7.46572 93.40621,8.27867 C 92.86695,9.08754 92.08464,9.49198 91.05925,9.49198 C 90.03387,9.49198 89.24951,9.08754 88.70617,8.27867 C 88.16693,7.46572 87.89731,6.28918 87.89731,4.74905 C 87.89731,3.20486 88.16693,2.02832 88.70617,1.21943 C 89.24951,0.40648 90.03387,1e-05 91.05925,5.6843419e-14 M 96.61718,8.27254 L 98.63936,8.27254 L 98.63936,1.29297 L 96.43948,1.73417 L 96.43948,0.60665 L 98.6271,0.16545 L 99.86491,0.16545 L 99.86491,8.27254 L 101.88709,8.27254 L 101.88709,9.31427 L 96.61718,9.31427 L 96.61718,8.27254 M 107.04058,0.98045 C 106.40329,0.98046 105.92328,1.29502 105.60054,1.92413 C 105.2819,2.54918 105.12258,3.49082 105.12258,4.74905 C 105.12258,6.00322 105.2819,6.94485 105.60054,7.57397 C 105.92328,8.19901 106.40329,8.51153 107.04058,8.51153 C 107.68196,8.51153 108.16197,8.19901 108.48061,7.57397 C 108.80334,6.94485 108.96471,6.00322 108.96471,4.74905 C 108.96471,3.49082 108.80334,2.54918 108.48061,1.92413 C 108.16197,1.29502 107.68196,0.98046 107.04058,0.98045 M 107.04058,5.6843419e-14 C 108.06596,1e-05 108.84828,0.40648 109.38753,1.21943 C 109.93086,2.02832 110.20252,3.20486 110.20253,4.74905 C 110.20252,6.28918 109.93086,7.46572 109.38753,8.27867 C 108.84828,9.08754 108.06596,9.49198 107.04058,9.49198 C 106.01519,9.49198 105.23084,9.08754 104.68751,8.27867 C 104.14825,7.46572 103.87863,6.28918 103.87863,4.74905 C 103.87863,3.20486 104.14825,2.02832 104.68751,1.21943 C 105.23084,0.40648 106.01519,1e-05 107.04058,5.6843419e-14 M 115.03125,0.98045 C 114.39395,0.98046 113.91394,1.29502 113.59121,1.92413 C 113.27256,2.54918 113.11324,3.49082 113.11324,4.74905 C 113.11324,6.00322 113.27256,6.94485 113.59121,7.57397 C 113.91394,8.19901 114.39395,8.51153 115.03125,8.51153 C 115.67262,8.51153 116.15263,8.19901 116.47128,7.57397 C 116.79401,6.94485 116.95537,6.00322 116.95537,4.74905 C 116.95537,3.49082 116.79401,2.54918 116.47128,1.92413 C 116.15263,1.29502 115.67262,0.98046 115.03125,0.98045 M 115.03125,5.6843419e-14 C 116.05662,1e-05 116.83895,0.40648 117.37819,1.21943 C 117.92153,2.02832 118.19319,3.20486 118.19319,4.74905 C 118.19319,6.28918 117.92153,7.46572 117.37819,8.27867 C 116.83895,9.08754 116.05662,9.49198 115.03125,9.49198 C 114.00586,9.49198 113.2215,9.08754 112.67817,8.27867 C 112.13892,7.46572 111.8693,6.28918 111.8693,4.74905 C 111.8693,3.20486 112.13892,2.02832 112.67817,1.21943 C 113.2215,0.40648 114.00586,1e-05 115.03125,5.6843419e-14 M 120.58917,8.27254 L 122.61134,8.27254 L 122.61134,1.29297 L 120.41146,1.73417 L 120.41146,0.60665 L 122.59909,0.16545 L 123.83691,0.16545 L 123.83691,8.27254 L 125.85908,8.27254 L 125.85908,9.31427 L 120.58917,9.31427 L 120.58917,8.27254 M 131.01258,0.98045 C 130.37527,0.98046 129.89526,1.29502 129.57254,1.92413 C 129.25389,2.54918 129.09456,3.49082 129.09457,4.74905 C 129.09456,6.00322 129.25389,6.94485 129.57254,7.57397 C 129.89526,8.19901 130.37527,8.51153 131.01258,8.51153 C 131.65394,8.51153 132.13396,8.19901 132.45261,7.57397 C 132.77533,6.94485 132.9367,6.00322 132.93671,4.74905 C 132.9367,3.49082 132.77533,2.54918 132.45261,1.92413 C 132.13396,1.29502 131.65394,0.98046 131.01258,0.98045 M 131.01258,5.6843419e-14 C 132.03795,1e-05 132.82027,0.40648 133.35952,1.21943 C 133.90285,2.02832 134.17451,3.20486 134.17452,4.74905 C 134.17451,6.28918 133.90285,7.46572 133.35952,8.27867 C 132.82027,9.08754 132.03795,9.49198 131.01258,9.49198 C 129.98718,9.49198 129.20282,9.08754 128.6595,8.27867 C 128.12024,7.46572 127.85062,6.28918 127.85062,4.74905 C 127.85062,3.20486 128.12024,2.02832 128.6595,1.21943 C 129.20282,0.40648 129.98718,1e-05 131.01258,5.6843419e-14 M 136.5705,8.27254 L 138.59267,8.27254 L 138.59267,1.29297 L 136.39279,1.73417 L 136.39279,0.60665 L 138.58042,0.16545 L 139.81824,0.16545 L 139.81824,8.27254 L 141.84042,8.27254 L 141.84042,9.31427 L 136.5705,9.31427 L 136.5705,8.27254 M 3.16196,16.66764 C 2.52466,16.66765 2.04464,16.98221 1.72192,17.61133 C 1.40327,18.23637 1.24394,19.17801 1.24395,20.43624 C 1.24394,21.69041 1.40327,22.63204 1.72192,23.26116 C 2.04464,23.8862 2.52466,24.19872 3.16196,24.19872 C 3.80332,24.19872 4.28334,23.8862 4.60199,23.26116 C 4.92471,22.63204 5.08608,21.69041 5.08609,20.43624 C 5.08608,19.17801 4.92471,18.23637 4.60199,17.61133 C 4.28334,16.98221 3.80332,16.66765 3.16196,16.66764 M 3.16196,15.68719 C 4.18734,15.6872 4.96965,16.09368 5.50891,16.90662 C 6.05223,17.71551 6.3239,18.89205 6.3239,20.43624 C 6.3239,21.97637 6.05223,23.15291 5.50891,23.96586 C 4.96965,24.77474 4.18734,25.17917 3.16196,25.17917 C 2.13656,25.17917 1.3522,24.77474 0.80888,23.96586 C 0.26963,23.15291 0,21.97637 0,20.43624 C 0,18.89205 0.26963,17.71551 0.80888,16.90662 C 1.3522,16.09368 2.13656,15.6872 3.16196,15.68719 M 8.71988,23.95974 L 10.74205,23.95974 L 10.74205,16.98016 L 8.54217,17.42136 L 8.54217,16.29385 L 10.7298,15.85264 L 11.96762,15.85264 L 11.96762,23.95974 L 13.9898,23.95974 L 13.9898,25.00147 L 8.71988,25.00147 L 8.71988,23.95974 M 19.14328,16.66764 C 18.50599,16.66765 18.02598,16.98221 17.70325,17.61133 C 17.38459,18.23637 17.22528,19.17801 17.22528,20.43624 C 17.22528,21.69041 17.38459,22.63204 17.70325,23.26116 C 18.02598,23.8862 18.50599,24.19872 19.14328,24.19872 C 19.78465,24.19872 20.26466,23.8862 20.58332,23.26116 C 20.90605,22.63204 21.06741,21.69041 21.06741,20.43624 C 21.06741,19.17801 20.90605,18.23637 20.58332,17.61133 C 20.26466,16.98221 19.78465,16.66765 19.14328,16.66764 M 19.14328,15.68719 C 20.16866,15.6872 20.95098,16.09368 21.49023,16.90662 C 22.03356,17.71551 22.30523,18.89205 22.30523,20.43624 C 22.30523,21.97637 22.03356,23.15291 21.49023,23.96586 C 20.95098,24.77474 20.16866,25.17917 19.14328,25.17917 C 18.11789,25.17917 17.33354,24.77474 16.7902,23.96586 C 16.25096,23.15291 15.98133,21.97637 15.98133,20.43624 C 15.98133,18.89205 16.25096,17.71551 16.7902,16.90662 C 17.33354,16.09368 18.11789,15.6872 19.14328,15.68719 M 24.70121,23.95974 L 26.72339,23.95974 L 26.72339,16.98016 L 24.5235,17.42136 L 24.5235,16.29385 L 26.71112,15.85264 L 27.94894,15.85264 L 27.94894,23.95974 L 29.97112,23.95974 L 29.97112,25.00147 L 24.70121,25.00147 L 24.70121,23.95974 M 35.12461,16.66764 C 34.48731,16.66765 34.0073,16.98221 33.68457,17.61133 C 33.36593,18.23637 33.2066,19.17801 33.20661,20.43624 C 33.2066,21.69041 33.36593,22.63204 33.68457,23.26116 C 34.0073,23.8862 34.48731,24.19872 35.12461,24.19872 C 35.76598,24.19872 36.246,23.8862 36.56464,23.26116 C 36.88737,22.63204 37.04873,21.69041 37.04874,20.43624 C 37.04873,19.17801 36.88737,18.23637 36.56464,17.61133 C 36.246,16.98221 35.76598,16.66765 35.12461,16.66764 M 35.12461,15.68719 C 36.14999,15.6872 36.93231,16.09368 37.47156,16.90662 C 38.01488,17.71551 38.28655,18.89205 38.28656,20.43624 C 38.28655,21.97637 38.01488,23.15291 37.47156,23.96586 C 36.93231,24.77474 36.14999,25.17917 35.12461,25.17917 C 34.09922,25.17917 33.31486,24.77474 32.77153,23.96586 C 32.23228,23.15291 31.96266,21.97637 31.96266,20.43624 C 31.96266,18.89205 32.23228,17.71551 32.77153,16.90662 C 33.31486,16.09368 34.09922,15.6872 35.12461,15.68719 M 40.68253,23.95974 L 42.70471,23.95974 L 42.70471,16.98016 L 40.50483,17.42136 L 40.50483,16.29385 L 42.69246,15.85264 L 43.93027,15.85264 L 43.93027,23.95974 L 45.95245,23.95974 L 45.95245,25.00147 L 40.68253,25.00147 L 40.68253,23.95974 M 51.10594,16.66764 C 50.46864,16.66765 49.98863,16.98221 49.6659,17.61133 C 49.34725,18.23637 49.18793,19.17801 49.18793,20.43624 C 49.18793,21.69041 49.34725,22.63204 49.6659,23.26116 C 49.98863,23.8862 50.46864,24.19872 51.10594,24.19872 C 51.74731,24.19872 52.22732,23.8862 52.54598,23.26116 C 52.8687,22.63204 53.03006,21.69041 53.03006,20.43624 C 53.03006,19.17801 52.8687,18.23637 52.54598,17.61133 C 52.22732,16.98221 51.74731,16.66765 51.10594,16.66764 M 51.10594,15.68719 C 52.13131,15.6872 52.91364,16.09368 53.45288,16.90662 C 53.99622,17.71551 54.26788,18.89205 54.26788,20.43624 C 54.26788,21.97637 53.99622,23.15291 53.45288,23.96586 C 52.91364,24.77474 52.13131,25.17917 51.10594,25.17917 C 50.08055,25.17917 49.29619,24.77474 48.75286,23.96586 C 48.21361,23.15291 47.94399,21.97637 47.94399,20.43624 C 47.94399,18.89205 48.21361,17.71551 48.75286,16.90662 C 49.29619,16.09368 50.08055,15.6872 51.10594,15.68719 M 59.0966,16.66764 C 58.4593,16.66765 57.97929,16.98221 57.65657,17.61133 C 57.33792,18.23637 57.17859,19.17801 57.17859,20.43624 C 57.17859,21.69041 57.33792,22.63204 57.65657,23.26116 C 57.97929,23.8862 58.4593,24.19872 59.0966,24.19872 C 59.73797,24.19872 60.21798,23.8862 60.53664,23.26116 C 60.85936,22.63204 61.02073,21.69041 61.02073,20.43624 C 61.02073,19.17801 60.85936,18.23637 60.53664,17.61133 C 60.21798,16.98221 59.73797,16.66765 59.0966,16.66764 M 59.0966,15.68719 C 60.12198,15.6872 60.9043,16.09368 61.44355,16.90662 C 61.98688,17.71551 62.25854,18.89205 62.25855,20.43624 C 62.25854,21.97637 61.98688,23.15291 61.44355,23.96586 C 60.9043,24.77474 60.12198,25.17917 59.0966,25.17917 C 58.07121,25.17917 57.28685,24.77474 56.74352,23.96586 C 56.20427,23.15291 55.93465,21.97637 55.93465,20.43624 C 55.93465,18.89205 56.20427,17.71551 56.74352,16.90662 C 57.28685,16.09368 58.07121,15.6872 59.0966,15.68719 M 64.65452,23.95974 L 66.6767,23.95974 L 66.6767,16.98016 L 64.47682,17.42136 L 64.47682,16.29385 L 66.66445,15.85264 L 67.90227,15.85264 L 67.90227,23.95974 L 69.92444,23.95974 L 69.92444,25.00147 L 64.65452,25.00147 L 64.65452,23.95974 M 75.07793,16.66764 C 74.44063,16.66765 73.96062,16.98221 73.63789,17.61133 C 73.31924,18.23637 73.15992,19.17801 73.15992,20.43624 C 73.15992,21.69041 73.31924,22.63204 73.63789,23.26116 C 73.96062,23.8862 74.44063,24.19872 75.07793,24.19872 C 75.7193,24.19872 76.19931,23.8862 76.51796,23.26116 C 76.84069,22.63204 77.00206,21.69041 77.00206,20.43624 C 77.00206,19.17801 76.84069,18.23637 76.51796,17.61133 C 76.19931,16.98221 75.7193,16.66765 75.07793,16.66764 M 75.07793,15.68719 C 76.10331,15.6872 76.88562,16.09368 77.42488,16.90662 C 77.9682,17.71551 78.23987,18.89205 78.23988,20.43624 C 78.23987,21.97637 77.9682,23.15291 77.42488,23.96586 C 76.88562,24.77474 76.10331,25.17917 75.07793,25.17917 C 74.05253,25.17917 73.26818,24.77474 72.72485,23.96586 C 72.1856,23.15291 71.91597,21.97637 71.91597,20.43624 C 71.91597,18.89205 72.1856,17.71551 72.72485,16.90662 C 73.26818,16.09368 74.05253,15.6872 75.07793,15.68719 M 80.63585,23.95974 L 82.65803,23.95974 L 82.65803,16.98016 L 80.45814,17.42136 L 80.45814,16.29385 L 82.64577,15.85264 L 83.88359,15.85264 L 83.88359,23.95974 L 85.90577,23.95974 L 85.90577,25.00147 L 80.63585,25.00147 L 80.63585,23.95974 M 91.05925,16.66764 C 90.42196,16.66765 89.94195,16.98221 89.61922,17.61133 C 89.30057,18.23637 89.14125,19.17801 89.14125,20.43624 C 89.14125,21.69041 89.30057,22.63204 89.61922,23.26116 C 89.94195,23.8862 90.42196,24.19872 91.05925,24.19872 C 91.70063,24.19872 92.18064,23.8862 92.49929,23.26116 C 92.82202,22.63204 92.98338,21.69041 92.98339,20.43624 C 92.98338,19.17801 92.82202,18.23637 92.49929,17.61133 C 92.18064,16.98221 91.70063,16.66765 91.05925,16.66764 M 91.05925,15.68719 C 92.08464,15.6872 92.86695,16.09368 93.40621,16.90662 C 93.94953,17.71551 94.2212,18.89205 94.22121,20.43624 C 94.2212,21.97637 93.94953,23.15291 93.40621,23.96586 C 92.86695,24.77474 92.08464,25.17917 91.05925,25.17917 C 90.03387,25.17917 89.24951,24.77474 88.70617,23.96586 C 88.16693,23.15291 87.89731,21.97637 87.89731,20.43624 C 87.89731,18.89205 88.16693,17.71551 88.70617,16.90662 C 89.24951,16.09368 90.03387,15.6872 91.05925,15.68719 M 96.61718,23.95974 L 98.63936,23.95974 L 98.63936,16.98016 L 96.43948,17.42136 L 96.43948,16.29385 L 98.6271,15.85264 L 99.86491,15.85264 L 99.86491,23.95974 L 101.88709,23.95974 L 101.88709,25.00147 L 96.61718,25.00147 L 96.61718,23.95974 M 107.04058,16.66764 C 106.40329,16.66765 105.92328,16.98221 105.60054,17.61133 C 105.2819,18.23637 105.12258,19.17801 105.12258,20.43624 C 105.12258,21.69041 105.2819,22.63204 105.60054,23.26116 C 105.92328,23.8862 106.40329,24.19872 107.04058,24.19872 C 107.68196,24.19872 108.16197,23.8862 108.48061,23.26116 C 108.80334,22.63204 108.96471,21.69041 108.96471,20.43624 C 108.96471,19.17801 108.80334,18.23637 108.48061,17.61133 C 108.16197,16.98221 107.68196,16.66765 107.04058,16.66764 M 107.04058,15.68719 C 108.06596,15.6872 108.84828,16.09368 109.38753,16.90662 C 109.93086,17.71551 110.20252,18.89205 110.20253,20.43624 C 110.20252,21.97637 109.93086,23.15291 109.38753,23.96586 C 108.84828,24.77474 108.06596,25.17917 107.04058,25.17917 C 106.01519,25.17917 105.23084,24.77474 104.68751,23.96586 C 104.14825,23.15291 103.87863,21.97637 103.87863,20.43624 C 103.87863,18.89205 104.14825,17.71551 104.68751,16.90662 C 105.23084,16.09368 106.01519,15.6872 107.04058,15.68719 M 115.03125,16.66764 C 114.39395,16.66765 113.91394,16.98221 113.59121,17.61133 C 113.27256,18.23637 113.11324,19.17801 113.11324,20.43624 C 113.11324,21.69041 113.27256,22.63204 113.59121,23.26116 C 113.91394,23.8862 114.39395,24.19872 115.03125,24.19872 C 115.67262,24.19872 116.15263,23.8862 116.47128,23.26116 C 116.79401,22.63204 116.95537,21.69041 116.95537,20.43624 C 116.95537,19.17801 116.79401,18.23637 116.47128,17.61133 C 116.15263,16.98221 115.67262,16.66765 115.03125,16.66764 M 115.03125,15.68719 C 116.05662,15.6872 116.83895,16.09368 117.37819,16.90662 C 117.92153,17.71551 118.19319,18.89205 118.19319,20.43624 C 118.19319,21.97637 117.92153,23.15291 117.37819,23.96586 C 116.83895,24.77474 116.05662,25.17917 115.03125,25.17917 C 114.00586,25.17917 113.2215,24.77474 112.67817,23.96586 C 112.13892,23.15291 111.8693,21.97637 111.8693,20.43624 C 111.8693,18.89205 112.13892,17.71551 112.67817,16.90662 C 113.2215,16.09368 114.00586,15.6872 115.03125,15.68719 M 120.58917,23.95974 L 122.61134,23.95974 L 122.61134,16.98016 L 120.41146,17.42136 L 120.41146,16.29385 L 122.59909,15.85264 L 123.83691,15.85264 L 123.83691,23.95974 L 125.85908,23.95974 L 125.85908,25.00147 L 120.58917,25.00147 L 120.58917,23.95974 M 131.01258,16.66764 C 130.37527,16.66765 129.89526,16.98221 129.57254,17.61133 C 129.25389,18.23637 129.09456,19.17801 129.09457,20.43624 C 129.09456,21.69041 129.25389,22.63204 129.57254,23.26116 C 129.89526,23.8862 130.37527,24.19872 131.01258,24.19872 C 131.65394,24.19872 132.13396,23.8862 132.45261,23.26116 C 132.77533,22.63204 132.9367,21.69041 132.93671,20.43624 C 132.9367,19.17801 132.77533,18.23637 132.45261,17.61133 C 132.13396,16.98221 131.65394,16.66765 131.01258,16.66764 M 131.01258,15.68719 C 132.03795,15.6872 132.82027,16.09368 133.35952,16.90662 C 133.90285,17.71551 134.17451,18.89205 134.17452,20.43624 C 134.17451,21.97637 133.90285,23.15291 133.35952,23.96586 C 132.82027,24.77474 132.03795,25.17917 131.01258,25.17917 C 129.98718,25.17917 129.20282,24.77474 128.6595,23.96586 C 128.12024,23.15291 127.85062,21.97637 127.85062,20.43624 C 127.85062,18.89205 128.12024,17.71551 128.6595,16.90662 C 129.20282,16.09368 129.98718,15.6872 131.01258,15.68719 M 136.5705,23.95974 L 138.59267,23.95974 L 138.59267,16.98016 L 136.39279,17.42136 L 136.39279,16.29385 L 138.58042,15.85264 L 139.81824,15.85264 L 139.81824,23.95974 L 141.84042,23.95974 L 141.84042,25.00147 L 136.5705,25.00147 L 136.5705,23.95974 M 3.16196,32.35483 C 2.52466,32.35484 2.04464,32.6694 1.72192,33.29852 C 1.40327,33.92356 1.24394,34.8652 1.24395,36.12343 C 1.24394,37.3776 1.40327,38.31924 1.72192,38.94836 C 2.04464,39.5734 2.52466,39.88591 3.16196,39.88591 C 3.80332,39.88591 4.28334,39.5734 4.60199,38.94836 C 4.92471,38.31924 5.08608,37.3776 5.08609,36.12343 C 5.08608,34.8652 4.92471,33.92356 4.60199,33.29852 C 4.28334,32.6694 3.80332,32.35484 3.16196,32.35483 M 3.16196,31.37438 C 4.18734,31.37439 4.96965,31.78087 5.50891,32.59382 C 6.05223,33.4027 6.3239,34.57924 6.3239,36.12343 C 6.3239,37.66357 6.05223,38.84011 5.50891,39.65305 C 4.96965,40.46193 4.18734,40.86636 3.16196,40.86636 C 2.13656,40.86636 1.3522,40.46193 0.80888,39.65305 C 0.26963,38.84011 0,37.66357 0,36.12343 C 0,34.57924 0.26963,33.4027 0.80888,32.59382 C 1.3522,31.78087 2.13656,31.37439 3.16196,31.37438 M 8.71988,39.64693 L 10.74205,39.64693 L 10.74205,32.66736 L 8.54217,33.10855 L 8.54217,31.98104 L 10.7298,31.53983 L 11.96762,31.53983 L 11.96762,39.64693 L 13.9898,39.64693 L 13.9898,40.68866 L 8.71988,40.68866 L 8.71988,39.64693 M 19.14328,32.35483 C 18.50599,32.35484 18.02598,32.6694 17.70325,33.29852 C 17.38459,33.92356 17.22528,34.8652 17.22528,36.12343 C 17.22528,37.3776 17.38459,38.31924 17.70325,38.94836 C 18.02598,39.5734 18.50599,39.88591 19.14328,39.88591 C 19.78465,39.88591 20.26466,39.5734 20.58332,38.94836 C 20.90605,38.31924 21.06741,37.3776 21.06741,36.12343 C 21.06741,34.8652 20.90605,33.92356 20.58332,33.29852 C 20.26466,32.6694 19.78465,32.35484 19.14328,32.35483 M 19.14328,31.37438 C 20.16866,31.37439 20.95098,31.78087 21.49023,32.59382 C 22.03356,33.4027 22.30523,34.57924 22.30523,36.12343 C 22.30523,37.66357 22.03356,38.84011 21.49023,39.65305 C 20.95098,40.46193 20.16866,40.86636 19.14328,40.86636 C 18.11789,40.86636 17.33354,40.46193 16.7902,39.65305 C 16.25096,38.84011 15.98133,37.66357 15.98133,36.12343 C 15.98133,34.57924 16.25096,33.4027 16.7902,32.59382 C 17.33354,31.78087 18.11789,31.37439 19.14328,31.37438 M 24.70121,39.64693 L 26.72339,39.64693 L 26.72339,32.66736 L 24.5235,33.10855 L 24.5235,31.98104 L 26.71112,31.53983 L 27.94894,31.53983 L 27.94894,39.64693 L 29.97112,39.64693 L 29.97112,40.68866 L 24.70121,40.68866 L 24.70121,39.64693 M 35.12461,32.35483 C 34.48731,32.35484 34.0073,32.6694 33.68457,33.29852 C 33.36593,33.92356 33.2066,34.8652 33.20661,36.12343 C 33.2066,37.3776 33.36593,38.31924 33.68457,38.94836 C 34.0073,39.5734 34.48731,39.88591 35.12461,39.88591 C 35.76598,39.88591 36.246,39.5734 36.56464,38.94836 C 36.88737,38.31924 37.04873,37.3776 37.04874,36.12343 C 37.04873,34.8652 36.88737,33.92356 36.56464,33.29852 C 36.246,32.6694 35.76598,32.35484 35.12461,32.35483 M 35.12461,31.37438 C 36.14999,31.37439 36.93231,31.78087 37.47156,32.59382 C 38.01488,33.4027 38.28655,34.57924 38.28656,36.12343 C 38.28655,37.66357 38.01488,38.84011 37.47156,39.65305 C 36.93231,40.46193 36.14999,40.86636 35.12461,40.86636 C 34.09922,40.86636 33.31486,40.46193 32.77153,39.65305 C 32.23228,38.84011 31.96266,37.66357 31.96266,36.12343 C 31.96266,34.57924 32.23228,33.4027 32.77153,32.59382 C 33.31486,31.78087 34.09922,31.37439 35.12461,31.37438 M 40.68253,39.64693 L 42.70471,39.64693 L 42.70471,32.66736 L 40.50483,33.10855 L 40.50483,31.98104 L 42.69246,31.53983 L 43.93027,31.53983 L 43.93027,39.64693 L 45.95245,39.64693 L 45.95245,40.68866 L 40.68253,40.68866 L 40.68253,39.64693 M 51.10594,32.35483 C 50.46864,32.35484 49.98863,32.6694 49.6659,33.29852 C 49.34725,33.92356 49.18793,34.8652 49.18793,36.12343 C 49.18793,37.3776 49.34725,38.31924 49.6659,38.94836 C 49.98863,39.5734 50.46864,39.88591 51.10594,39.88591 C 51.74731,39.88591 52.22732,39.5734 52.54598,38.94836 C 52.8687,38.31924 53.03006,37.3776 53.03006,36.12343 C 53.03006,34.8652 52.8687,33.92356 52.54598,33.29852 C 52.22732,32.6694 51.74731,32.35484 51.10594,32.35483 M 51.10594,31.37438 C 52.13131,31.37439 52.91364,31.78087 53.45288,32.59382 C 53.99622,33.4027 54.26788,34.57924 54.26788,36.12343 C 54.26788,37.66357 53.99622,38.84011 53.45288,39.65305 C 52.91364,40.46193 52.13131,40.86636 51.10594,40.86636 C 50.08055,40.86636 49.29619,40.46193 48.75286,39.65305 C 48.21361,38.84011 47.94399,37.66357 47.94399,36.12343 C 47.94399,34.57924 48.21361,33.4027 48.75286,32.59382 C 49.29619,31.78087 50.08055,31.37439 51.10594,31.37438 M 56.66386,39.64693 L 58.68603,39.64693 L 58.68603,32.66736 L 56.48615,33.10855 L 56.48615,31.98104 L 58.67378,31.53983 L 59.9116,31.53983 L 59.9116,39.64693 L 61.93377,39.64693 L 61.93377,40.68866 L 56.66386,40.68866 L 56.66386,39.64693 M 67.08727,32.35483 C 66.44996,32.35484 65.96995,32.6694 65.64723,33.29852 C 65.32858,33.92356 65.16925,34.8652 65.16926,36.12343 C 65.16925,37.3776 65.32858,38.31924 65.64723,38.94836 C 65.96995,39.5734 66.44996,39.88591 67.08727,39.88591 C 67.72863,39.88591 68.20865,39.5734 68.5273,38.94836 C 68.85002,38.31924 69.01139,37.3776 69.0114,36.12343 C 69.01139,34.8652 68.85002,33.92356 68.5273,33.29852 C 68.20865,32.6694 67.72863,32.35484 67.08727,32.35483 M 67.08727,31.37438 C 68.11265,31.37439 68.89496,31.78087 69.43422,32.59382 C 69.97754,33.4027 70.24921,34.57924 70.24921,36.12343 C 70.24921,37.66357 69.97754,38.84011 69.43422,39.65305 C 68.89496,40.46193 68.11265,40.86636 67.08727,40.86636 C 66.06187,40.86636 65.27751,40.46193 64.73419,39.65305 C 64.19493,38.84011 63.92531,37.66357 63.92531,36.12343 C 63.92531,34.57924 64.19493,33.4027 64.73419,32.59382 C 65.27751,31.78087 66.06187,31.37439 67.08727,31.37438 M 75.07793,32.35483 C 74.44063,32.35484 73.96062,32.6694 73.63789,33.29852 C 73.31924,33.92356 73.15992,34.8652 73.15992,36.12343 C 73.15992,37.3776 73.31924,38.31924 73.63789,38.94836 C 73.96062,39.5734 74.44063,39.88591 75.07793,39.88591 C 75.7193,39.88591 76.19931,39.5734 76.51796,38.94836 C 76.84069,38.31924 77.00206,37.3776 77.00206,36.12343 C 77.00206,34.8652 76.84069,33.92356 76.51796,33.29852 C 76.19931,32.6694 75.7193,32.35484 75.07793,32.35483 M 75.07793,31.37438 C 76.10331,31.37439 76.88562,31.78087 77.42488,32.59382 C 77.9682,33.4027 78.23987,34.57924 78.23988,36.12343 C 78.23987,37.66357 77.9682,38.84011 77.42488,39.65305 C 76.88562,40.46193 76.10331,40.86636 75.07793,40.86636 C 74.05253,40.86636 73.26818,40.46193 72.72485,39.65305 C 72.1856,38.84011 71.91597,37.66357 71.91597,36.12343 C 71.91597,34.57924 72.1856,33.4027 72.72485,32.59382 C 73.26818,31.78087 74.05253,31.37439 75.07793,31.37438 M 80.63585,39.64693 L 82.65803,39.64693 L 82.65803,32.66736 L 80.45814,33.10855 L 80.45814,31.98104 L 82.64577,31.53983 L 83.88359,31.53983 L 83.88359,39.64693 L 85.90577,39.64693 L 85.90577,40.68866 L 80.63585,40.68866 L 80.63585,39.64693 M 91.05925,32.35483 C 90.42196,32.35484 89.94195,32.6694 89.61922,33.29852 C 89.30057,33.92356 89.14125,34.8652 89.14125,36.12343 C 89.14125,37.3776 89.30057,38.31924 89.61922,38.94836 C 89.94195,39.5734 90.42196,39.88591 91.05925,39.88591 C 91.70063,39.88591 92.18064,39.5734 92.49929,38.94836 C 92.82202,38.31924 92.98338,37.3776 92.98339,36.12343 C 92.98338,34.8652 92.82202,33.92356 92.49929,33.29852 C 92.18064,32.6694 91.70063,32.35484 91.05925,32.35483 M 91.05925,31.37438 C 92.08464,31.37439 92.86695,31.78087 93.40621,32.59382 C 93.94953,33.4027 94.2212,34.57924 94.22121,36.12343 C 94.2212,37.66357 93.94953,38.84011 93.40621,39.65305 C 92.86695,40.46193 92.08464,40.86636 91.05925,40.86636 C 90.03387,40.86636 89.24951,40.46193 88.70617,39.65305 C 88.16693,38.84011 87.89731,37.66357 87.89731,36.12343 C 87.89731,34.57924 88.16693,33.4027 88.70617,32.59382 C 89.24951,31.78087 90.03387,31.37439 91.05925,31.37438 M 96.61718,39.64693 L 98.63936,39.64693 L 98.63936,32.66736 L 96.43948,33.10855 L 96.43948,31.98104 L 98.6271,31.53983 L 99.86491,31.53983 L 99.86491,39.64693 L 101.88709,39.64693 L 101.88709,40.68866 L 96.61718,40.68866 L 96.61718,39.64693 M 107.04058,32.35483 C 106.40329,32.35484 105.92328,32.6694 105.60054,33.29852 C 105.2819,33.92356 105.12258,34.8652 105.12258,36.12343 C 105.12258,37.3776 105.2819,38.31924 105.60054,38.94836 C 105.92328,39.5734 106.40329,39.88591 107.04058,39.88591 C 107.68196,39.88591 108.16197,39.5734 108.48061,38.94836 C 108.80334,38.31924 108.96471,37.3776 108.96471,36.12343 C 108.96471,34.8652 108.80334,33.92356 108.48061,33.29852 C 108.16197,32.6694 107.68196,32.35484 107.04058,32.35483 M 107.04058,31.37438 C 108.06596,31.37439 108.84828,31.78087 109.38753,32.59382 C 109.93086,33.4027 110.20252,34.57924 110.20253,36.12343 C 110.20252,37.66357 109.93086,38.84011 109.38753,39.65305 C 108.84828,40.46193 108.06596,40.86636 107.04058,40.86636 C 106.01519,40.86636 105.23084,40.46193 104.68751,39.65305 C 104.14825,38.84011 103.87863,37.66357 103.87863,36.12343 C 103.87863,34.57924 104.14825,33.4027 104.68751,32.59382 C 105.23084,31.78087 106.01519,31.37439 107.04058,31.37438 M 112.5985,39.64693 L 114.62068,39.64693 L 114.62068,32.66736 L 112.4208,33.10855 L 112.4208,31.98104 L 114.60843,31.53983 L 115.84624,31.53983 L 115.84624,39.64693 L 117.86842,39.64693 L 117.86842,40.68866 L 112.5985,40.68866 L 112.5985,39.64693 M 123.02191,32.35483 C 122.38461,32.35484 121.9046,32.6694 121.58188,33.29852 C 121.26323,33.92356 121.1039,34.8652 121.1039,36.12343 C 121.1039,37.3776 121.26323,38.31924 121.58188,38.94836 C 121.9046,39.5734 122.38461,39.88591 123.02191,39.88591 C 123.66328,39.88591 124.14329,39.5734 124.46195,38.94836 C 124.78467,38.31924 124.94604,37.3776 124.94604,36.12343 C 124.94604,34.8652 124.78467,33.92356 124.46195,33.29852 C 124.14329,32.6694 123.66328,32.35484 123.02191,32.35483 M 123.02191,31.37438 C 124.04729,31.37439 124.82961,31.78087 125.36886,32.59382 C 125.91219,33.4027 126.18385,34.57924 126.18386,36.12343 C 126.18385,37.66357 125.91219,38.84011 125.36886,39.65305 C 124.82961,40.46193 124.04729,40.86636 123.02191,40.86636 C 121.99652,40.86636 121.21216,40.46193 120.66883,39.65305 C 120.12958,38.84011 119.85996,37.66357 119.85996,36.12343 C 119.85996,34.57924 120.12958,33.4027 120.66883,32.59382 C 121.21216,31.78087 121.99652,31.37439 123.02191,31.37438 M 128.57983,39.64693 L 130.60201,39.64693 L 130.60201,32.66736 L 128.40213,33.10855 L 128.40213,31.98104 L 130.58976,31.53983 L 131.82758,31.53983 L 131.82758,39.64693 L 133.84974,39.64693 L 133.84974,40.68866 L 128.57983,40.68866 L 128.57983,39.64693 M 139.00324,32.35483 C 138.36594,32.35484 137.88593,32.6694 137.5632,33.29852 C 137.24455,33.92356 137.08523,34.8652 137.08523,36.12343 C 137.08523,37.3776 137.24455,38.31924 137.5632,38.94836 C 137.88593,39.5734 138.36594,39.88591 139.00324,39.88591 C 139.64461,39.88591 140.12462,39.5734 140.44327,38.94836 C 140.766,38.31924 140.92737,37.3776 140.92737,36.12343 C 140.92737,34.8652 140.766,33.92356 140.44327,33.29852 C 140.12462,32.6694 139.64461,32.35484 139.00324,32.35483 M 139.00324,31.37438 C 140.02862,31.37439 140.81093,31.78087 141.35019,32.59382 C 141.89351,33.4027 142.16518,34.57924 142.16519,36.12343 C 142.16518,37.66357 141.89351,38.84011 141.35019,39.65305 C 140.81093,40.46193 140.02862,40.86636 139.00324,40.86636 C 137.97784,40.86636 137.19349,40.46193 136.65016,39.65305 C 136.11091,38.84011 135.84128,37.66357 135.84128,36.12343 C 135.84128,34.57924 136.11091,33.4027 136.65016,32.59382 C 137.19349,31.78087 137.97784,31.37439 139.00324,31.37438 M 0.72922,55.33412 L 2.75139,55.33412 L 2.75139,48.35455 L 0.55151,48.79574 L 0.55151,47.66823 L 2.73914,47.22703 L 3.97696,47.22703 L 3.97696,55.33412 L 5.99913,55.33412 L 5.99913,56.37585 L 0.72922,56.37585 L 0.72922,55.33412 M 11.15262,48.04202 C 10.51533,48.04203 10.03532,48.35659 9.71258,48.98571 C 9.39393,49.61075 9.23461,50.5524 9.23461,51.81063 C 9.23461,53.06479 9.39393,54.00643 9.71258,54.63555 C 10.03532,55.26059 10.51533,55.57311 11.15262,55.57311 C 11.79399,55.57311 12.274,55.26059 12.59265,54.63555 C 12.91538,54.00643 13.07675,53.06479 13.07675,51.81063 C 13.07675,50.5524 12.91538,49.61075 12.59265,48.98571 C 12.274,48.35659 11.79399,48.04203 11.15262,48.04202 M 11.15262,47.06158 C 12.178,47.06158 12.96031,47.46806 13.49957,48.28101 C 14.04289,49.08989 14.31456,50.26643 14.31457,51.81063 C 14.31456,53.35076 14.04289,54.5273 13.49957,55.34024 C 12.96031,56.14912 12.178,56.55355 11.15262,56.55355 C 10.12722,56.55355 9.34287,56.14912 8.79954,55.34024 C 8.26029,54.5273 7.99066,53.35076 7.99066,51.81063 C 7.99066,50.26643 8.26029,49.08989 8.79954,48.28101 C 9.34287,47.46806 10.12722,47.06158 11.15262,47.06158 M 16.71054,55.33412 L 18.73272,55.33412 L 18.73272,48.35455 L 16.53283,48.79574 L 16.53283,47.66823 L 18.72046,47.22703 L 19.95828,47.22703 L 19.95828,55.33412 L 21.98046,55.33412 L 21.98046,56.37585 L 16.71054,56.37585 L 16.71054,55.33412 M 27.13394,48.04202 C 26.49665,48.04203 26.01664,48.35659 25.69391,48.98571 C 25.37527,49.61075 25.21594,50.5524 25.21594,51.81063 C 25.21594,53.06479 25.37527,54.00643 25.69391,54.63555 C 26.01664,55.26059 26.49665,55.57311 27.13394,55.57311 C 27.77532,55.57311 28.25533,55.26059 28.57398,54.63555 C 28.89671,54.00643 29.05807,53.06479 29.05808,51.81063 C 29.05807,50.5524 28.89671,49.61075 28.57398,48.98571 C 28.25533,48.35659 27.77532,48.04203 27.13394,48.04202 M 27.13394,47.06158 C 28.15933,47.06158 28.94165,47.46806 29.4809,48.28101 C 30.02422,49.08989 30.29589,50.26643 30.2959,51.81063 C 30.29589,53.35076 30.02422,54.5273 29.4809,55.34024 C 28.94165,56.14912 28.15933,56.55355 27.13394,56.55355 C 26.10856,56.55355 25.3242,56.14912 24.78086,55.34024 C 24.24162,54.5273 23.972,53.35076 23.972,51.81063 C 23.972,50.26643 24.24162,49.08989 24.78086,48.28101 C 25.3242,47.46806 26.10856,47.06158 27.13394,47.06158 M 35.12461,48.04202 C 34.48731,48.04203 34.0073,48.35659 33.68457,48.98571 C 33.36593,49.61075 33.2066,50.5524 33.20661,51.81063 C 33.2066,53.06479 33.36593,54.00643 33.68457,54.63555 C 34.0073,55.26059 34.48731,55.57311 35.12461,55.57311 C 35.76598,55.57311 36.246,55.26059 36.56464,54.63555 C 36.88737,54.00643 37.04873,53.06479 37.04874,51.81063 C 37.04873,50.5524 36.88737,49.61075 36.56464,48.98571 C 36.246,48.35659 35.76598,48.04203 35.12461,48.04202 M 35.12461,47.06158 C 36.14999,47.06158 36.93231,47.46806 37.47156,48.28101 C 38.01488,49.08989 38.28655,50.26643 38.28656,51.81063 C 38.28655,53.35076 38.01488,54.5273 37.47156,55.34024 C 36.93231,56.14912 36.14999,56.55355 35.12461,56.55355 C 34.09922,56.55355 33.31486,56.14912 32.77153,55.34024 C 32.23228,54.5273 31.96266,53.35076 31.96266,51.81063 C 31.96266,50.26643 32.23228,49.08989 32.77153,48.28101 C 33.31486,47.46806 34.09922,47.06158 35.12461,47.06158 M 40.68253,55.33412 L 42.70471,55.33412 L 42.70471,48.35455 L 40.50483,48.79574 L 40.50483,47.66823 L 42.69246,47.22703 L 43.93027,47.22703 L 43.93027,55.33412 L 45.95245,55.33412 L 45.95245,56.37585 L 40.68253,56.37585 L 40.68253,55.33412 M 51.10594,48.04202 C 50.46864,48.04203 49.98863,48.35659 49.6659,48.98571 C 49.34725,49.61075 49.18793,50.5524 49.18793,51.81063 C 49.18793,53.06479 49.34725,54.00643 49.6659,54.63555 C 49.98863,55.26059 50.46864,55.57311 51.10594,55.57311 C 51.74731,55.57311 52.22732,55.26059 52.54598,54.63555 C 52.8687,54.00643 53.03006,53.06479 53.03006,51.81063 C 53.03006,50.5524 52.8687,49.61075 52.54598,48.98571 C 52.22732,48.35659 51.74731,48.04203 51.10594,48.04202 M 51.10594,47.06158 C 52.13131,47.06158 52.91364,47.46806 53.45288,48.28101 C 53.99622,49.08989 54.26788,50.26643 54.26788,51.81063 C 54.26788,53.35076 53.99622,54.5273 53.45288,55.34024 C 52.91364,56.14912 52.13131,56.55355 51.10594,56.55355 C 50.08055,56.55355 49.29619,56.14912 48.75286,55.34024 C 48.21361,54.5273 47.94399,53.35076 47.94399,51.81063 C 47.94399,50.26643 48.21361,49.08989 48.75286,48.28101 C 49.29619,47.46806 50.08055,47.06158 51.10594,47.06158 M 56.66386,55.33412 L 58.68603,55.33412 L 58.68603,48.35455 L 56.48615,48.79574 L 56.48615,47.66823 L 58.67378,47.22703 L 59.9116,47.22703 L 59.9116,55.33412 L 61.93377,55.33412 L 61.93377,56.37585 L 56.66386,56.37585 L 56.66386,55.33412 M 67.08727,48.04202 C 66.44996,48.04203 65.96995,48.35659 65.64723,48.98571 C 65.32858,49.61075 65.16925,50.5524 65.16926,51.81063 C 65.16925,53.06479 65.32858,54.00643 65.64723,54.63555 C 65.96995,55.26059 66.44996,55.57311 67.08727,55.57311 C 67.72863,55.57311 68.20865,55.26059 68.5273,54.63555 C 68.85002,54.00643 69.01139,53.06479 69.0114,51.81063 C 69.01139,50.5524 68.85002,49.61075 68.5273,48.98571 C 68.20865,48.35659 67.72863,48.04203 67.08727,48.04202 M 67.08727,47.06158 C 68.11265,47.06158 68.89496,47.46806 69.43422,48.28101 C 69.97754,49.08989 70.24921,50.26643 70.24921,51.81063 C 70.24921,53.35076 69.97754,54.5273 69.43422,55.34024 C 68.89496,56.14912 68.11265,56.55355 67.08727,56.55355 C 66.06187,56.55355 65.27751,56.14912 64.73419,55.34024 C 64.19493,54.5273 63.92531,53.35076 63.92531,51.81063 C 63.92531,50.26643 64.19493,49.08989 64.73419,48.28101 C 65.27751,47.46806 66.06187,47.06158 67.08727,47.06158 M 75.07793,48.04202 C 74.44063,48.04203 73.96062,48.35659 73.63789,48.98571 C 73.31924,49.61075 73.15992,50.5524 73.15992,51.81063 C 73.15992,53.06479 73.31924,54.00643 73.63789,54.63555 C 73.96062,55.26059 74.44063,55.57311 75.07793,55.57311 C 75.7193,55.57311 76.19931,55.26059 76.51796,54.63555 C 76.84069,54.00643 77.00206,53.06479 77.00206,51.81063 C 77.00206,50.5524 76.84069,49.61075 76.51796,48.98571 C 76.19931,48.35659 75.7193,48.04203 75.07793,48.04202 M 75.07793,47.06158 C 76.10331,47.06158 76.88562,47.46806 77.42488,48.28101 C 77.9682,49.08989 78.23987,50.26643 78.23988,51.81063 C 78.23987,53.35076 77.9682,54.5273 77.42488,55.34024 C 76.88562,56.14912 76.10331,56.55355 75.07793,56.55355 C 74.05253,56.55355 73.26818,56.14912 72.72485,55.34024 C 72.1856,54.5273 71.91597,53.35076 71.91597,51.81063 C 71.91597,50.26643 72.1856,49.08989 72.72485,48.28101 C 73.26818,47.46806 74.05253,47.06158 75.07793,47.06158 M 80.63585,55.33412 L 82.65803,55.33412 L 82.65803,48.35455 L 80.45814,48.79574 L 80.45814,47.66823 L 82.64577,47.22703 L 83.88359,47.22703 L 83.88359,55.33412 L 85.90577,55.33412 L 85.90577,56.37585 L 80.63585,56.37585 L 80.63585,55.33412 M 91.05925,48.04202 C 90.42196,48.04203 89.94195,48.35659 89.61922,48.98571 C 89.30057,49.61075 89.14125,50.5524 89.14125,51.81063 C 89.14125,53.06479 89.30057,54.00643 89.61922,54.63555 C 89.94195,55.26059 90.42196,55.57311 91.05925,55.57311 C 91.70063,55.57311 92.18064,55.26059 92.49929,54.63555 C 92.82202,54.00643 92.98338,53.06479 92.98339,51.81063 C 92.98338,50.5524 92.82202,49.61075 92.49929,48.98571 C 92.18064,48.35659 91.70063,48.04203 91.05925,48.04202 M 91.05925,47.06158 C 92.08464,47.06158 92.86695,47.46806 93.40621,48.28101 C 93.94953,49.08989 94.2212,50.26643 94.22121,51.81063 C 94.2212,53.35076 93.94953,54.5273 93.40621,55.34024 C 92.86695,56.14912 92.08464,56.55355 91.05925,56.55355 C 90.03387,56.55355 89.24951,56.14912 88.70617,55.34024 C 88.16693,54.5273 87.89731,53.35076 87.89731,51.81063 C 87.89731,50.26643 88.16693,49.08989 88.70617,48.28101 C 89.24951,47.46806 90.03387,47.06158 91.05925,47.06158 M 96.61718,55.33412 L 98.63936,55.33412 L 98.63936,48.35455 L 96.43948,48.79574 L 96.43948,47.66823 L 98.6271,47.22703 L 99.86491,47.22703 L 99.86491,55.33412 L 101.88709,55.33412 L 101.88709,56.37585 L 96.61718,56.37585 L 96.61718,55.33412 M 107.04058,48.04202 C 106.40329,48.04203 105.92328,48.35659 105.60054,48.98571 C 105.2819,49.61075 105.12258,50.5524 105.12258,51.81063 C 105.12258,53.06479 105.2819,54.00643 105.60054,54.63555 C 105.92328,55.26059 106.40329,55.57311 107.04058,55.57311 C 107.68196,55.57311 108.16197,55.26059 108.48061,54.63555 C 108.80334,54.00643 108.96471,53.06479 108.96471,51.81063 C 108.96471,50.5524 108.80334,49.61075 108.48061,48.98571 C 108.16197,48.35659 107.68196,48.04203 107.04058,48.04202 M 107.04058,47.06158 C 108.06596,47.06158 108.84828,47.46806 109.38753,48.28101 C 109.93086,49.08989 110.20252,50.26643 110.20253,51.81063 C 110.20252,53.35076 109.93086,54.5273 109.38753,55.34024 C 108.84828,56.14912 108.06596,56.55355 107.04058,56.55355 C 106.01519,56.55355 105.23084,56.14912 104.68751,55.34024 C 104.14825,54.5273 103.87863,53.35076 103.87863,51.81063 C 103.87863,50.26643 104.14825,49.08989 104.68751,48.28101 C 105.23084,47.46806 106.01519,47.06158 107.04058,47.06158 M 115.03125,48.04202 C 114.39395,48.04203 113.91394,48.35659 113.59121,48.98571 C 113.27256,49.61075 113.11324,50.5524 113.11324,51.81063 C 113.11324,53.06479 113.27256,54.00643 113.59121,54.63555 C 113.91394,55.26059 114.39395,55.57311 115.03125,55.57311 C 115.67262,55.57311 116.15263,55.26059 116.47128,54.63555 C 116.79401,54.00643 116.95537,53.06479 116.95537,51.81063 C 116.95537,50.5524 116.79401,49.61075 116.47128,48.98571 C 116.15263,48.35659 115.67262,48.04203 115.03125,48.04202 M 115.03125,47.06158 C 116.05662,47.06158 116.83895,47.46806 117.37819,48.28101 C 117.92153,49.08989 118.19319,50.26643 118.19319,51.81063 C 118.19319,53.35076 117.92153,54.5273 117.37819,55.34024 C 116.83895,56.14912 116.05662,56.55355 115.03125,56.55355 C 114.00586,56.55355 113.2215,56.14912 112.67817,55.34024 C 112.13892,54.5273 111.8693,53.35076 111.8693,51.81063 C 111.8693,50.26643 112.13892,49.08989 112.67817,48.28101 C 113.2215,47.46806 114.00586,47.06158 115.03125,47.06158 M 120.58917,55.33412 L 122.61134,55.33412 L 122.61134,48.35455 L 120.41146,48.79574 L 120.41146,47.66823 L 122.59909,47.22703 L 123.83691,47.22703 L 123.83691,55.33412 L 125.85908,55.33412 L 125.85908,56.37585 L 120.58917,56.37585 L 120.58917,55.33412 M 131.01258,48.04202 C 130.37527,48.04203 129.89526,48.35659 129.57254,48.98571 C 129.25389,49.61075 129.09456,50.5524 129.09457,51.81063 C 129.09456,53.06479 129.25389,54.00643 129.57254,54.63555 C 129.89526,55.26059 130.37527,55.57311 131.01258,55.57311 C 131.65394,55.57311 132.13396,55.26059 132.45261,54.63555 C 132.77533,54.00643 132.9367,53.06479 132.93671,51.81063 C 132.9367,50.5524 132.77533,49.61075 132.45261,48.98571 C 132.13396,48.35659 131.65394,48.04203 131.01258,48.04202 M 131.01258,47.06158 C 132.03795,47.06158 132.82027,47.46806 133.35952,48.28101 C 133.90285,49.08989 134.17451,50.26643 134.17452,51.81063 C 134.17451,53.35076 133.90285,54.5273 133.35952,55.34024 C 132.82027,56.14912 132.03795,56.55355 131.01258,56.55355 C 129.98718,56.55355 129.20282,56.14912 128.6595,55.34024 C 128.12024,54.5273 127.85062,53.35076 127.85062,51.81063 C 127.85062,50.26643 128.12024,49.08989 128.6595,48.28101 C 129.20282,47.46806 129.98718,47.06158 131.01258,47.06158 M 136.5705,55.33412 L 138.59267,55.33412 L 138.59267,48.35455 L 136.39279,48.79574 L 136.39279,47.66823 L 138.58042,47.22703 L 139.81824,47.22703 L 139.81824,55.33412 L 141.84042,55.33412 L 141.84042,56.37585 L 136.5705,56.37585 L 136.5705,55.33412"
         style="font-size:14px;font-style:normal;font-weight:normal;fill:#ffffff;fill-opacity:1;stroke:none;stroke-width:1px;stroke-linecap:butt;stroke-linejoin:miter;stroke-opacity:1;font-family:Bitstream Vera Sans" />
    </pattern>
    <linearGradient
       inkscape:collect="always"
       xlink:href="#linearGradient3181"
       id="linearGradient4720"
       gradientUnits="userSpaceOnUse"
       gradientTransform="matrix(0.4799233,0,0,0.2778681,-78.158305,-585.79701)"
       x1="252.85713"
       y1="290.73254"
       x2="252.85713"
       y2="301.30396" />
    <linearGradient
       inkscape:collect="always"
       xlink:href="#linearGradient3193"
       id="linearGradient4722"
       gradientUnits="userSpaceOnUse"
       gradientTransform="matrix(0.5057694,0,0,0.2959198,9.9177147,564.08553)"
       x1="65.792801"
       y1="-294.66806"
       x2="65.792801"
       y2="-231.23503" />
    <filter
       inkscape:collect="always"
       id="filter4706"
       x="-0.026451417"
       width="1.0529028"
       y="-0.11776985"
       height="1.2355397">
      <feGaussianBlur
         inkscape:collect="always"
         stdDeviation="1.9774203"
         id="feGaussianBlur4708" />
    </filter>
  </defs>
  <sodipodi:namedview
     id="base"
     pagecolor="#ffffff"
     bordercolor="#666666"
     borderopacity="1.0"
     gridtolerance="10000"
     guidetolerance="10"
     objecttolerance="10"
     inkscape:pageopacity="0.0"
     inkscape:pageshadow="2"
     inkscape:zoom="2.7681289"
     inkscape:cx="294.37293"
     inkscape:cy="703.43681"
     inkscape:document-units="px"
     inkscape:current-layer="layer1"
     showgrid="false"
     inkscape:window-width="1506"
     inkscape:window-height="859"
     inkscape:window-x="0"
     inkscape:window-y="0"
     inkscape:window-maximized="0" />
  <metadata
     id="metadata7">
    <rdf:RDF>
      <cc:Work
         rdf:about="">
        <dc:format>image/svg+xml</dc:format>
        <dc:type
           rdf:resource="http://purl.org/dc/dcmitype/StillImage" />
        <dc:title></dc:title>
      </cc:Work>
    </rdf:RDF>
  </metadata>
  <g
     inkscape:label="Layer 1"
     inkscape:groupmode="layer"
     id="layer1">
    <rect
       style="opacity:1;fill:#ffffff;fill-opacity:1;fill-rule:nonzero;stroke:none;stroke-width:0.09446549;stroke-linecap:round;stroke-linejoin:miter;marker:none;marker-start:none;marker-mid:none;marker-end:none;stroke-miterlimit:4;stroke-dasharray:none;stroke-dashoffset:0;stroke-opacity:1;visibility:visible;display:inline;overflow:visible;enable-background:accumulate"
       id="rect2469"
       width="106.31856"
       height="29.7995"
       x="492.44937"
       y="433.39124"
       inkscape:export-filename="/home/ben/Oxford_Artwork/Vocab_print.png"
       inkscape:export-xdpi="1014.7822"
       inkscape:export-ydpi="1014.7822" />
    <rect
       style="opacity:1;fill:#ffffff;fill-opacity:1;fill-rule:nonzero;stroke:none;stroke-width:0.09446549000000000;stroke-linecap:round;stroke-linejoin:miter;marker:none;marker-start:none;marker-mid:none;marker-end:none;stroke-miterlimit:4;stroke-dasharray:none;stroke-dashoffset:0;stroke-opacity:1;visibility:visible;display:inline;overflow:visible;filter:url(#filter3222);enable-background:accumulate"
       id="rect4872"
       width="230.81985"
       height="83.337585"
       x="238.396"
       y="312.42545"
       rx="0"
       ry="0"
       transform="matrix(0.9649891,0,0,0.9090909,16.427689,35.978457)"
       inkscape:export-filename="/home/ben/Oxford_Artwork/Databank_Medium.png"
       inkscape:export-xdpi="242.33972"
       inkscape:export-ydpi="242.33972" />
    <rect
       style="opacity:0.98999999;fill:#000000;fill-opacity:0.43478262;fill-rule:nonzero;stroke:none;stroke-width:0.2;stroke-linecap:round;stroke-linejoin:miter;marker:none;marker-start:none;marker-mid:none;marker-end:none;stroke-miterlimit:4;stroke-dasharray:none;stroke-dashoffset:0;stroke-opacity:1;visibility:visible;display:inline;overflow:visible;filter:url(#filter3222);enable-background:accumulate"
       id="rect3230"
       width="264.28571"
       height="105.31213"
       x="120.71429"
       y="284.50504"
       rx="37.7551"
       ry="38.919697"
       transform="matrix(0.5096357,0,0,0.6023639,189.80039,154.01793)"
       inkscape:export-filename="/Users/graham/Desktop/rect3204.png"
       inkscape:export-xdpi="90"
       inkscape:export-ydpi="90" />
    <rect
       style="opacity:1;fill:#ffffff;fill-opacity:0.43478262;fill-rule:nonzero;stroke:none;stroke-width:0.2;stroke-linecap:round;stroke-linejoin:miter;marker:none;marker-start:none;marker-mid:none;marker-end:none;stroke-miterlimit:4;stroke-dasharray:none;stroke-dashoffset:0;stroke-opacity:1;visibility:visible;display:inline;overflow:visible;filter:url(#filter3222);enable-background:accumulate"
       id="rect3228"
       width="264.28571"
       height="105.31213"
       x="120.71429"
       y="284.50504"
       rx="37.7551"
       ry="38.919697"
       transform="matrix(0.5096357,0,0,0.6023639,189.80039,154.01793)"
       inkscape:export-filename="/Users/graham/Desktop/rect3204.png"
       inkscape:export-xdpi="90"
       inkscape:export-ydpi="90" />
    <rect
       style="opacity:1;fill:#ffffff;fill-opacity:0.43478262;fill-rule:nonzero;stroke:none;stroke-width:0.2;stroke-linecap:round;stroke-linejoin:miter;marker:none;marker-start:none;marker-mid:none;marker-end:none;stroke-miterlimit:4;stroke-dasharray:none;stroke-dashoffset:0;stroke-opacity:1;visibility:visible;display:inline;overflow:visible;filter:url(#filter3222);enable-background:accumulate"
       id="rect3226"
       width="264.28571"
       height="105.31213"
       x="120.71429"
       y="284.50504"
       rx="37.7551"
       ry="38.919697"
       transform="matrix(0.5096357,0,0,0.6023639,189.80039,154.01793)"
       inkscape:export-filename="/Users/graham/Desktop/rect3204.png"
       inkscape:export-xdpi="90"
       inkscape:export-ydpi="90" />
    <rect
       style="opacity:0.89719621;fill:#15c015;fill-opacity:0.43478262;fill-rule:nonzero;stroke:none;stroke-width:0.2;marker:none;visibility:visible;display:inline;overflow:visible;filter:url(#filter3222);enable-background:accumulate"
       id="rect2383"
       width="264.28571"
       height="105.31213"
       x="120.71429"
       y="284.50504"
       rx="37.7551"
       ry="38.919697"
       transform="matrix(0.4344538,0,0,0.5135027,208.99131,183.9785)"
       inkscape:export-filename="/Users/graham/Desktop/rect3204.png"
       inkscape:export-xdpi="90"
       inkscape:export-ydpi="90" />
    <rect
       style="opacity:0.89719621;fill:url(#pattern4689);fill-opacity:1;fill-rule:nonzero;stroke:none;stroke-width:0.2;marker:none;visibility:visible;display:inline;overflow:visible;filter:url(#filter3222);enable-background:accumulate"
       id="rect4694"
       width="264.28571"
       height="105.31213"
       x="120.71429"
       y="284.50504"
       rx="37.7551"
       ry="38.919697"
       transform="matrix(0.4344538,0,0,0.5135027,210.99131,181.9785)"
       inkscape:export-filename="/Users/graham/Desktop/rect3204.png"
       inkscape:export-xdpi="90"
       inkscape:export-ydpi="90" />
    <text
       xml:space="preserve"
       style="font-size:14.81288052000000022px;font-style:normal;font-weight:normal;line-height:125%;opacity:0.73390557000000001;fill:#000000;fill-opacity:1;stroke:none;font-family:Bitstream Vera Sans;filter:url(#filter4706)"
       x="130.49654"
       y="343.82526"
       id="text2385"
       sodipodi:linespacing="125%"
       transform="matrix(0.8191063,0,0,0.8191063,168.60196,88.853434)"
       inkscape:export-filename="/Users/graham/Desktop/rect3204.png"
       inkscape:export-xdpi="90"
       inkscape:export-ydpi="90"><tspan
         sodipodi:role="line"
         id="tspan2387"
         x="130.49654"
         y="343.82526"
         style="font-size:50.78701782px;font-style:normal;font-variant:normal;font-weight:normal;font-stretch:normal;text-align:start;line-height:125%;writing-mode:lr-tb;text-anchor:start;fill:#000000;fill-opacity:1;font-family:Andika Basic;-inkscape-font-specification:Andika Basic">Admiral</tspan></text>
    <text
       xml:space="preserve"
       style="font-size:12.13332462px;font-style:normal;font-weight:normal;line-height:125%;fill:#ffffff;fill-opacity:1;stroke:none;font-family:Bitstream Vera Sans"
       x="275.49249"
       y="370.48288"
       id="text3163"
       sodipodi:linespacing="125%"
       inkscape:export-filename="/Users/graham/Desktop/rect3204.png"
       inkscape:export-xdpi="90"
       inkscape:export-ydpi="90"><tspan
         sodipodi:role="line"
         x="275.49249"
         y="370.48288"
         style="font-size:41.59996796px;font-style:normal;font-variant:normal;font-weight:normal;font-stretch:normal;text-align:start;line-height:125%;writing-mode:lr-tb;text-anchor:start;fill:#ffffff;font-family:Andika Basic;-inkscape-font-specification:Andika Basic"
         id="tspan4690">Admiral</tspan></text>
    <rect
       style="fill:url(#linearGradient3187);fill-opacity:1;fill-rule:nonzero;stroke:none;stroke-width:0.2;marker:none;visibility:visible;display:inline;overflow:visible;enable-background:accumulate"
       id="rect3179"
       width="133.69289"
       height="60.704861"
       x="251.81897"
       y="326.13907"
       rx="19.098986"
       ry="22.434402"
       inkscape:export-filename="/Users/graham/Desktop/rect3204.png"
       inkscape:export-xdpi="90"
       inkscape:export-ydpi="90" />
    <rect
       style="opacity:0.3476395;fill:url(#linearGradient3232);fill-opacity:1;fill-rule:nonzero;stroke:none;stroke-width:0.2;marker:none;visibility:visible;display:inline;overflow:visible;enable-background:accumulate"
       id="rect3204"
       width="133.69289"
       height="60.704861"
       x="251.81897"
       y="-388.07169"
       rx="19.098986"
       ry="22.434402"
       transform="scale(1,-1)"
       inkscape:export-xdpi="90"
       inkscape:export-ydpi="90" />
    <text
       xml:space="preserve"
       style="font-size:9.11369324px;font-style:normal;font-variant:normal;font-weight:normal;font-stretch:normal;text-align:start;line-height:125%;writing-mode:lr-tb;text-anchor:start;fill:#4f4f4f;fill-opacity:1;stroke:none;stroke-width:1px;stroke-linecap:butt;stroke-linejoin:miter;stroke-opacity:1;font-family:Gentium;-inkscape-font-specification:Gentium"
       x="551.00995"
       y="459.80957"
       id="text2465"
       sodipodi:linespacing="125%"><tspan
         sodipodi:role="line"
         id="tspan2467"
         x="551.00995"
         y="459.80957">@ OULS</tspan></text>
  </g>
</svg>
