<?xml version="1.0" encoding="UTF-8" standalone="no"?>
<!-- Created with Inkscape (http://www.inkscape.org/) -->
<svg
   xmlns:dc="http://purl.org/dc/elements/1.1/"
   xmlns:cc="http://creativecommons.org/ns#"
   xmlns:rdf="http://www.w3.org/1999/02/22-rdf-syntax-ns#"
   xmlns:svg="http://www.w3.org/2000/svg"
   xmlns="http://www.w3.org/2000/svg"
   xmlns:sodipodi="http://sodipodi.sourceforge.net/DTD/sodipodi-0.dtd"
   xmlns:inkscape="http://www.inkscape.org/namespaces/inkscape"
   width="128"
   height="128"
   id="svg2"
   sodipodi:version="0.32"
   inkscape:version="0.46"
   version="1.0"
   sodipodi:docname="professor.svg"
   inkscape:output_extension="org.inkscape.output.svg.inkscape"
   inkscape:export-xdpi="90"
   inkscape:export-ydpi="90">
  <defs
     id="defs4">
    <filter
       height="1.6532674"
       y="-0.32663372"
       width="1.2502785"
       x="-0.12513924"
       id="filter3443"
       inkscape:collect="always">
      <feGaussianBlur
         id="feGaussianBlur3445"
         stdDeviation="1.9634296"
         inkscape:collect="always" />
    </filter>
  </defs>
  <sodipodi:namedview
     id="base"
     pagecolor="#ffffff"
     bordercolor="#666666"
     borderopacity="1.0"
     gridtolerance="10000"
     guidetolerance="10"
     objecttolerance="10"
     inkscape:pageopacity="0"
     inkscape:pageshadow="2"
     inkscape:zoom="1"
     inkscape:cx="64"
     inkscape:cy="49.857864"
     inkscape:document-units="px"
     inkscape:current-layer="layer1"
     showgrid="false"
     inkscape:window-width="1521"
     inkscape:window-height="976"
     inkscape:window-x="282"
     inkscape:window-y="33"
     showguides="true"
     inkscape:guide-bbox="true" />
  <metadata
     id="metadata7">
    <rdf:RDF>
      <cc:Work
         rdf:about="">
        <dc:format>image/svg+xml</dc:format>
        <dc:type
           rdf:resource="http://purl.org/dc/dcmitype/StillImage" />
        <cc:license
           rdf:resource="http://creativecommons.org/licenses/by-sa/3.0/" />
        <dc:title>Fedora WEBCOMIC 2.0</dc:title>
        <dc:date>May 2008</dc:date>
        <dc:creator>
          <cc:Agent>
            <dc:title>Nicu Buculei</dc:title>
          </cc:Agent>
        </dc:creator>
        <dc:rights>
          <cc:Agent>
            <dc:title>Nicu Buculei</dc:title>
          </cc:Agent>
        </dc:rights>
        <dc:subject>
          <rdf:Bag>
            <rdf:li>fedora</rdf:li>
            <rdf:li>webcomic</rdf:li>
            <rdf:li>nicubunu</rdf:li>
          </rdf:Bag>
        </dc:subject>
        <dc:language>en-US</dc:language>
      </cc:Work>
      <cc:License
         rdf:about="http://creativecommons.org/licenses/by-sa/3.0/">
        <cc:permits
           rdf:resource="http://creativecommons.org/ns#Reproduction" />
        <cc:permits
           rdf:resource="http://creativecommons.org/ns#Distribution" />
        <cc:requires
           rdf:resource="http://creativecommons.org/ns#Notice" />
        <cc:requires
           rdf:resource="http://creativecommons.org/ns#Attribution" />
        <cc:permits
           rdf:resource="http://creativecommons.org/ns#DerivativeWorks" />
        <cc:requires
           rdf:resource="http://creativecommons.org/ns#ShareAlike" />
      </cc:License>
    </rdf:RDF>
  </metadata>
  <g
     inkscape:label="Layer 1"
     inkscape:groupmode="layer"
     id="layer1">
    <g
       transform="translate(-237.48788,-101.70871)"
       id="g3765" />
    <g
       id="g4184"
       transform="translate(-302.48787,-113.70871)" />
    <path
       sodipodi:nodetypes="ccccsssssssc"
       style="fill:#000000;fill-opacity:0.72839505;fill-rule:evenodd;stroke:none;stroke-width:1px;stroke-linecap:butt;stroke-linejoin:miter;stroke-opacity:1;filter:url(#filter3443)"
       d="M 113.66276,-51.66473 C 108.19802,-51.24235 106.83993,-54.92461 102.16788,-50.77522 C 100.75457,-49.36191 100.44248,-46.55797 100.83362,-44.99343 C 103.70822,-41.14241 106.83223,-42.11379 111.43899,-40.5459 C 113.71532,-39.97681 115.70191,-39.65639 118.55504,-39.65639 C 121.45485,-39.65639 123.239,-38.21796 126.11585,-39.65639 C 128.34694,-40.77193 130.40656,-40.42828 132.3424,-41.88016 C 133.85476,-43.01443 134.5688,-45.00399 135.01092,-46.77244 C 135.79475,-49.90777 133.13429,-50.37928 131.45289,-51.21997 C 129.29189,-52.30047 125.54652,-51.63358 123.89208,-51.21997 C 122.1188,-50.77665 120.57606,-53.44374 118.11029,-53.44374 C 116.11094,-53.44374 117.05087,-51.66473 113.66276,-51.66473 z"
       id="path3529"
       transform="matrix(1.1230681,0,0,1.0735209,-73.17609,161.55988)" />
    <path
       style="fill:#502d16;fill-rule:evenodd;stroke:#28170b;stroke-width:1px;stroke-linecap:butt;stroke-linejoin:miter;stroke-opacity:1"
       d="M 68.46715,103.955 C 65.60075,104.07967 61.8673,103.05639 58.70104,103.87796 C 57.92732,104.50386 57.49346,105.44838 56.96138,106.27852 C 56.5318,107.50739 56.86442,108.57426 57.37349,109.7112 C 59.25828,111.71646 62.17378,112.25598 64.74038,112.95075 C 66.84413,113.87059 71.01138,115.56653 73.20913,114.68024 C 76.43499,113.66576 77.2601,110.50918 76.6692,107.49712 C 73.88877,106.41352 71.15714,105.24529 68.46715,103.955 z"
       id="path3523"
       sodipodi:nodetypes="cccccccc" />
    <path
       style="fill:#502d16;fill-rule:evenodd;stroke:#28170b;stroke-width:1px;stroke-linecap:butt;stroke-linejoin:miter;stroke-opacity:1"
       d="M 57.33952,107.4586 C 59.9318,109.33381 64.14853,111.52013 66.75519,111.61973 C 69.57882,112.44207 72.45228,113.93726 76.06374,112.39412"
       id="path3527"
       sodipodi:nodetypes="ccc" />
    <path
       sodipodi:nodetypes="cccccccc"
       id="path3521"
       d="M 56.96715,104.205 C 54.10075,104.32967 50.3673,103.30639 47.20104,104.12796 C 46.42732,104.75386 45.99346,105.69838 45.46138,106.52852 C 45.0318,107.75739 45.36442,108.82426 45.87349,109.9612 C 47.75828,111.96646 50.67378,112.50598 53.24038,113.20075 C 55.34413,114.12059 59.51138,115.81653 61.70913,114.93024 C 64.93499,113.91576 65.7601,110.75918 65.1692,107.74712 C 62.38877,106.66352 59.65714,105.49529 56.96715,104.205 z"
       style="fill:#502d16;fill-rule:evenodd;stroke:#28170b;stroke-width:1px;stroke-linecap:butt;stroke-linejoin:miter;stroke-opacity:1" />
    <path
       sodipodi:nodetypes="cscccccccc"
       id="path3351"
       d="M 56.48211,86.032003 C 56.33695,86.811033 55.59248,88.833863 55.85711,90.157003 C 56.06041,91.173493 56.36491,92.188183 56.60711,93.157003 C 57.1258,95.702313 56.16134,98.13929 55.98211,100.657 C 56.4972,102.86575 55.84548,106.3551 57.35711,107.907 C 59.9871,109.89477 64.02191,109.80183 65.48211,107.282 C 65.23185,106.28097 65.42228,105.68406 64.98211,104.657 C 63.69603,101.91786 64.30514,98.79289 64.73211,95.907003 C 64.78983,92.116073 65.49953,88.450963 65.35711,84.657003 C 63.18974,83.856133 57.85019,84.435913 56.48211,86.032003 z"
       style="fill:#4d4d4d;fill-opacity:1;fill-rule:evenodd;stroke:#1a1a1a;stroke-width:1px;stroke-linecap:butt;stroke-linejoin:miter;stroke-opacity:1" />
    <path
       sodipodi:nodetypes="cccccccc"
       style="fill:#4d4d4d;fill-opacity:1;fill-rule:evenodd;stroke:#1a1a1a;stroke-width:1px;stroke-linecap:butt;stroke-linejoin:miter;stroke-opacity:1"
       d="M 67.60711,85.907003 C 67.46195,86.686033 66.71748,88.708863 66.98211,90.032003 C 67.92557,92.827073 68.05613,95.438133 67.35711,98.282 C 67.37304,101.07166 66.48489,105.73157 68.48211,107.782 C 71.32768,108.90901 74.18842,109.62727 76.60711,107.157 C 75.36158,103.30522 75.26359,99.7936 75.85711,95.782003 C 75.88599,91.981533 76.62552,88.352243 76.48211,84.532003 C 74.31474,83.731133 68.97519,84.310913 67.60711,85.907003 z"
       id="path3353" />
    <path
       sodipodi:nodetypes="ccc"
       id="path3525"
       d="M 45.08952,107.7086 C 47.6818,109.58381 51.89853,111.77013 54.50519,111.86973 C 57.32882,112.69207 60.20228,114.18726 63.81374,112.64412"
       style="fill:#502d16;fill-rule:evenodd;stroke:#28170b;stroke-width:1px;stroke-linecap:butt;stroke-linejoin:miter;stroke-opacity:1" />
    <path
       style="fill:#f2f2f2;fill-opacity:1;fill-rule:evenodd;stroke:#808080;stroke-width:0.99999994px;stroke-linecap:butt;stroke-linejoin:miter;stroke-opacity:1"
       d="M 78.779269,54.156626 C 81.34155,56.808252 83.047827,59.821751 84.149696,63.284966 C 85.525501,65.728744 84.848667,75.801886 85.153867,78.643683 C 81.387727,79.353712 75.637599,76.521551 71.902834,77.034219 C 70.19338,72.499405 74.508966,61.712146 74.415803,56.934805"
       id="path3769"
       sodipodi:nodetypes="ccccc" />
    <path
       style="fill:#f2f2f2;fill-opacity:1;fill-rule:evenodd;stroke:#808080;stroke-width:0.99999994px;stroke-linecap:butt;stroke-linejoin:miter;stroke-opacity:1"
       d="M 70.974875,48.783594 C 67.285689,49.323482 63.574392,48.830547 59.911084,49.626549 C 57.207962,50.80168 55.338573,52.74417 55.037748,55.65895 C 54.907182,58.290134 55.073531,60.659092 53.852341,63.03481 C 53.484796,67.257141 52.580941,72.140821 53.175714,76.375147 C 53.619934,78.952112 52.020088,93.760172 51.15149,95.515365 L 81.552092,95.515365 C 81.972525,93.349374 80.851658,77.659102 81.037656,75.600116 C 83.072231,72.497011 81.890694,65.475529 80.721548,60.69034 C 80.279359,57.744388 79.279066,55.092981 77.797546,52.524209 C 76.103627,50.235315 73.850357,48.930454 70.974875,48.783594 z"
       id="path3775"
       sodipodi:nodetypes="ccccccccccc" />
    <path
       style="fill:#4d4d4d;fill-rule:evenodd;stroke:#000000;stroke-width:0.99999994px;stroke-linecap:butt;stroke-linejoin:miter;stroke-opacity:1"
       d="M 33.145582,69.668988 C 34.039671,66.986721 33.890656,48.06183 33.890656,48.06183 L 36.72194,36.58768 L 37.467014,48.210839 L 35.231791,70.26505 L 33.145582,69.668988 z"
       id="path3890" />
    <path
       style="fill:#e9d2af;fill-opacity:1;fill-rule:evenodd;stroke:#3f2d10;stroke-width:0.99999994px;stroke-linecap:butt;stroke-linejoin:miter;stroke-opacity:1"
       d="M 48.061751,68.677934 C 45.336131,67.119697 42.603724,64.806206 41.328434,61.924124 C 41.160323,60.43876 43.319081,60.260189 42.61228,58.681426 C 41.380587,58.069693 40.293357,58.852107 39.245561,59.600863 C 38.449603,57.79467 35.408983,52.552338 32.757794,52.667756 C 32.48395,53.929053 35.986256,58.361212 36.691075,59.345607 C 35.554589,58.581114 32.999465,54.782107 32.227233,57.463018 C 32.158034,59.015759 34.789135,60.60457 35.810063,61.537932 C 33.989607,61.330944 32.012298,60.095947 33.235907,62.800966 C 34.074956,63.66057 35.082394,63.74237 36.20631,63.857897 C 37.239694,64.496074 37.941029,65.629419 38.747676,66.557462 C 39.76381,69.347519 41.692304,71.484428 43.660082,73.658098 C 46.504079,73.765019 47.846874,77.132997 50.524437,77.450614 C 51.567654,77.782722 57.471335,71.633504 58.521598,71.679521 C 60.808292,70.101197 54.781835,75.291889 53.632162,72.789078 C 52.002206,69.616599 50.518452,69.89002 48.061751,68.677934 z"
       id="path3777"
       sodipodi:nodetypes="cccccccccccccccc" />
    <path
       style="fill:#f2f2f2;fill-opacity:1;fill-rule:evenodd;stroke:#808080;stroke-width:0.99999994px;stroke-linecap:butt;stroke-linejoin:miter;stroke-opacity:1"
       d="M 56.2513,54.377236 C 51.68088,54.809327 51.053881,65.994511 51.290372,68.720773 C 50.059649,70.774904 44.313954,60.914659 42.614177,62.579555 C 42.25684,65.014255 39.421565,66.78442 37.128188,68.04436 C 37.36215,69.958999 51.194773,82.986379 52.357006,81.341199 C 55.458467,79.635487 68.246599,64.077091 63.970471,59.989988 C 64.414422,57.622084 63.762624,55.606847 61.59278,54.367626"
       id="path3779"
       sodipodi:nodetypes="ccccccc" />
    <path
       style="fill:#e9d2af;fill-opacity:1;fill-rule:evenodd;stroke:#3f2d10;stroke-width:0.99999994px;stroke-linecap:butt;stroke-linejoin:miter;stroke-opacity:1"
       d="M 73.543689,51.61686 C 71.893005,55.965432 63.715747,54.531935 60.817126,50.393976 C 61.973535,48.044044 62.792626,45.221778 65.326618,43.991325 C 67.478599,43.745847 69.567232,44.343688 71.616162,44.939869 C 73.26634,46.225721 73.912836,49.965207 73.543689,51.61686 z"
       id="path3781"
       sodipodi:nodetypes="ccccc" />
    <path
       id="path3783"
       d="M 71.24366,8.394292 C 75.470104,8.452186 79.805373,10.053978 81.449339,14.293024 C 82.902282,19.060806 85.410008,23.943086 84.831453,29.054701 C 83.203782,34.406027 81.868777,40.525134 77.444204,44.142433 C 74.354065,47.022112 68.810334,48.418898 64.687101,48.499788 C 60.042332,47.465464 56.80202,44.907642 55.608799,40.111133 C 54.748513,37.2684 54.033391,37.506948 54.327676,34.789277 C 53.246779,35.478207 52.024409,35.771252 50.530212,35.471034 C 51.786367,30.847473 53.932127,32.057654 55.074779,28.076519 C 54.725829,26.463329 54.392423,24.712848 54.392423,23.600585 C 54.524809,15.093478 58.444392,8.543722 68.365894,8.601785 C 69.293533,8.464855 70.268327,8.380922 71.24366,8.394292 z"
       style="fill:#e9d2af;fill-opacity:1;fill-rule:evenodd;stroke:#3f2d10;stroke-width:0.99999994px;stroke-linecap:butt;stroke-linejoin:miter;stroke-opacity:1"
       sodipodi:nodetypes="cccccccccccc" />
    <path
       style="fill:#ffffff;fill-rule:evenodd;stroke:#333333;stroke-width:0.99999994px;stroke-linecap:butt;stroke-linejoin:miter;stroke-opacity:1"
       d="M 56.259932,20.980781 C 58.494472,21.482154 58.798079,23.038317 58.362954,25.574467 C 55.78319,30.334173 51.622227,23.634978 56.259932,20.980781 z"
       id="path3785"
       sodipodi:nodetypes="ccc" />
    <g
       transform="matrix(0.7596589,6.3416953e-2,-7.9047275e-2,0.9452474,-92.07764,141.54843)"
       id="g3787">
      <path
         sodipodi:nodetypes="cc"
         id="path3789"
         d="M 192.15788,-132.54318 C 198.02126,-134.8727 196.98809,-126.18901 192.65788,-127.04318"
         style="fill:#e9d2af;fill-opacity:1;fill-rule:evenodd;stroke:#3f2d10;stroke-width:1.176px;stroke-linecap:butt;stroke-linejoin:miter;stroke-opacity:1" />
      <path
         sodipodi:nodetypes="cs"
         id="path3791"
         d="M 193.28288,-131.16818 C 194.13396,-132.66112 196.37537,-129.98839 193.28288,-128.54318"
         style="fill:#e9d2af;fill-opacity:1;fill-rule:evenodd;stroke:#3f2d10;stroke-width:1.176px;stroke-linecap:butt;stroke-linejoin:miter;stroke-opacity:1" />
    </g>
    <path
       style="fill:#000000;fill-rule:evenodd;stroke:#000000;stroke-width:0.99999994px;stroke-linecap:butt;stroke-linejoin:miter;stroke-opacity:1"
       d="M 55.437671,22.247827 C 55.00349,21.347938 57.504598,22.06982 56.861726,24.144907 C 56.418045,25.577012 54.844601,24.695955 54.725652,24.619179 C 53.130384,23.589669 54.420418,20.965169 55.437671,22.247827 z"
       id="path3793"
       sodipodi:nodetypes="cssc" />
    <path
       sodipodi:nodetypes="cccccccccc"
       id="path3795"
       d="M 55.935141,14.381956 C 58.48053,15.090882 61.331498,12.754277 62.106014,15.567632 C 63.169604,17.781048 64.522514,18.899481 63.055384,21.25888 C 62.134261,22.796422 62.684332,27.181022 61.86868,30.032883 C 62.223362,30.387253 66.763587,26.950119 67.327525,26.950119 C 68.466821,30.134173 67.704419,33.464951 67.327525,36.909807 C 68.061233,42.099378 80.566992,36.365646 81.805353,41.889643 C 89.575354,32.112058 91.620322,15.231706 80.381306,9.402112 C 77.143657,5.4315728 67.776525,4.3475573 59.969948,7.7421644 C 57.835534,9.542296 52.339531,13.24529 55.935141,14.381956 z"
       style="fill:#1a1a1a;fill-opacity:1;fill-rule:evenodd;stroke:#1a1a1a;stroke-width:0.99999994px;stroke-linecap:butt;stroke-linejoin:miter;stroke-opacity:1" />
    <path
       style="fill:none;fill-rule:evenodd;stroke:#3f2d10;stroke-width:0.99999994px;stroke-linecap:butt;stroke-linejoin:miter;stroke-opacity:1"
       d="M 55.94486,40.760099 L 59.22319,40.462072"
       id="path3886" />
    <path
       style="fill:none;fill-rule:evenodd;stroke:#000000;stroke-width:0.99999994px;stroke-linecap:butt;stroke-linejoin:miter;stroke-opacity:1"
       d="M 66.226886,28.242851 L 58.329101,25.85861 C 58.480117,21.234653 56.513257,21.375916 55.199789,20.04703 L 52.324856,21.467967 C 52.345913,21.415282 51.501212,21.138143 51.462065,21.687565 C 51.442273,21.965268 51.218165,21.977145 51.3899,22.378097 C 51.513865,22.667509 52.098632,22.019158 52.104574,22.298607 C 52.138293,23.88429 52.32687,27.020489 53.113575,27.646788 C 54.279391,28.574908 57.882057,26.603681 57.882057,26.603681 L 66.226886,28.242851 z"
       id="path3888"
       sodipodi:nodetypes="ccccsssscc" />
    <path
       style="fill:#f2f2f2;fill-opacity:1;fill-rule:evenodd;stroke:#808080;stroke-width:0.99999994px;stroke-linecap:butt;stroke-linejoin:miter;stroke-opacity:1"
       d="M 59.832057,48.467486 L 52.772305,51.207091 C 52.772305,51.207091 63.730726,58.372213 66.78644,58.688321 C 69.842154,59.004429 79.114664,54.157435 79.114664,52.893002 C 79.114664,51.628569 73.951562,47.62453 73.951562,47.62453 C 73.951562,47.62453 66.364962,52.366155 59.832057,48.467486 z"
       id="path3894" />
    <path
       style="fill:#f2f2f2;fill-opacity:1;fill-rule:evenodd;stroke:#808080;stroke-width:0.99999994px;stroke-linecap:butt;stroke-linejoin:miter;stroke-opacity:1"
       d="M 43.710533,61.427926 L 36.650781,68.27694 L 39.811864,74.282998 C 42.896516,71.136422 45.389203,70.161173 47.714572,64.48364 L 43.710533,61.427926 z"
       id="path3896"
       sodipodi:nodetypes="ccccc" />
  </g>
</svg>
