<?xml version="1.0" encoding="utf-8"?>
<!-- Generator: Adobe Illustrator 12.0.1, SVG Export Plug-In . SVG Version: 6.00 Build 51448)  -->
<!DOCTYPE svg PUBLIC "-//W3C//DTD SVG 1.1//EN" "http://www.w3.org/Graphics/SVG/1.1/DTD/svg11.dtd" [
	<!ENTITY ns_svg "http://www.w3.org/2000/svg">
	<!ENTITY ns_xlink "http://www.w3.org/1999/xlink">
]>
<svg  version="1.1" id="Layer_1" xmlns="&ns_svg;" xmlns:xlink="&ns_xlink;" width="245.79" height="287.262"
	 viewBox="0 0 245.79 287.262" overflow="visible" enable-background="new 0 0 245.79 287.262" xml:space="preserve">
<g>
	<path fill-rule="evenodd" clip-rule="evenodd" fill="#FFFFFF" d="M89.219,3.582c-0.264,3.706,0.684,5.463,0,7.68
		c-10.616-0.312-13.006,0.958-23.04,0.96c-0.976-2.224-1.684-4.717-1.44-8.16C72.729,3.35,82.838,3.254,89.219,3.582z"/>
	<path fill-rule="evenodd" clip-rule="evenodd" fill="#FFFFFF" d="M63.299,4.542c0.479,3.43,1.482,6.163,1.44,9.6
		c-5.708,0.853-9.913,3.208-14.88,4.8c-0.304-2.735-1.064-5.016-0.96-8.16C53.878,9.173,58.412,4.654,63.299,4.542z"/>
	<path fill-rule="evenodd" clip-rule="evenodd" fill="#FFFFFF" d="M81.059,17.022c0.953,0.647-0.151,3.351,1.44,3.36
		c-0.678,1.242-1.551,2.289-3.84,1.92c3.015,2.022,1.076,4.684,1.92,8.16c-7.401,0.46-17.157,1.055-23.52,0.96
		c0.352-2.354,0.746-4.478,0-6.72c7.011-0.814,14.933-0.53,20.64-1.44c-5.73-2.74-14.193-0.588-22.08-0.48
		c-0.206-0.914-1.034-1.206-0.96-2.4C59.628,15.432,72.62,18.504,81.059,17.022z"/>
	<path fill-rule="evenodd" clip-rule="evenodd" fill="#FFFFFF" d="M149.698,25.182c0.631,0.169,0.755,0.845,1.44,0.96
		c-0.47,2.09-2.371,2.749-4.8,2.88C146.704,26.988,148.576,26.46,149.698,25.182z"/>
	<path fill-rule="evenodd" clip-rule="evenodd" fill="#FFFFFF" d="M155.458,27.102c-0.262,1.658-1.654,2.185-3.84,1.92
		C151.585,27.068,153.393,26.956,155.458,27.102z"/>
	<path fill-rule="evenodd" clip-rule="evenodd" fill="#FFFFFF" d="M160.259,28.062c-0.357,1.723-2.066,2.094-4.32,1.92
		C156.059,28.213,159.454,26.139,160.259,28.062z"/>
	<path fill-rule="evenodd" clip-rule="evenodd" fill="#FFFFFF" d="M162.179,29.022c0.8,0,1.6,0,2.399,0
		c0.062,0.861-0.587,1.013-0.479,1.92C162.596,31.165,161.956,30.525,162.179,29.022z"/>
	<path fill-rule="evenodd" clip-rule="evenodd" fill="#FFFFFF" d="M170.818,29.982c-0.458,2.47-3.273,3.054-4.8,1.92
		C167.107,30.751,168.435,29.838,170.818,29.982z"/>
	<path fill-rule="evenodd" clip-rule="evenodd" fill="#FFFFFF" d="M84.418,36.222c-9.614,1.109-20.455,1.102-30.24,1.92
		c0.539-1.542,1.033-3.127,1.44-4.8c8.649,0.814,18.883-1.277,26.88-0.96C83.019,33.782,84.532,34.188,84.418,36.222z"/>
	<path fill-rule="evenodd" clip-rule="evenodd" fill="#FFFFFF" d="M176.099,31.902c0.582,2.502-1.979,1.862-3.84,1.92
		c0-0.48,0-0.96,0-1.44C172.956,31.64,174.716,31.959,176.099,31.902z"/>
	<path fill-rule="evenodd" clip-rule="evenodd" fill="#FFFFFF" d="M181.858,33.822c-1.017,1.863-3.303,2.457-5.76,2.88
		C176.268,34.3,179.947,32.887,181.858,33.822z"/>
	<path fill-rule="evenodd" clip-rule="evenodd" fill="#FFFFFF" d="M185.698,35.742c-0.401,3.118-3.889,3.151-5.76,4.8
		c0.584-1.656,1.678-2.802,2.4-4.32C183.854,36.457,184.033,35.357,185.698,35.742z"/>
	<path fill-rule="evenodd" clip-rule="evenodd" fill="#FFFFFF" d="M177.059,41.982c-0.17,0.63-0.845,0.755-0.96,1.44
		c4.298,3.542,6.098,9.582,8.64,14.88c-1.333,3.557-2.041,7.365,1.92,8.64c3.015-2.611,8.322-7.396,12.96-2.88
		c-2.089,5.11-4.35,10.05-7.2,14.4c-1.468,0.348-1.411-0.828-2.88-0.48c-2.288,2.031-2.871,5.769-3.84,9.12
		c-9.718,5.31-18.614,19.604-34.56,14.4c-1.319-0.431-3.907-4.604-4.8-7.2c-1.435-4.168-3.463-8.782-4.32-12.48
		c-1.446-6.24,1.353-12.73,0.96-17.76c3.015,1.133,5.919,0.272,8.64,0.96c-0.557,3.283-2.801,4.879-4.319,7.2
		c1.673,1.925,0.384,3.831,2.88,4.8c2.073-1.337-1.549-3.507-0.48-3.84c1.183-2.813,3.838-3.021,4.32-5.76
		c0.948-5.382-4.589-9.338-6.72-12.96c-2.489-0.231-5.957,0.517-7.681-0.48c2.411-6.659,2.76-14.534,10.561-15.84
		c2.604-0.436,4.537,1.082,7.2,0.96c4.041-0.185,5.997-2.652,9.6-0.96c0.111,0.053,0.274,1.758,0.479,1.92
		c1.294,1.021,4.182,0.934,5.761,2.88C175.405,43.529,175.102,41.625,177.059,41.982z M170.818,54.462
		c-2.942-0.735-18.088-0.377-15.36,2.4c7.85,3.767,14.312-1.643,19.681,3.84C175.916,58.538,173.793,55.205,170.818,54.462z
		 M159.299,59.742c0.231,1.512-1.474,1.087-0.96,2.88c4.217,2.207,9.795,2.975,14.399,1.92
		C172.157,58.236,164.79,60.313,159.299,59.742z M189.059,70.302c-0.344,1.303,2.264-0.344,1.92,0.96
		c-0.208,1.292-1.802,2.461-0.48,3.84c4.031-0.182,0.858-5.818,5.28-6.24c0.35-1.31-0.954-0.966-0.96-1.92
		c0.758-0.842,2.204-0.996,2.4-2.4C193.768,61.997,188.975,67.802,189.059,70.302z M162.179,76.542
		c3.455,0.391,1.368-4.345-0.48-4.32C160.395,73.667,162.749,74.364,162.179,76.542z M154.498,75.582
		c1.011,1.804,2.653,1.116,4.801,0.96C159.71,72.463,155.242,72.842,154.498,75.582z M152.099,82.302
		c-1.885,1.103-3.337,1.38-5.76,0.96c1.191,6.488,5.527,9.832,14.399,8.64c3.139-2.726,6.238-6.597,10.561-6.72
		C168.804,79.003,159.206,85.453,152.099,82.302z"/>
	<path fill-rule="evenodd" clip-rule="evenodd" fill="#FFFFFF" d="M190.019,38.142c-0.967,1.434-3.333,1.467-4.8,2.4
		C185.037,38.103,188.308,37.158,190.019,38.142z"/>
	<path fill-rule="evenodd" clip-rule="evenodd" fill="#FFFFFF" d="M87.298,38.142c0.618,8.662,1.423,17.137,1.92,25.92
		c-17.538-0.404-24.659,3.372-43.2,1.92c0.499-9.979-1.374-14.853-0.96-24.96C58.187,39.11,73.31,39.193,87.298,38.142z"/>
	<path fill-rule="evenodd" clip-rule="evenodd" fill="#FFFFFF" d="M195.299,41.502c-3.66,1.189-8.312,3.782-11.521,3.84
		C186.885,43.145,190.704,37.933,195.299,41.502z"/>
	<path fill-rule="evenodd" clip-rule="evenodd" fill="#FFFFFF" d="M43.139,41.022c1.177,4.034,1.359,17.508,0.96,24.48
		c-2.694-0.666-4.824-1.896-6.72-3.36c0.619-1.942,3.988-1.132,4.32-3.36c-0.645-5.208-0.624-10.583-0.96-13.92
		c-0.703-1.538-3.277-1.204-4.32-2.4C36.688,40.012,40.782,41.386,43.139,41.022z"/>
	<path fill-rule="evenodd" clip-rule="evenodd" fill="#FFFFFF" d="M39.299,44.862c-0.062,6.102,0.515,9.433,0.48,13.92
		c-4.842,0.374-6.966-1.1-10.56,0c-0.951-3.37-4.176-4.464-7.68-5.28c-0.104-1.755-0.659-1.841,0-3.36
		c4.167-0.152,6.208-2.431,8.16-4.8C33.935,46.115,35.269,45.098,39.299,44.862z"/>
	<path fill-rule="evenodd" clip-rule="evenodd" fill="#FFFFFF" d="M182.339,44.862c1.282,0.558,0.042,2.547-1.44,1.92
		C180.477,45.24,182.48,46.125,182.339,44.862z"/>
	<path fill-rule="evenodd" clip-rule="evenodd" d="M175.139,60.702c-5.368-5.483-11.831-0.073-19.681-3.84
		c-2.728-2.778,12.418-3.135,15.36-2.4C173.793,55.205,175.916,58.538,175.139,60.702z"/>
	<path fill-rule="evenodd" clip-rule="evenodd" fill="#FFFFFF" d="M149.219,58.782c-1.52,2.161-5.885,1.475-7.681,3.36
		c0.357-1.478-1.317-0.922-0.96-2.4C142.945,58.909,145.897,58.661,149.219,58.782z"/>
	<path fill-rule="evenodd" clip-rule="evenodd" d="M172.738,64.542c-4.604,1.055-10.183,0.287-14.399-1.92
		c-0.514-1.793,1.191-1.368,0.96-2.88C164.79,60.313,172.157,58.236,172.738,64.542z"/>
	<path fill-rule="evenodd" clip-rule="evenodd" d="M197.219,64.542c-0.196,1.404-1.643,1.558-2.4,2.4
		c0.006,0.954,1.31,0.61,0.96,1.92c-4.422,0.422-1.249,6.058-5.28,6.24c-1.321-1.378,0.272-2.548,0.48-3.84
		c0.344-1.304-2.264,0.343-1.92-0.96C188.975,67.802,193.768,61.997,197.219,64.542z"/>
	<path fill-rule="evenodd" clip-rule="evenodd" fill="#FFFFFF" d="M84.418,66.462c0,1.28,0,2.56,0,3.84
		c-4.828,0.33-10.891-0.434-15.84,0c-3.439,0.301-8.14,2.887-9.12-1.44C67.872,67.041,76.583,66.888,84.418,66.462z"/>
	<path fill-rule="evenodd" clip-rule="evenodd" fill="#FFFFFF" d="M81.539,72.222c1.159,1.885,0.422,5.364-1.92,5.28
		c-1.365-1.106-0.981-4.046-0.48-4.8C79.696,72.299,80.425,72.069,81.539,72.222z"/>
	<path fill-rule="evenodd" clip-rule="evenodd" d="M161.698,72.222c1.849-0.025,3.936,4.711,0.48,4.32
		C162.749,74.364,160.395,73.667,161.698,72.222z"/>
	<path fill-rule="evenodd" clip-rule="evenodd" fill="#FFFFFF" d="M70.019,72.702c0.8,0,1.6,0,2.4,0
		c0.691,1.549,0.919,3.561,1.44,5.28c-0.979,0.746-3.183,1.857-4.32,0.96C70.611,77.027,69.438,74.125,70.019,72.702z"/>
	<path fill-rule="evenodd" clip-rule="evenodd" fill="#FFFFFF" d="M74.818,72.702c0.32,0,0.64,0,0.96,0
		c2.473,0.087,1.833,3.287,1.92,5.76C73.719,79.561,74.995,75.405,74.818,72.702z"/>
	<path fill-rule="evenodd" clip-rule="evenodd" fill="#FFFFFF" d="M63.299,73.182c0.48,0,0.96,0,1.44,0
		c-0.693,2.419,1.741,3.298,0.48,4.8C62.665,78.417,62.566,74.509,63.299,73.182z"/>
	<path fill-rule="evenodd" clip-rule="evenodd" fill="#FFFFFF" d="M66.659,73.182c1.542-0.422,0.658,1.582,1.92,1.44
		c-1.821,1.807,1.402,3.74-1.92,4.32C67.14,76.609,65.838,74.354,66.659,73.182z"/>
	<path fill-rule="evenodd" clip-rule="evenodd" d="M159.299,76.542c-2.147,0.156-3.79,0.844-4.801-0.96
		C155.242,72.842,159.71,72.463,159.299,76.542z"/>
	<path fill-rule="evenodd" clip-rule="evenodd" d="M115.139,81.822c0.003,2.083-2.105,2.055-3.36,2.88
		c-1.906-0.654-2.198-2.922-4.32-3.36c-1.116,1.842,1.936,3.006,3.36,3.84c-1.183,2.657-3.999,3.681-6.72,4.8
		c-0.961-2.411-3.938-3.673-5.76-3.84c0.01-3.51,3.443-3.597,5.28-5.28c0.999,0.281,1.551,1.008,2.4,1.44
		c0.125-1.405-1.085-1.475-0.96-2.88C107.858,75.423,112.746,79.747,115.139,81.822z"/>
	<path fill-rule="evenodd" clip-rule="evenodd" fill="#FFFFFF" d="M82.979,83.742c-4.426,4.043-12.925,4.12-19.2,1.92
		c0.56-2.412-1.225-4.185,0-5.76c5.198,2.103,13.489,2.099,17.76-1.44C83.307,78.934,82.842,81.639,82.979,83.742z"/>
	<path fill-rule="evenodd" clip-rule="evenodd" d="M127.139,86.622c-2.366,6.648-5.2-0.423-8.16-2.4
		c0.362,3.317,3.37,3.99,3.36,7.68c-3.008,0.353-2.946,3.775-6.72,3.36c-1.788-2.053-3.208-4.472-5.76-5.76
		c0.827-3.347,4.556-5.764,7.68-5.28C117.274,75.819,125.857,81.084,127.139,86.622z"/>
	<path fill-rule="evenodd" clip-rule="evenodd" fill="#FFFFFF" d="M83.458,86.142c4.934,13.706-10.574,13.834-18.72,10.56
		c-1.141-2.059-0.998-5.402-0.96-8.64C70.287,89.68,79.181,89.465,83.458,86.142z"/>
	<path fill-rule="evenodd" clip-rule="evenodd" fill="#FFFFFF" d="M163.139,87.102c-1.521,2.959-5.796,3.164-10.561,2.88
		c0.197-1.156-0.876-1.043-0.479-2.4C155.509,88.132,159.2,86.874,163.139,87.102z"/>
	<path fill-rule="evenodd" clip-rule="evenodd" fill="#FFFFFF" d="M190.019,97.662c-5.702,7.733-11.584,15.341-18.72,21.6
		c-1.569,1.375-4.544,1.829-4.32,4.8c3.915,0.021,6.685-5.115,10.08-7.2c-5.517,13.204-12.152,25.288-18.72,37.44
		c-0.277-7.949,0.85-20.98-0.96-27.36c2.536-1.943,3.58-5.379,6.239-7.2c1.354,0.086,0.599,2.281,2.4,1.92
		c0.57-3.457-3.246-6.669-4.8-9.6c8.929-5.791,18.854-10.586,24.96-19.2c0.479,0,0.96,0,1.439,0
		C187.95,94.93,189.231,96.049,190.019,97.662z"/>
	<path fill-rule="evenodd" clip-rule="evenodd" fill="#FFFFFF" d="M200.099,102.942c-2.233,10.567-7.309,18.292-8.16,30.24
		c-8.449,3.071-16.859,6.181-24.96,9.6c7.756-15.444,14.81-31.591,25.439-44.16C194.731,98.492,198.528,100.756,200.099,102.942z"/>
	<path fill-rule="evenodd" clip-rule="evenodd" fill="#FFFFFF" d="M167.458,104.862c-2.039,2.536-7.182,5.673-10.56,3.84
		C158.916,105.919,163.854,106.057,167.458,104.862z"/>
	<path fill-rule="evenodd" clip-rule="evenodd" fill="#FFFFFF" d="M151.139,105.342c1.041,0.999-0.059,1.552-0.48,2.4
		c1.674,0.727,3.924,0.876,4.8,2.4c-1.251,3.868-4.766,5.474-7.199,8.16C144.857,114.443,145.383,106.168,151.139,105.342z"/>
	<path fill-rule="evenodd" clip-rule="evenodd" fill="#FFFFFF" d="M132.898,113.022c-2.744,7.176-6.853,12.988-10.08,19.68
		c1.428,2.092,4.905,2.135,7.2,3.36c-1.492,5.228-5.38,8.06-8.16,12c4.207,24.326,12.588,40.754,21.12,61.92
		c-12.942-8.978-25.553-18.287-38.4-27.359c2.917-0.804,8.534,0.029,10.08-3.36c-3.242-4.598-9.032-6.647-12.48-11.04
		c2.07-3.05,0.992-9.247,6.24-9.12c-1.106-4.183-4.404-8.251-1.44-12.479c1.505-0.225,1.353,1.207,1.92,1.92
		c4.161-8.274-1.872-24.441,8.64-27.84c0.914,11.772-1.451,25.653-0.48,37.92c-0.15,1.609-2.175,1.345-3.84,1.439
		c0.659,2.313,2.54,0.42,4.32,1.44c0.378,8.184-1.636,17.549-1.44,25.92c6.33-14.345,1.101-34.456,2.88-52.8
		c0.518-5.342,1.836-9.988,0-14.4C121.449,115.652,127.29,114.453,132.898,113.022z M109.858,150.462
		c-0.021,0.661,0.226,1.054,0.48,1.44c1.966,0.046,3.774-0.066,3.84-1.92C112.677,150.08,110.655,149.658,109.858,150.462z"/>
	<path fill-rule="evenodd" clip-rule="evenodd" fill="#FFFFFF" d="M144.898,117.822c1.211,0.709,1.983,1.856,2.4,3.36
		c1.515,0.235,1.694-0.865,3.359-0.48c-0.492,3.373,2.463,3.297,2.88,5.76c-6.044,9.827-8.957,23.977-10.56,37.44
		c-2.726-0.595-0.895-2.96-0.96-4.32C141.456,147.915,142.314,130.212,144.898,117.822z"/>
	<path fill-rule="evenodd" clip-rule="evenodd" fill="#FFFFFF" d="M70.499,128.862c-1.469-3.171-3.816-5.464-5.76-8.16
		C67.725,116.863,73.506,125.053,70.499,128.862z"/>
	<path fill-rule="evenodd" clip-rule="evenodd" fill="#FFFFFF" d="M89.699,131.262c-2.07-3.397-2.956-7.41-7.2-7.68
		c-11.442-0.728-8.086,19.008,3.84,12.48c-6.243,6.205-15.039-0.114-14.4-6.72c0.745-7.707,12.432-11.194,17.76-5.28
		C89.096,126.168,91.254,129.847,89.699,131.262z"/>
	<path fill-rule="evenodd" clip-rule="evenodd" fill="#FFFFFF" d="M29.699,135.102c2.145-1.722-0.378-6.072-0.48-8.64
		c4.436,1.807,4.793,8.156,4.32,13.92c-7.3,2.248-13.936,2.169-20.64,3.84c-4.046-1.66-6.071-14.443-0.48-15.84
		c-1.328,1.722-1.242,5.035,0.96,5.76c2.499,0.099,3.125-1.675,3.36-3.84c-1.292,0.973-2.742,3.487-4.32,1.44
		c0.001-1.759,2.247-1.274,1.44-3.84c4.281-0.679,8.797-1.122,12.48-2.4C28.826,127.334,28.352,132.129,29.699,135.102z"/>
	<path fill-rule="evenodd" clip-rule="evenodd" fill="#FFFFFF" d="M8.579,129.342c-3.022,5.322,1.139,11.95,0.96,15.84
		C4.093,144.533,0.566,129.393,8.579,129.342z"/>
	<path fill-rule="evenodd" clip-rule="evenodd" fill="#FFFFFF" d="M69.059,129.342c1.527,1.513,1.993,4.087,2.4,6.72
		c-1.623-0.617-2.454-2.026-4.32-2.4C67.384,131.828,68.717,131.08,69.059,129.342z"/>
	<path fill-rule="evenodd" clip-rule="evenodd" fill="#FFFFFF" d="M84.418,130.782c3.241,1.079,5.781,2.859,6.72,6.24
		C87.77,136.071,86.018,133.503,84.418,130.782z"/>
	<path fill-rule="evenodd" clip-rule="evenodd" fill="#FFFFFF" d="M92.099,130.782c0.64,0,1.28,0,1.92,0
		c1.579,3.198-0.262,9.158-2.88,8.16C94.933,135.868,90.951,135.129,92.099,130.782z"/>
	<path fill-rule="evenodd" clip-rule="evenodd" fill="#FFFFFF" d="M70.019,137.982c-10.235,1.924-20.378,3.942-28.32,8.16
		c4.854,0.937,10.937-1.868,19.2-4.32c3.83-1.136,9.293-3.617,11.52-3.36c4.257,0.492,4.138,5.876,9.12,5.76
		c-0.067,2.173-2.549,1.931-4.8,1.92c-10.283,6.837-21.636,12.604-31.2,20.16c0.893,11.553,1.089,20.929,2.4,32.16
		c-2.682-0.998-4.288-3.072-7.68-3.36c-0.668,3.389,4.523,0.917,4.32,3.84c-3.121-1.022-6.909-0.327-9.6,0.48
		c-0.36,1.641,1.95,0.609,1.44,2.4c-1.544,0.855-1.642,3.158-3.84,3.359c0.556-1.684,1.721-2.759,1.92-4.8
		c-4.417,2.982-4.328,9.823-0.48,12.96c-4.731,0.497-6.648-10.718-2.4-13.92c0.176-2.434-1.539-4.935-0.48-6.72
		c3.167,0.832,3.407,4.593,8.16,3.84c-2.869-2.571-5.968-4.912-9.12-7.2c-2.638,1.753-0.415,7.428,0,9.6
		c-10.437,11.773,11.922,25.99,18.24,11.521c1.789,8.467,2.594,19.642,2.88,29.28c-4.916,0.446-12.769,3.211-19.68,3.359
		c-1.989-9.197-4.103-21.996-6.24-34.56c-0.315-1.854-0.562-4.975-2.4-6.24c0.251,10.479,3.785,23.818,5.76,35.521
		c-5.27,2.122-5.287-11.677-6.24-17.28c-4.101-24.104-12.083-51.963-13.44-74.4c8.034,0.114,14.769-2.499,23.04-2.88
		c0.009,1.447,0.388,3.236,0.96,5.28c-6.919,1.24-13.567,2.753-19.2,5.28c0.718,2.321,1.061,5.019,1.92,7.199
		c2.45-0.83-0.362-3.9,0-5.76c5.43-2.09,10.816-4.223,17.28-5.279c1.046,2.953,1.267,6.733,2.88,9.119
		c2.736,0.016,3.884-1.556,6.24-1.92c-0.894-6.277-1.921-12.284-2.88-17.28C48.765,139.607,62.699,132.274,70.019,137.982z
		 M18.179,173.982c0.311-3.267-0.194-9.672-2.4-12C16.111,166.45,16.176,171.185,18.179,173.982z M21.539,196.062
		c0.248,1.366-1.19,4.8,1.44,5.28c0.736-7.677-2.833-16.015-3.36-24.96c-0.846-0.435-0.793-1.767-1.92-1.92
		C18.166,182.894,20.251,188.949,21.539,196.062z"/>
	<path fill-rule="evenodd" clip-rule="evenodd" fill="#FFFFFF" d="M88.259,138.462c-1.02,3.141-3.999,4.322-8.64,3.84
		C81.235,140.103,85.567,140.621,88.259,138.462z"/>
	<path fill-rule="evenodd" clip-rule="evenodd" fill="#FFFFFF" d="M90.179,141.342C89.928,144.954,86.475,141.501,90.179,141.342
		L90.179,141.342z"/>
	<path fill-rule="evenodd" clip-rule="evenodd" fill="#FFFFFF" d="M102.659,141.342c2.838,2.162-1.418,4.347-1.44,6.72
		c-1.409-0.191-1.625-1.574-2.88-1.92C100.047,144.811,102.775,144.498,102.659,141.342z"/>
	<path fill-rule="evenodd" clip-rule="evenodd" fill="#FFFFFF" d="M86.818,142.782c1.351,1.228-1.093,2.72-2.88,2.399
		C83.986,143.47,86.049,143.772,86.818,142.782z"/>
	<path fill-rule="evenodd" clip-rule="evenodd" fill="#FFFFFF" d="M34.019,143.742c3.522-0.002,5.851,1.189,5.28,5.279
		C35.779,151.856,32.229,147.449,34.019,143.742z"/>
	<path fill-rule="evenodd" clip-rule="evenodd" fill="#FFFFFF" d="M87.298,147.582c4.212,0.748,3.06,6.86,8.16,6.72
		c0.061,0.861-0.587,1.013-0.48,1.92c2.392,1.575,5.018-0.729,7.2-0.96c-0.719,3.762-3.148,5.812-3.84,9.601
		c-3.219-0.461-4.282-3.078-6.72-4.32c-0.347-1.467,0.491-1.749,0.48-2.88c-2.627-2.159-4.604,2.562-6.72,0.96
		c1.873-1.647,5.303-1.737,6.24-4.32c-0.141-0.979-1.299-0.941-1.44-1.92c-1.014,0.427-1.419,1.462-2.88,1.44
		C88.94,151.552,88.436,150.168,87.298,147.582z"/>
	<path fill-rule="evenodd" clip-rule="evenodd" fill="#FFFFFF" d="M79.619,149.021c3.264-0.224,2.264,3.816,3.84,5.28
		c1.793,0.514,1.368-1.191,2.88-0.96c0.182,2.422-3.64,0.84-3.84,2.88c-0.225,1.505,1.207,1.354,1.92,1.92
		c-2.465,2.608,1.015,4.611,4.8,3.841c1.7,3.099,5.253,4.346,7.2,7.199c-0.999,2.842-2.418,5.262-2.88,8.641
		c0.091,0.389,0.481,0.479,0.48,0.96c4.474,0.313,4.371-3.95,6.24-6.24c2.646,1.514,5.788,2.532,6.72,5.76
		c-13.928,2.021-27.12,3.973-41.28,6.24c-5.956-5.245-11.123-11.277-16.8-16.8c9.342-7.612,24.594-2.094,33.6-9.12
		c-0.328-1.433-1.911-1.609-3.84-1.44C82.348,155.739,79.088,151.07,79.619,149.021z M65.219,166.782
		c3.043,5.436,8.269,8.69,12.96,12.479c1.4-1.96,6.648-0.071,7.2-2.88c-3.509-3.37-7.379-6.381-10.08-10.56
		C71.205,165.408,68.342,166.226,65.219,166.782z"/>
	<path fill-rule="evenodd" clip-rule="evenodd" fill="#FFFFFF" d="M100.259,150.462c-0.245,2.475-2.285,3.155-4.8,3.36
		C96.816,152.634,98.15,149.354,100.259,150.462z"/>
	<path fill-rule="evenodd" clip-rule="evenodd" d="M114.179,149.982c-0.066,1.854-1.874,1.966-3.84,1.92
		c-0.254-0.387-0.5-0.779-0.48-1.44C110.655,149.658,112.677,150.08,114.179,149.982z"/>
	<path fill-rule="evenodd" clip-rule="evenodd" fill="#FFFFFF" d="M73.858,152.382c1.027,1.854,1.533,4.228,3.84,4.8
		c-2.83,2.931-10.871,0.649-14.4,2.88C65.638,156.321,70.111,154.714,73.858,152.382z"/>
	<path fill-rule="evenodd" clip-rule="evenodd" fill="#FFFFFF" d="M37.378,155.262c1.792-0.191,2.816,0.384,2.88,1.92
		c-1.665-0.385-1.845,0.715-3.36,0.48C36.502,156.306,37.575,156.418,37.378,155.262z"/>
	<path fill-rule="evenodd" clip-rule="evenodd" d="M15.779,161.982c2.206,2.328,2.711,8.733,2.4,12
		C16.176,171.185,16.111,166.45,15.779,161.982z"/>
	<path fill-rule="evenodd" clip-rule="evenodd" d="M75.299,165.822c2.701,4.179,6.57,7.189,10.08,10.56
		c-0.552,2.809-5.8,0.92-7.2,2.88c-4.691-3.789-9.917-7.044-12.96-12.479C68.342,166.226,71.205,165.408,75.299,165.822z
		 M67.619,168.702c3.714,2.205,6.172,5.668,9.12,8.64c1.642-0.599,4.317-0.162,5.76-0.96
		C78.852,172.911,74.63,164.249,67.619,168.702z"/>
	<path fill-rule="evenodd" clip-rule="evenodd" fill="#FFFFFF" d="M82.499,176.382c-1.442,0.798-4.118,0.361-5.76,0.96
		c-2.948-2.972-5.406-6.435-9.12-8.64C74.63,164.249,78.852,172.911,82.499,176.382z"/>
	<path fill-rule="evenodd" clip-rule="evenodd" d="M17.699,174.462c1.127,0.153,1.074,1.485,1.92,1.92
		c0.527,8.945,4.096,17.283,3.36,24.96c-2.63-0.48-1.192-3.914-1.44-5.28C20.251,188.949,18.166,182.894,17.699,174.462z"/>
	<path fill-rule="evenodd" clip-rule="evenodd" fill="#FFFFFF" d="M58.019,183.582c-1.526,2.234-6.177-0.469-8.16,1.92
		C44.271,178.767,56.356,177.604,58.019,183.582z"/>
	<path fill-rule="evenodd" clip-rule="evenodd" fill="#FFFFFF" d="M151.139,220.062c-1.735,2.104-5.647,2.033-8.641,2.88
		c-13.798-13.561-28.938-25.781-43.68-38.399c-1.228,0.021-0.585-0.356-0.48-0.96c2.887-1.13,10.737,5.474,14.88,8.64
		C125.607,201.689,139.687,211.309,151.139,220.062z"/>
	<path fill-rule="evenodd" clip-rule="evenodd" fill="#FFFFFF" d="M61.858,183.582c1.107,0.813,2.632,1.208,2.4,3.359
		C62.64,186.641,62.049,185.312,61.858,183.582z"/>
	<path fill-rule="evenodd" clip-rule="evenodd" fill="#FFFFFF" d="M112.259,206.142c-1.12,0-2.24,0-3.36,0
		c-0.769-1.889,2.073-0.167,1.92-1.439c-21.398,0.254-39.673,6.745-59.04,9.6c-0.923-8.837-1.811-17.709-2.88-26.399
		c2.664-1.656,7.193-1.447,10.56-2.4c3.798,4.769,12.187,1.928,18.24,0.96c-0.448,1.952-2.312,2.488-3.84,3.36
		c0.648,5.128-1.765,7.194-4.32,9.119c2.534,13.357,39.216,0.826,23.52-7.199c0.279-5.025-5.346-5.247-7.68-6.24
		c4.773-2.738,11.7,5.904,15.84,9.6C105.671,199.076,110.491,202.171,112.259,206.142z"/>
	<path fill-rule="evenodd" clip-rule="evenodd" fill="#FFFFFF" d="M90.179,188.862c-1.604,3.374-11.615,5.785-14.4,1.92
		C77.259,186.603,85.91,186.411,90.179,188.862z"/>
	<path fill-rule="evenodd" clip-rule="evenodd" fill="#FFFFFF" d="M74.818,193.662c5.155,1.419,12.905,1.538,15.36-2.4
		C96.64,197.409,74.159,203.188,74.818,193.662z"/>
	<path fill-rule="evenodd" clip-rule="evenodd" fill="#FFFFFF" d="M202.979,194.142c0.922,0.646,1.055,4.543-1.44,3.36
		C201.279,195.644,202.762,195.525,202.979,194.142z"/>
	<path fill-rule="evenodd" clip-rule="evenodd" fill="#FFFFFF" d="M95.458,195.582c-1.344,4.199-8.447,6.902-13.92,7.2
		c-3.441,0.187-8.867-0.133-9.6-3.841c5.227,0.696,10.731,2.771,16.32,0.48c2.069-0.849,3.47-2.435,5.28-3.84
		C94.179,195.582,94.818,195.582,95.458,195.582z"/>
	<path fill-rule="evenodd" clip-rule="evenodd" fill="#FFFFFF" d="M47.938,209.021c-1.62,1.808-1.915,3.709-3.84,4.32
		c-13.256,4.214-10.78-17.994,1.44-11.04C46.977,203.903,47.013,206.908,47.938,209.021z M37.378,208.062
		c0.23,3.922,7.335,4.601,7.68-0.96C43.32,202.678,37.166,204.43,37.378,208.062z"/>
	<path fill-rule="evenodd" clip-rule="evenodd" d="M45.059,207.102c-0.345,5.561-7.45,4.882-7.68,0.96
		C37.166,204.43,43.32,202.678,45.059,207.102z M39.299,209.021c1.186-0.414,1.761-1.438,1.92-2.88
		C39.682,206.205,39.107,207.23,39.299,209.021z"/>
	<path fill-rule="evenodd" clip-rule="evenodd" fill="#FFFFFF" d="M41.219,206.142c-0.159,1.441-0.734,2.466-1.92,2.88
		C39.107,207.23,39.682,206.205,41.219,206.142z"/>
	<path fill-rule="evenodd" clip-rule="evenodd" fill="#FFFFFF" d="M97.378,207.582c0,0.479,0,0.96,0,1.439
		c-0.851-0.109-2.404,0.484-1.92-0.96C95.886,207.689,96.542,207.546,97.378,207.582z"/>
	<path fill-rule="evenodd" clip-rule="evenodd" fill="#FFFFFF" d="M92.579,208.542c-0.914,1.478-1.308,2.045-3.36,1.439
		C89.656,208.819,91.147,208.711,92.579,208.542z"/>
	<path fill-rule="evenodd" clip-rule="evenodd" fill="#FFFFFF" d="M86.338,209.981c0.336,1.662-1.683,1.722-2.4,0.96
		C84.009,209.893,85.148,209.911,86.338,209.981z"/>
	<path fill-rule="evenodd" clip-rule="evenodd" fill="#FFFFFF" d="M82.499,210.462c0.547,2.307-2.956,2.438-2.88,0.479
		C81.085,211.289,81.368,210.451,82.499,210.462z"/>
	<path fill-rule="evenodd" clip-rule="evenodd" fill="#FFFFFF" d="M76.739,211.422c0.135,1.255-0.175,2.064-1.44,1.92
		C74.432,212.52,75.446,211.454,76.739,211.422z"/>
	<path fill-rule="evenodd" clip-rule="evenodd" fill="#FFFFFF" d="M71.938,212.382c-0.573,1.614-2.454,2.451-4.32,1.44
		C68.38,212.732,71.27,212.063,71.938,212.382z"/>
	<path fill-rule="evenodd" clip-rule="evenodd" fill="#FFFFFF" d="M65.699,213.342c-0.249,2.478-1.712,1.559-3.84,1.44
		C62.484,213.646,64.453,213.856,65.699,213.342z"/>
	<path fill-rule="evenodd" clip-rule="evenodd" fill="#FFFFFF" d="M56.099,215.262c-0.82,0.906-2.679,2.36-3.84,1.44
		C53.22,215.654,53.695,215.584,56.099,215.262z"/>
	<path fill-rule="evenodd" clip-rule="evenodd" fill="#FFFFFF" d="M141.538,249.342c-6.364,3.491-13.38,4.79-19.68,7.68
		c-4.121,1.891-7.312,5.249-14.88,5.28c-1.042-1.198-3.708-0.772-3.84-2.88c2.596-1.142,3.249-0.156,6.72-0.96
		c-1.262-3.784-6.487-0.163-10.08-0.96c-1.943-0.432-2.324-1.945-4.32-2.4c1.963-2.677,8.76-0.52,11.52-2.399
		c-3.838-3.451-12.006,2.291-15.36-2.4c2.502-3.577,10.492-1.668,14.4-3.84c-3.558-2.37-10.813-0.304-13.92,0.96
		c-4.718-1.361-9.206-2.954-12.96-5.28c1.102-3.971,8.751-0.55,12,0.48c10.274-1.02,15.59-4.174,23.04-8.16
		c-3.405-7.052-14.856,1.618-19.68-3.84c11.63-10.082,25.745-0.491,41.28,0C138.829,235.731,142.303,240.417,141.538,249.342z"/>
	<path fill-rule="evenodd" clip-rule="evenodd" fill="#FFFFFF" d="M147.778,253.182c-2.52-1.064-2.659,0.964-5.76,0.48
		c4.053-7.232-0.426-19.899-5.28-25.44c6.616-3.226,11.394,11.599,12,17.28C149.084,248.737,148.676,251.519,147.778,253.182z"/>
	<path fill-rule="evenodd" clip-rule="evenodd" fill="#FFFFFF" d="M98.818,235.901c-1.642,3.419-7.112,0.798-11.04,0.961
		C90.247,234.428,95.184,234.902,98.818,235.901z"/>
	<path fill-rule="evenodd" clip-rule="evenodd" fill="#FFFFFF" d="M207.299,248.382c-0.259,2.781-0.521,5.561-0.96,8.16
		c-3.749-1.212-6.623-3.298-8.641-6.24C201.554,250.556,203.976,247.09,207.299,248.382z"/>
	<path fill-rule="evenodd" clip-rule="evenodd" fill="#FFFFFF" d="M92.579,185.502c2.776-1.481,6.558,3.875,8.64,6.24
		C97.424,190.576,96.636,186.404,92.579,185.502z"/>
	<path fill-rule="evenodd" clip-rule="evenodd" fill="#FFFFFF" d="M102.179,192.222c12.837,9.883,24.98,20.46,36.479,31.68
		c-5.299,1.014-10.018,3.66-17.279,0.961c-1-0.372-1.661-1.696-2.88-1.921c-13.346-2.449-21.768,1.223-29.28,6.721
		c-0.587,2.194,1.994,2.664,0.48,4.319c-12.264,0.536-23.022,3.714-35.52,5.28c-1.693-5.826-1.386-13.654-2.4-20.16
		c2.116-1.244,5.635-1.084,7.2-2.88c-0.484,1.444,1.069,0.851,1.92,0.96c17.847-3.434,36.227-6.333,53.76-10.08
		C113.971,200.588,105.59,197.611,102.179,192.222z"/>
	<path fill-rule="evenodd" clip-rule="evenodd" d="M91.619,0.702c-0.188,4.348,1.148,7.172,0.96,11.52
		c-5.397,4.426-7.423,7.936-8.64,15.36c0.362,2.039,3.648,1.152,2.4,4.8c0.668,1.731,3.612,1.188,4.32,2.88
		c0.143,2.64,0.209,5.948,0.48,9.6c5.082-0.745,10.492-1.459,13.44,1.44c0.124,2.116,0.767,3.713,0.48,6.24
		c4.186-1.722-1.439-6.625,0.48-9.12c4,0.5,6.258,9.049,2.4,11.52c-3.113-1.109-11.018-0.344-15.84,0.96
		c3.775,1.163,9.275,0.072,13.44,0c-0.656,6.353-6.893,1.918-12.48,3.84c-1.094,0.986-0.015,4.145-0.96,5.28
		c-1.809-0.369-2.294,0.585-3.84,0.48c-0.071,3.609,0.969,8.329-2.88,8.16c0.626,3.054,1.242,6.119,0.96,10.08
		c4.52,4.832,14.82,1.094,17.28,8.16c1.219-0.861,2.673-1.487,4.32-1.92c2.833,2.126,5.631,4.289,6.72,8.16
		c0.02,1.78-1.8,1.72-2.4,2.88c1.653,2.667,3.66,4.98,4.32,8.64c-3.724,4.436-8.823,7.497-12.96,11.52
		c-4.75,0.478-8.407,0.119-11.52,1.44c0.212,3.308,2.53,4.51,5.28,5.28c-0.08,3.115,1.428,3.417,0,5.76
		c1.952,2.208,4.676,3.644,7.68,4.8c1.281-1.635-0.139-3.223,0-5.76c1.129-20.576,26.721-22.799,40.32-30.24
		c-2.037-4.059-2.395-9.537-4.801-14.88c-1.187-2.635-3.416-4.781-3.84-7.2c-1.153-6.581,3.67-10.821,2.88-16.32
		c-0.413-2.877-3.816-4.747-4.319-7.2c0.624-1.136,0.801-2.719,1.439-3.84c-2.315-4.297-0.364-8.193,0.96-11.52
		c1.978-4.969,0.54-13.622,4.8-18.24c1.896-0.504,3.639-1.162,4.801-2.4c10.736-0.245,20.098,2.748,30.239,2.4
		c1.674-0.058,3.072-0.622,4.801-0.48c16.282,1.331,28.008,20.851,25.439,35.52c-0.298,1.704-0.579,4.738-0.96,5.76
		c-0.157,0.421-2.038,1.133-2.4,2.4c-1.872,6.558-6.467,13.69-12.479,15.84c-0.41,4.25,0.677,7.003,1.439,10.08
		c13.719,10.211,27.451,17.592,41.761,27.36c0,0.8,0,1.6,0,2.4c9.624,12.998,11.079,29.858,10.56,46.56
		c-0.681,21.892-4.652,46.272-12,66.239c-5.604,6.236-16.221,7.459-23.52,12c-0.066,5.038-0.135,9.064,0,12.96
		c9.748,10.092,24.126,15.555,32.16,27.36c-16.646-11.355-32.126-23.874-48.48-35.52c-9.642,3.204-20.661,5.128-30.72,6.72
		c-4.859,0.769-9.814,3.349-14.4,2.88c-1.281-0.131-3.575-2.536-5.76-2.88c-2.479-0.39-4.872,0.45-6.24-2.4
		c-6.812,2.994-12.535,4.332-17.76,9.12c-6.969-0.661-10.268,1.201-13.92,0.48c-2.716-0.536-2.984-2.716-5.28-4.32
		c-1.171-0.818-3.337-0.823-4.8-1.92c-5.283-3.961-4.862-11.37-13.92-12.48c-7.351-0.9-17.18,1.782-25.92,2.881
		c-4.354,0.547-9.281,1.36-13.92,1.92c-3.842,0.463-9.69,2.728-12.96,1.92c-3.235-0.8-11.095-11.222-13.44-13.92
		c-4.684-5.391-9.194-9.007-12-14.88c3.551-0.231,5.627,3.151,7.68,5.279c6.102,6.326,11.718,13.686,18.24,20.16
		c14.837-2.923,31.369-4.151,46.08-7.2c1.238-0.842,0.998-3.162,1.44-4.8c-13.401,0.868-30.322,5.71-45.6,6.72
		c-2.368-3.872-6.259-6.221-9.12-9.6c-4.344-26.535-11.629-55.276-15.84-82.56c-0.179-1.158,0.345-2.693,0-3.841
		c-1.763-5.858-8-10.876-4.8-21.12c11.073-2.879,19.166-5.278,29.28-5.28c1.635-0.355,0.791,1.769,1.92,1.92
		c9.454-2.252,19.174-3.012,29.76-5.76c-1.23-5.292-7.961-4.933-10.56-8.64c-2.785-3.972-0.098-8.122-1.92-13.44
		c3.461-2.139,7.114-4.086,11.52-5.28c-1.014-3.983-1.428-11.758-1.44-16.32c-1.717-1.323-3.87-2.21-3.84-5.28
		c-9.1,2.015-17.917-2.292-23.04-7.2c-2.562,1.339-2.744-0.133-5.76,0.48c-1.105-1.775-2.284-3.477-2.4-6.24c-1.92,0-3.84,0-5.76,0
		c-1.496-1.646-0.966-7.534-0.96-9.12c3.022-0.164,3.784,0.052,6.24-0.96c1.147-2.053,2.419-3.981,3.84-5.76
		c2.104,0.962,5.521-0.426,6.24-2.4c5.84-0.6,13.071-1.14,17.76-1.44c-1.456-5.549,2.653-9.403-0.48-14.4
		c-0.778-0.982-3.542,0.022-4.32-0.96c-0.933-3.547-0.285-8.675-1.92-11.52C53.312-1.339,75.769-0.6,91.619,0.702z M64.739,4.062
		c-0.244,3.443,0.464,5.936,1.44,8.16c10.034-0.002,12.424-1.272,23.04-0.96c0.684-2.217-0.264-3.975,0-7.68
		C82.838,3.254,72.729,3.35,64.739,4.062z M48.898,10.782c-0.104,3.144,0.656,5.425,0.96,8.16c4.968-1.593,9.173-3.947,14.88-4.8
		c0.042-3.437-0.961-6.17-1.44-9.6C58.412,4.654,53.878,9.173,48.898,10.782z M54.659,20.382c-0.074,1.194,0.754,1.486,0.96,2.4
		c7.887-0.108,16.35-2.26,22.08,0.48c-5.708,0.91-13.629,0.626-20.64,1.44c0.746,2.242,0.352,4.365,0,6.72
		c6.363,0.095,16.119-0.5,23.52-0.96c-0.844-3.476,1.095-6.138-1.92-8.16c2.289,0.369,3.162-0.678,3.84-1.92
		c-1.591-0.009-0.487-2.713-1.44-3.36C72.62,18.504,59.628,15.432,54.659,20.382z M146.339,29.022c2.429-0.131,4.33-0.79,4.8-2.88
		c-0.686-0.115-0.81-0.791-1.44-0.96C148.576,26.46,146.704,26.988,146.339,29.022z M151.618,29.022
		c2.186,0.265,3.578-0.262,3.84-1.92C153.393,26.956,151.585,27.068,151.618,29.022z M155.938,29.982
		c2.254,0.174,3.963-0.197,4.32-1.92C159.454,26.139,156.059,28.213,155.938,29.982z M164.099,30.942
		c-0.107-0.908,0.541-1.059,0.479-1.92c-0.8,0-1.6,0-2.399,0C161.956,30.525,162.596,31.165,164.099,30.942z M166.019,31.902
		c1.526,1.134,4.342,0.549,4.8-1.92C168.435,29.838,167.107,30.751,166.019,31.902z M82.499,32.382
		c-7.997-0.317-18.231,1.774-26.88,0.96c-0.407,1.672-0.901,3.258-1.44,4.8c9.785-0.818,20.625-0.811,30.24-1.92
		C84.532,34.188,83.019,33.782,82.499,32.382z M172.259,32.382c0,0.48,0,0.96,0,1.44c1.861-0.058,4.422,0.582,3.84-1.92
		C174.716,31.959,172.956,31.64,172.259,32.382z M176.099,36.702c2.457-0.423,4.743-1.017,5.76-2.88
		C179.947,32.887,176.268,34.3,176.099,36.702z M182.339,36.222c-0.723,1.518-1.816,2.664-2.4,4.32
		c1.871-1.648,5.358-1.682,5.76-4.8C184.033,35.357,183.854,36.457,182.339,36.222z M173.219,42.942
		c-1.579-1.946-4.467-1.859-5.761-2.88c-0.205-0.162-0.368-1.867-0.479-1.92c-3.603-1.692-5.559,0.775-9.6,0.96
		c-2.663,0.122-4.596-1.396-7.2-0.96c-7.801,1.306-8.149,9.181-10.561,15.84c1.724,0.997,5.191,0.249,7.681,0.48
		c2.131,3.622,7.668,7.578,6.72,12.96c-0.482,2.74-3.138,2.947-4.32,5.76c-1.068,0.333,2.554,2.502,0.48,3.84
		c-2.496-0.969-1.207-2.875-2.88-4.8c1.519-2.321,3.763-3.917,4.319-7.2c-2.721-0.688-5.625,0.173-8.64-0.96
		c0.393,5.03-2.406,11.52-0.96,17.76c0.857,3.698,2.886,8.312,4.32,12.48c0.893,2.595,3.48,6.769,4.8,7.2
		c15.945,5.204,24.842-9.09,34.56-14.4c0.969-3.351,1.552-7.089,3.84-9.12c1.469-0.348,1.412,0.828,2.88,0.48
		c2.851-4.35,5.111-9.29,7.2-14.4c-4.638-4.516-9.945,0.269-12.96,2.88c-3.961-1.274-3.253-5.083-1.92-8.64
		c-2.542-5.298-4.342-11.338-8.64-14.88c0.115-0.685,0.79-0.81,0.96-1.44C175.102,41.625,175.405,43.529,173.219,42.942z
		 M185.219,40.542c1.467-0.933,3.833-0.966,4.8-2.4C188.308,37.158,185.037,38.103,185.219,40.542z M45.059,41.022
		c-0.414,10.107,1.459,14.981,0.96,24.96c18.542,1.452,25.662-2.324,43.2-1.92c-0.498-8.783-1.302-17.258-1.92-25.92
		C73.31,39.193,58.187,39.11,45.059,41.022z M183.778,45.342c3.209-0.058,7.86-2.651,11.521-3.84
		C190.704,37.933,186.885,43.145,183.778,45.342z M36.418,42.462c1.043,1.197,3.618,0.862,4.32,2.4
		c0.336,3.337,0.315,8.712,0.96,13.92c-0.333,2.228-3.702,1.418-4.32,3.36c1.896,1.464,4.026,2.694,6.72,3.36
		c0.399-6.972,0.217-20.446-0.96-24.48C40.782,41.386,36.688,40.012,36.418,42.462z M29.699,45.342
		c-1.952,2.369-3.993,4.647-8.16,4.8c-0.659,1.519-0.104,1.604,0,3.36c3.504,0.816,6.729,1.911,7.68,5.28
		c3.594-1.1,5.718,0.374,10.56,0c0.035-4.487-0.542-7.818-0.48-13.92C35.269,45.098,33.935,46.115,29.699,45.342z M180.898,46.782
		c1.482,0.627,2.723-1.362,1.44-1.92C182.48,46.125,180.477,45.24,180.898,46.782z M140.578,59.742
		c-0.357,1.478,1.317,0.922,0.96,2.4c1.796-1.885,6.161-1.199,7.681-3.36C145.897,58.661,142.945,58.909,140.578,59.742z
		 M59.458,68.862c0.98,4.327,5.681,1.741,9.12,1.44c4.949-0.434,11.012,0.33,15.84,0c0-1.28,0-2.56,0-3.84
		C76.583,66.888,67.872,67.041,59.458,68.862z M79.139,72.702c-0.501,0.753-0.885,3.694,0.48,4.8c2.342,0.084,3.079-3.395,1.92-5.28
		C80.425,72.069,79.696,72.299,79.139,72.702z M69.539,78.942c1.137,0.897,3.34-0.214,4.32-0.96c-0.521-1.719-0.749-3.731-1.44-5.28
		c-0.8,0-1.6,0-2.4,0C69.438,74.125,70.611,77.027,69.539,78.942z M77.699,78.462c-0.087-2.473,0.553-5.673-1.92-5.76
		c-0.32,0-0.64,0-0.96,0C74.995,75.405,73.719,79.561,77.699,78.462z M65.219,77.982c1.261-1.501-1.173-2.381-0.48-4.8
		c-0.48,0-0.96,0-1.44,0C62.566,74.509,62.665,78.417,65.219,77.982z M66.659,78.942c3.322-0.58,0.099-2.513,1.92-4.32
		c-1.262,0.142-0.378-1.862-1.92-1.44C65.838,74.354,67.14,76.609,66.659,78.942z M81.539,78.462
		c-4.271,3.539-12.562,3.543-17.76,1.44c-1.225,1.576,0.56,3.349,0,5.76c6.275,2.2,14.774,2.124,19.2-1.92
		C82.842,81.639,83.307,78.934,81.539,78.462z M63.779,88.062c-0.038,3.238-0.181,6.581,0.96,8.64
		c8.146,3.274,23.653,3.146,18.72-10.56C79.181,89.465,70.287,89.68,63.779,88.062z M87.298,93.822
		c-3.012,1.614-3.342,5.891-7.2,7.2c-6.815,2.312-15.153-1.304-18.72-5.28c-1.771,0.789-4.371,0.749-5.28,2.4
		c2.148,2.815,8.316,4.159,9.12,6.72c-4.495-0.945-6.686-4.194-11.04-5.28c-0.487,1.773,0.321,5.957,0,9.12
		c5.908,2.092,9.531,6.469,14.88,9.12c0.975-2.358-0.664-6.735-0.48-11.04c1.28,0,2.56,0,3.84,0
		c5.458-3.072,12.151-5.396,18.24-7.68c3.421-1.283,7.191-4.132,10.56-2.4c-9.556,4.845-20.805,7.995-30.72,12.48
		c-0.683,2.78,0.383,6.198,0,10.08c11.354-0.166,20.728-1.389,32.64-1.92c2.477-3.763,7.015-5.464,9.6-9.12
		c-3.403-3.637-5.635-8.445-8.64-12.48c-5.039-1.279-11.283-5.3-17.28-7.2C85.534,90.177,86.912,92.357,87.298,93.822z
		 M187.618,92.862c-0.479,0-0.96,0-1.439,0c-6.106,8.614-16.031,13.41-24.96,19.2c1.554,2.931,5.37,6.143,4.8,9.6
		c-1.802,0.361-1.047-1.833-2.4-1.92c-2.659,1.82-3.703,5.256-6.239,7.2c1.81,6.38,0.683,19.411,0.96,27.36
		c6.567-12.152,13.203-24.236,18.72-37.44c-3.396,2.085-6.165,7.221-10.08,7.2c-0.224-2.971,2.751-3.424,4.32-4.8
		c7.136-6.259,13.018-13.867,18.72-21.6C189.231,96.049,187.95,94.93,187.618,92.862z M192.418,98.622
		c-10.63,12.569-17.684,28.716-25.439,44.16c8.101-3.419,16.511-6.529,24.96-9.6c0.852-11.948,5.927-19.673,8.16-30.24
		C198.528,100.756,194.731,98.492,192.418,98.622z M156.898,108.702c3.378,1.833,8.521-1.304,10.56-3.84
		C163.854,106.057,158.916,105.919,156.898,108.702z M148.259,118.302c2.434-2.686,5.948-4.292,7.199-8.16
		c-0.876-1.523-3.126-1.673-4.8-2.4c0.422-0.849,1.521-1.401,0.48-2.4C145.383,106.168,144.857,114.443,148.259,118.302z
		 M166.498,254.622c1.091-1.783,3.347-1.086,5.28-1.44c10.301-1.888,17.923-4.969,26.4-7.68c8.953-2.863,18.751-5.528,25.439-8.64
		c8.459-3.936,8.316-9.998,10.561-20.641c3.886-18.433,7.948-44.784,5.76-66.239c-0.158-1.546-0.66-3.738-0.96-5.761
		c-3.556-23.998-19.669-29.347-36.96-38.399c-3.457,8.758-7.444,18.504-7.2,28.32c-4.961,2.879-11.435,4.245-16.8,6.72
		c1.409,5.471,3.681,10.08,5.28,15.36c-9.63,8.942-17.803,20.659-24.96,31.681c-2.484,3.824-3.755,8.607-7.2,11.039
		c6.264-18.216,18.331-30.628,29.76-43.68c-1.754-4.486-3.264-9.217-5.28-13.44c-3.535,0.945-5.782,3.178-9.6,3.84
		c-8.479,13.323-13.163,28.718-18.72,45.6c2.406,5.808,6.219,17.594,5.279,24.96c-5.918-22.133-16.397-43.997-12-70.08
		c-0.686-11.754,0.652-25.265,4.32-37.439c-7.453,0.312-8.841,3.358-11.52,8.64c-2.585,5.095-5.84,9.971-7.681,14.4
		c3.352,3.208,10.371,2.749,12.96,6.72c-2.865,0.625-2.798-1.682-5.279-1.44c-3.701,3.659-6.497,8.223-9.601,12.48
		c4.402,23.583,14.515,41.029,21.601,62.88c3.827,2.253,6.805,5.355,10.56,7.68c14.057-6.583,33.685-7.595,45.12-16.8
		c-1.023-1.826,0.026-3.157,0.479-4.8c-4.363,0.8-3.506,7.018-6.72,8.16c0.707-0.252-3.576-1.851-2.88-0.96
		c2.657-8.923,11.652-15.258,12.96-24.96c0.604-4.479-0.693-8.259,3.36-10.08c-2.611-19.987,3.058-43.899,18.72-48.48
		c-4.355,3.965-9.303,7.337-12.48,12.48c-2.298,10.766-6.658,22.28-5.279,32.64c4.396-4.884,5.351-13.209,11.52-16.319
		c-1.866,4.536-7.611,7.745-6.72,13.439c4.137-2.769,7.741-8.542,11.52-10.08c-4.273,8.997-17.845,12.59-19.199,24
		c-0.138,1.153,0.466,2.771,0.479,3.84c0.099,7.751-3.297,15.878-2.4,25.44c4.911-0.956,12.655-6.352,17.761-5.76
		c-2.881,3.039-10.022,1.817-11.521,6.239c6.654,0.084,11.848-2.34,15.84-2.399c-7.111,4.386-18.693,5.26-26.88,3.84
		c-16.054,9.489-37.112,11.184-56.16,17.28c4.003,7.664,10.138,18.741,5.761,30.239
		C153.979,257.212,161.104,253.825,166.498,254.622z M118.979,120.222c1.836,4.412,0.518,9.058,0,14.4
		c-1.779,18.344,3.45,38.455-2.88,52.8c-0.196-8.371,1.818-17.736,1.44-25.92c-1.78-1.021-3.661,0.873-4.32-1.44
		c1.665-0.095,3.689,0.17,3.84-1.439c-0.971-12.267,1.394-26.147,0.48-37.92c-10.512,3.398-4.479,19.565-8.64,27.84
		c-0.567-0.713-0.415-2.145-1.92-1.92c-2.964,4.229,0.334,8.297,1.44,12.479c-5.248-0.127-4.17,6.07-6.24,9.12
		c3.448,4.393,9.238,6.442,12.48,11.04c-1.546,3.39-7.163,2.557-10.08,3.36c12.847,9.072,25.458,18.382,38.4,27.359
		c-8.532-21.166-16.913-37.594-21.12-61.92c2.78-3.939,6.668-6.771,8.16-12c-2.295-1.225-5.772-1.268-7.2-3.36
		c3.228-6.692,7.336-12.504,10.08-19.68C127.29,114.453,121.449,115.652,118.979,120.222z M142.019,159.582
		c0.065,1.36-1.766,3.726,0.96,4.32c1.603-13.464,4.516-27.613,10.56-37.44c-0.417-2.462-3.372-2.387-2.88-5.76
		c-1.665-0.385-1.845,0.715-3.359,0.48c-0.417-1.504-1.189-2.651-2.4-3.36C142.314,130.212,141.456,147.915,142.019,159.582z
		 M64.739,120.702c1.944,2.696,4.291,4.989,5.76,8.16C73.506,125.053,67.725,116.863,64.739,120.702z M89.699,124.062
		c-5.328-5.914-17.015-2.427-17.76,5.28c-0.639,6.606,8.157,12.925,14.4,6.72c-11.926,6.528-15.282-13.208-3.84-12.48
		c4.244,0.27,5.13,4.282,7.2,7.68C91.254,129.847,89.096,126.168,89.699,124.062z M56.579,123.102
		c-0.947,1.269,3.075,5.32,0.48,6.72c-0.831-2.049-1.189-4.57-2.4-6.24c-3.71,0.446-8.497,1.413-13.44,1.92
		c-0.159,2.555,2.756,6.08,0.96,7.2c-1.972-1.548-0.484-6.556-3.84-6.72c-2.608,1.878,2.52,4.543,0.48,7.2
		c-2.279-1.562-0.715-6.965-5.28-6.24c-0.118,4.598,2.47,6.49,1.92,11.52c1.511-0.25,2.989-0.531,3.36-1.92
		c7.162,0.884,18.126-2.89,27.36-3.36C69.933,125.842,62.892,120.258,56.579,123.102z M26.339,125.502
		c-3.683,1.278-8.199,1.721-12.48,2.4c0.806,2.566-1.439,2.082-1.44,3.84c1.579,2.046,3.028-0.468,4.32-1.44
		c-0.235,2.166-0.861,3.939-3.36,3.84c-2.203-0.726-2.289-4.039-0.96-5.76c-5.591,1.397-3.566,14.18,0.48,15.84
		c6.705-1.67,13.34-1.592,20.64-3.84c0.474-5.764,0.116-12.113-4.32-13.92c0.102,2.568,2.625,6.918,0.48,8.64
		C28.352,132.129,28.826,127.334,26.339,125.502z M9.539,145.182c0.179-3.89-3.982-10.518-0.96-15.84
		C0.566,129.393,4.093,144.533,9.539,145.182z M67.139,133.662c1.866,0.374,2.697,1.783,4.32,2.4c-0.407-2.633-0.873-5.207-2.4-6.72
		C68.717,131.08,67.384,131.828,67.139,133.662z M91.139,137.022c-0.939-3.381-3.479-5.161-6.72-6.24
		C86.018,133.503,87.77,136.071,91.139,137.022z M91.139,138.942c2.618,0.999,4.458-4.962,2.88-8.16c-0.64,0-1.28,0-1.92,0
		C90.951,135.129,94.933,135.868,91.139,138.942z M39.299,139.902c0.958,4.996,1.986,11.002,2.88,17.28
		c-2.356,0.364-3.504,1.936-6.24,1.92c-1.613-2.386-1.834-6.166-2.88-9.119c-6.463,1.057-11.85,3.189-17.28,5.279
		c-0.362,1.859,2.45,4.93,0,5.76c-0.859-2.181-1.202-4.878-1.92-7.199c5.633-2.527,12.28-4.04,19.2-5.28
		c-0.572-2.044-0.951-3.833-0.96-5.28c-8.271,0.381-15.006,2.994-23.04,2.88c1.356,22.438,9.339,50.296,13.44,74.4
		c0.954,5.604,0.971,19.402,6.24,17.28c-1.976-11.702-5.509-25.042-5.76-35.521c1.839,1.266,2.085,4.386,2.4,6.24
		c2.137,12.563,4.251,25.362,6.24,34.56c6.912-0.148,14.765-2.913,19.68-3.359c-0.286-9.639-1.092-20.813-2.88-29.28
		c-6.318,14.47-28.676,0.253-18.24-11.521c-0.415-2.172-2.638-7.847,0-9.6c3.152,2.288,6.251,4.629,9.12,7.2
		c-4.753,0.753-4.993-3.008-8.16-3.84c-1.059,1.785,0.656,4.286,0.48,6.72c-4.248,3.202-2.331,14.417,2.4,13.92
		c-3.848-3.137-3.937-9.978,0.48-12.96c-0.199,2.041-1.364,3.116-1.92,4.8c2.198-0.201,2.296-2.504,3.84-3.359
		c0.51-1.791-1.8-0.76-1.44-2.4c2.691-0.808,6.479-1.503,9.6-0.48c0.204-2.923-4.988-0.451-4.32-3.84
		c3.392,0.288,4.998,2.362,7.68,3.36c-1.311-11.231-1.507-20.607-2.4-32.16c9.564-7.556,20.917-13.323,31.2-20.16
		c2.25,0.011,4.732,0.253,4.8-1.92c-4.982,0.116-4.863-5.268-9.12-5.76c-2.227-0.257-7.69,2.224-11.52,3.36
		c-8.263,2.452-14.345,5.256-19.2,4.32c7.941-4.218,18.084-6.235,28.32-8.16C62.699,132.274,48.765,139.607,39.299,139.902z
		 M79.619,142.302c4.642,0.482,7.621-0.699,8.64-3.84C85.567,140.621,81.235,140.103,79.619,142.302z M90.179,141.342
		C86.475,141.501,89.928,144.954,90.179,141.342L90.179,141.342z M98.338,146.142c1.255,0.346,1.472,1.729,2.88,1.92
		c0.022-2.373,4.278-4.558,1.44-6.72C102.775,144.498,100.047,144.811,98.338,146.142z M83.938,145.182
		c1.787,0.32,4.23-1.172,2.88-2.399C86.049,143.772,83.986,143.47,83.938,145.182z M39.299,149.021
		c0.57-4.09-1.758-5.282-5.28-5.279C32.229,147.449,35.779,151.856,39.299,149.021z M87.298,153.822
		c1.461,0.021,1.867-1.014,2.88-1.44c0.141,0.979,1.299,0.941,1.44,1.92c-0.938,2.583-4.367,2.673-6.24,4.32
		c2.116,1.602,4.093-3.119,6.72-0.96c0.011,1.131-0.827,1.413-0.48,2.88c2.438,1.242,3.5,3.859,6.72,4.32
		c0.692-3.788,3.122-5.839,3.84-9.601c-2.182,0.231-4.808,2.535-7.2,0.96c-0.107-0.907,0.541-1.059,0.48-1.92
		c-5.101,0.141-3.948-5.972-8.16-6.72C88.436,150.168,88.94,151.552,87.298,153.822z M78.659,157.182
		c1.929-0.169,3.512,0.008,3.84,1.44c-9.006,7.026-24.258,1.508-33.6,9.12c5.678,5.522,10.845,11.555,16.8,16.8
		c14.16-2.268,27.352-4.22,41.28-6.24c-0.932-3.228-4.074-4.246-6.72-5.76c-1.87,2.29-1.767,6.554-6.24,6.24
		c0.001-0.481-0.389-0.571-0.48-0.96c0.462-3.379,1.881-5.799,2.88-8.641c-1.946-2.854-5.5-4.101-7.2-7.199
		c-3.785,0.771-7.265-1.232-4.8-3.841c-0.713-0.566-2.145-0.415-1.92-1.92c0.2-2.04,4.021-0.458,3.84-2.88
		c-1.512-0.231-1.086,1.474-2.88,0.96c-1.576-1.464-0.576-5.504-3.84-5.28C79.088,151.07,82.348,155.739,78.659,157.182z
		 M95.458,153.822c2.516-0.205,4.555-0.886,4.8-3.36C98.15,149.354,96.816,152.634,95.458,153.822z M63.299,160.062
		c3.529-2.23,11.57,0.051,14.4-2.88c-2.308-0.572-2.813-2.946-3.84-4.8C70.111,154.714,65.638,156.321,63.299,160.062z
		 M36.898,157.662c1.515,0.234,1.695-0.865,3.36-0.48c-0.064-1.536-1.088-2.111-2.88-1.92
		C37.575,156.418,36.502,156.306,36.898,157.662z M49.858,185.502c1.983-2.389,6.634,0.314,8.16-1.92
		C56.356,177.604,44.271,178.767,49.858,185.502z M113.219,192.222c-4.144-3.166-11.993-9.77-14.88-8.64
		c-0.105,0.604-0.748,0.98,0.48,0.96c14.742,12.618,29.882,24.839,43.68,38.399c2.993-0.847,6.905-0.775,8.641-2.88
		C139.687,211.309,125.607,201.689,113.219,192.222z M64.259,186.941c0.232-2.151-1.293-2.546-2.4-3.359
		C62.049,185.312,62.64,186.641,64.259,186.941z M101.219,195.102c-4.141-3.695-11.067-12.338-15.84-9.6
		c2.334,0.993,7.959,1.215,7.68,6.24c15.696,8.025-20.986,20.557-23.52,7.199c2.555-1.925,4.968-3.991,4.32-9.119
		c1.529-0.872,3.393-1.408,3.84-3.36c-6.053,0.968-14.442,3.809-18.24-0.96c-3.367,0.953-7.896,0.744-10.56,2.4
		c1.069,8.69,1.957,17.562,2.88,26.399c19.367-2.854,37.641-9.346,59.04-9.6c0.153,1.272-2.689-0.449-1.92,1.439
		c1.12,0,2.24,0,3.36,0C110.491,202.171,105.671,199.076,101.219,195.102z M101.219,191.742c-2.082-2.365-5.864-7.722-8.64-6.24
		C96.636,186.404,97.424,190.576,101.219,191.742z M75.778,190.782c2.785,3.865,12.797,1.454,14.4-1.92
		C85.91,186.411,77.259,186.603,75.778,190.782z M90.179,191.262c-2.455,3.938-10.205,3.819-15.36,2.4
		C74.159,203.188,96.64,197.409,90.179,191.262z M114.659,207.102c-17.533,3.747-35.914,6.646-53.76,10.08
		c-0.851-0.109-2.404,0.484-1.92-0.96c-1.564,1.796-5.084,1.636-7.2,2.88c1.014,6.506,0.707,14.334,2.4,20.16
		c12.498-1.566,23.256-4.744,35.52-5.28c1.514-1.655-1.067-2.125-0.48-4.319c7.512-5.498,15.934-9.17,29.28-6.721
		c1.219,0.225,1.88,1.549,2.88,1.921c7.262,2.699,11.98,0.053,17.279-0.961c-11.499-11.22-23.642-21.797-36.479-31.68
		C105.59,197.611,113.971,200.588,114.659,207.102z M201.538,197.502c2.495,1.183,2.362-2.715,1.44-3.36
		C202.762,195.525,201.279,195.644,201.538,197.502z M93.539,195.582c-1.81,1.405-3.211,2.991-5.28,3.84
		c-5.589,2.291-11.093,0.216-16.32-0.48c0.733,3.708,6.159,4.027,9.6,3.841c5.473-0.298,12.576-3.001,13.92-7.2
		C94.818,195.582,94.179,195.582,93.539,195.582z M45.539,202.302c-12.22-6.954-14.696,15.254-1.44,11.04
		c1.925-0.611,2.22-2.513,3.84-4.32C47.013,206.908,46.977,203.903,45.539,202.302z M95.458,208.062
		c-0.484,1.444,1.069,0.851,1.92,0.96c0-0.479,0-0.96,0-1.439C96.542,207.546,95.886,207.689,95.458,208.062z M89.219,209.981
		c2.052,0.605,2.446,0.038,3.36-1.439C91.147,208.711,89.656,208.819,89.219,209.981z M83.938,210.941
		c0.717,0.762,2.736,0.702,2.4-0.96C85.148,209.911,84.009,209.893,83.938,210.941z M79.619,210.941
		c-0.076,1.959,3.427,1.827,2.88-0.479C81.368,210.451,81.085,211.289,79.619,210.941z M75.299,213.342
		c1.265,0.145,1.575-0.665,1.44-1.92C75.446,211.454,74.432,212.52,75.299,213.342z M67.619,213.822
		c1.866,1.011,3.747,0.174,4.32-1.44C71.27,212.063,68.38,212.732,67.619,213.822z M61.858,214.782
		c2.128,0.118,3.591,1.037,3.84-1.44C64.453,213.856,62.484,213.646,61.858,214.782z M52.259,216.702
		c1.161,0.92,3.02-0.534,3.84-1.44C53.695,215.584,53.22,215.654,52.259,216.702z M135.778,230.622
		c-15.535-0.491-29.65-10.082-41.28,0c4.824,5.458,16.275-3.212,19.68,3.84c-7.45,3.986-12.766,7.141-23.04,8.16
		c-3.249-1.03-10.898-4.451-12-0.48c3.754,2.326,8.242,3.919,12.96,5.28c3.107-1.264,10.362-3.33,13.92-0.96
		c-3.908,2.172-11.897,0.263-14.4,3.84c3.354,4.691,11.522-1.051,15.36,2.4c-2.76,1.88-9.557-0.277-11.52,2.399
		c1.996,0.455,2.377,1.969,4.32,2.4c3.593,0.797,8.818-2.824,10.08,0.96c-3.471,0.804-4.124-0.182-6.72,0.96
		c0.132,2.107,2.798,1.682,3.84,2.88c7.568-0.031,10.759-3.39,14.88-5.28c6.3-2.89,13.315-4.188,19.68-7.68
		C142.303,240.417,138.829,235.731,135.778,230.622z M148.738,245.502c-0.606-5.682-5.384-20.506-12-17.28
		c4.854,5.541,9.333,18.208,5.28,25.44c3.101,0.483,3.24-1.545,5.76-0.48C148.676,251.519,149.084,248.737,148.738,245.502z
		 M87.778,236.862c3.928-0.163,9.398,2.458,11.04-0.961C95.184,234.902,90.247,234.428,87.778,236.862z M197.698,250.302
		c2.018,2.942,4.892,5.028,8.641,6.24c0.439-2.6,0.701-5.379,0.96-8.16C203.976,247.09,201.554,250.556,197.698,250.302z"/>
	<path fill-rule="evenodd" clip-rule="evenodd" d="M171.299,85.182c-4.322,0.123-7.422,3.994-10.561,6.72
		c-8.872,1.192-13.208-2.151-14.399-8.64c2.423,0.42,3.875,0.143,5.76-0.96C159.206,85.453,168.804,79.003,171.299,85.182z
		 M152.099,87.582c-0.396,1.356,0.677,1.244,0.479,2.4c4.765,0.284,9.04,0.08,10.561-2.88
		C159.2,86.874,155.509,88.132,152.099,87.582z"/>
	<path fill-rule="evenodd" clip-rule="evenodd" fill="#FFFFFF" d="M86.818,88.542c5.997,1.9,12.241,5.921,17.28,7.2
		c3.005,4.035,5.236,8.843,8.64,12.48c-2.584,3.655-7.123,5.357-9.6,9.12c-11.913,0.532-21.287,1.754-32.64,1.92
		c0.383-3.882-0.683-7.3,0-10.08c9.915-4.485,21.165-7.635,30.72-12.48c-3.369-1.732-7.139,1.117-10.56,2.4
		c-6.089,2.284-12.782,4.608-18.24,7.68c-1.28,0-2.56,0-3.84,0c-0.184,4.305,1.455,8.682,0.48,11.04
		c-5.349-2.651-8.972-7.028-14.88-9.12c0.321-3.163-0.487-7.347,0-9.12c4.354,1.086,6.545,4.334,11.04,5.28
		c-0.804-2.561-6.972-3.904-9.12-6.72c0.909-1.651,3.509-1.611,5.28-2.4c3.567,3.976,11.905,7.591,18.72,5.28
		c3.857-1.309,4.188-5.585,7.2-7.2C86.912,92.357,85.534,90.177,86.818,88.542z"/>
	<path fill-rule="evenodd" clip-rule="evenodd" fill="#FFFFFF" d="M66.179,133.182c-9.233,0.47-20.198,4.244-27.36,3.36
		c-0.371,1.389-1.85,1.67-3.36,1.92c0.55-5.03-2.038-6.922-1.92-11.52c4.565-0.725,3.001,4.679,5.28,6.24
		c2.04-2.657-3.088-5.322-0.48-7.2c3.355,0.164,1.868,5.172,3.84,6.72c1.796-1.12-1.119-4.646-0.96-7.2
		c4.943-0.507,9.73-1.474,13.44-1.92c1.21,1.669,1.569,4.191,2.4,6.24c2.595-1.399-1.427-5.451-0.48-6.72
		C62.892,120.258,69.933,125.842,66.179,133.182z"/>
	<path fill-rule="evenodd" clip-rule="evenodd" fill="#FFFFFF" d="M149.219,257.021c4.377-11.498-1.758-22.575-5.761-30.239
		c19.048-6.097,40.106-7.791,56.16-17.28c8.187,1.42,19.769,0.546,26.88-3.84c-3.992,0.06-9.186,2.483-15.84,2.399
		c1.498-4.422,8.64-3.2,11.521-6.239c-5.105-0.592-12.85,4.804-17.761,5.76c-0.896-9.562,2.499-17.689,2.4-25.44
		c-0.014-1.068-0.617-2.687-0.479-3.84c1.354-11.41,14.926-15.003,19.199-24c-3.778,1.538-7.383,7.312-11.52,10.08
		c-0.892-5.694,4.854-8.903,6.72-13.439c-6.169,3.11-7.124,11.436-11.52,16.319c-1.379-10.359,2.981-21.874,5.279-32.64
		c3.178-5.143,8.125-8.515,12.48-12.48c-15.662,4.581-21.331,28.493-18.72,48.48c-4.054,1.821-2.757,5.601-3.36,10.08
		c-1.308,9.702-10.303,16.037-12.96,24.96c-0.696-0.891,3.587,0.708,2.88,0.96c3.214-1.143,2.356-7.36,6.72-8.16
		c-0.453,1.643-1.503,2.974-0.479,4.8c-11.436,9.205-31.063,10.217-45.12,16.8c-3.755-2.324-6.732-5.427-10.56-7.68
		c-7.086-21.851-17.198-39.297-21.601-62.88c3.104-4.257,5.899-8.821,9.601-12.48c2.481-0.242,2.414,2.065,5.279,1.44
		c-2.589-3.971-9.608-3.511-12.96-6.72c1.841-4.43,5.096-9.306,7.681-14.4c2.679-5.281,4.066-8.328,11.52-8.64
		c-3.668,12.174-5.006,25.685-4.32,37.439c-4.397,26.083,6.082,47.947,12,70.08c0.939-7.366-2.873-19.152-5.279-24.96
		c5.557-16.882,10.24-32.276,18.72-45.6c3.817-0.662,6.064-2.896,9.6-3.84c2.017,4.223,3.526,8.954,5.28,13.44
		c-11.429,13.052-23.496,25.464-29.76,43.68c3.445-2.432,4.716-7.215,7.2-11.039c7.157-11.021,15.33-22.738,24.96-31.681
		c-1.6-5.28-3.871-9.889-5.28-15.36c5.365-2.475,11.839-3.84,16.8-6.72c-0.244-9.815,3.743-19.562,7.2-28.32
		c17.291,9.053,33.404,14.401,36.96,38.399c0.3,2.022,0.802,4.215,0.96,5.761c2.188,21.455-1.874,47.807-5.76,66.239
		c-2.244,10.643-2.102,16.705-10.561,20.641c-6.688,3.111-16.486,5.776-25.439,8.64c-8.478,2.711-16.1,5.792-26.4,7.68
		c-1.934,0.354-4.189-0.343-5.28,1.44C161.104,253.825,153.979,257.212,149.219,257.021z"/>
</g>
</svg>
