<?xml version="1.0" encoding="UTF-8" standalone="no"?>
<!-- Created with Inkscape (http://www.inkscape.org/) -->
<svg
   xmlns:dc="http://purl.org/dc/elements/1.1/"
   xmlns:cc="http://creativecommons.org/ns#"
   xmlns:rdf="http://www.w3.org/1999/02/22-rdf-syntax-ns#"
   xmlns:svg="http://www.w3.org/2000/svg"
   xmlns="http://www.w3.org/2000/svg"
   xmlns:sodipodi="http://sodipodi.sourceforge.net/DTD/sodipodi-0.dtd"
   xmlns:inkscape="http://www.inkscape.org/namespaces/inkscape"
   width="128"
   height="128"
   id="svg2"
   sodipodi:version="0.32"
   inkscape:version="0.46"
   version="1.0"
   sodipodi:docname="countdown-06.svg"
   inkscape:output_extension="org.inkscape.output.svg.inkscape">
  <defs
     id="defs4">
    <filter
       inkscape:collect="always"
       id="filter3599">
      <feGaussianBlur
         inkscape:collect="always"
         stdDeviation="1.8172919"
         id="feGaussianBlur3601" />
    </filter>
  </defs>
  <sodipodi:namedview
     id="base"
     pagecolor="#ffffff"
     bordercolor="#666666"
     borderopacity="1.0"
     gridtolerance="10000"
     guidetolerance="10"
     objecttolerance="10"
     inkscape:pageopacity="0.0"
     inkscape:pageshadow="2"
     inkscape:zoom="1"
     inkscape:cx="64"
     inkscape:cy="64"
     inkscape:document-units="px"
     inkscape:current-layer="layer1"
     showgrid="false"
     inkscape:window-width="1538"
     inkscape:window-height="961"
     inkscape:window-x="127"
     inkscape:window-y="31" />
  <metadata
     id="metadata7">
    <rdf:RDF>
      <cc:Work
         rdf:about="">
        <dc:format>image/svg+xml</dc:format>
        <dc:type
           rdf:resource="http://purl.org/dc/dcmitype/StillImage" />
      </cc:Work>
    </rdf:RDF>
  </metadata>
  <g
     inkscape:label="Layer 1"
     inkscape:groupmode="layer"
     id="layer1">
    <path
       style="fill:#000000;fill-opacity:0.69547323;fill-rule:evenodd;stroke:none;stroke-width:1px;stroke-linecap:butt;stroke-linejoin:miter;stroke-opacity:1;filter:url(#filter3599)"
       d="M 52.25,123.5 C 63.143438,120.59074 76.765742,123.32332 87.5,121.5 C 92.464058,120.14911 99.089035,122.95048 102.75,119 C 103.42913,117.64174 101.26767,116.07067 101,115 C 97.025482,109.9894 95.450492,102.81219 91.25,98 C 87.955062,95.042361 87.241306,92.584345 92.25,90.75 C 97.494431,87.930076 97.651239,84.169606 94.25,80.75 C 87.062319,77.129705 76.107749,73.162338 68.5,73.75 C 58.188894,73.087973 50.740295,82.25 40.5,82.25 C 36.000647,82.936512 32.730922,86.078312 32,90.25 C 32.013468,96.626442 37.774463,94.077065 40.75,98.75 C 42.573852,105.33874 37.140188,109.0204 32.5,112.25 C 30.647521,115.14483 29.996125,117.59213 30,121 C 36.950171,123.45494 44.648161,123.86812 52.25,123.5 z"
       id="path3461"
       sodipodi:nodetypes="cccccccccccccc" />
    <g
       id="g3779"
       transform="translate(-101,-22)" />
    <path
       id="path2866"
       d="M 73.96309,30.631393 C 72.44213,31.057613 76.57915,35.73894 77.13746,36.71814 C 78.00291,38.23603 81.62893,39.80516 83.08956,40.92496 C 84.33017,41.87608 87.89194,39.64431 88.78163,38.96272 C 90.2789,37.81565 92.5003,38.18541 93.49354,38.74384 C 96.59286,40.48634 94.15365,37.35365 93.16618,36.26536 C 92.39061,35.41061 89.74502,34.70976 88.56274,34.25081 C 86.55296,33.47063 85.81278,32.131103 84.01355,31.119543 C 82.29643,30.154137 80.68307,30.584143 78.8658,31.093393 C 77.73057,31.411513 75.42916,30.520023 73.96309,30.631393 z"
       style="fill:#28170b;fill-rule:evenodd;stroke:#120a04;stroke-width:1px;stroke-linecap:butt;stroke-linejoin:miter;stroke-opacity:1" />
    <path
       id="path2556"
       d="M 79.190565,84.866 C 82.35246,82.954664 85.968928,81.928489 89.204485,83.946001 C 90.750641,87.112118 90.840763,91.01136 88.185642,93.576328 C 86.654211,94.439599 85.42539,95.06862 83.600478,95.570386 C 78.03872,95.869662 71.537708,97.193827 66.033895,95.750714 C 64.256979,94.575896 64.526176,92.741553 65.047305,90.771455 C 69.600299,88.653973 74.485891,87.080454 79.190565,84.866 z"
       style="fill:#00325c;fill-opacity:1;fill-rule:evenodd;stroke:#00192e;stroke-width:1px;stroke-linecap:butt;stroke-linejoin:miter;stroke-opacity:1"
       sodipodi:nodetypes="ccccccc" />
    <path
       style="fill:#00325c;fill-opacity:1;fill-rule:evenodd;stroke:#00192e;stroke-width:1px;stroke-linecap:butt;stroke-linejoin:miter;stroke-opacity:1"
       d="M 54.143444,87.051891 C 50.106726,85.485896 46.323838,82.712744 41.810811,83.2154 C 38.742727,83.964083 38.956148,86.590721 38.759523,89.171143 C 38.413489,91.30521 39.04518,92.737513 40.786824,93.91944 C 45.488973,96.737276 50.841256,96.707932 56.102773,96.172871 C 59.495832,96.520687 63.485871,96.574482 65.40808,93.336828 C 66.516686,88.891578 57.121093,88.375517 54.143444,87.051891 z"
       id="path2554"
       sodipodi:nodetypes="ccccccc" />
    <path
       sodipodi:nodetypes="cccccccccccc"
       id="path2794"
       d="M 79.44514,85.712023 C 76.64003,82.250763 78.71496,80.1452 79.07274,76.18124 C 77.84461,71.22419 79.37916,66.33918 78.32642,61.38377 C 77.86065,58.27801 80.72275,55.4084 79.16221,52.70027 C 77.37794,50.2872 72.87,49.16424 69.84115,49.00942 C 65.9552,49.57859 62.03257,49.05412 58.17388,49.8933 C 55.32659,51.13218 50.36423,52.05934 50.04736,55.13225 C 49.90983,57.90618 52.803347,62.32371 51.517027,64.82831 C 51.129877,69.2797 49.808437,74.30819 50.434927,78.77223 C 51.329397,83.96561 49.088084,82.592066 49.663474,87.771606 C 54.145354,85.205806 60.457893,93.751804 65.546723,93.182134 C 69.814863,91.656314 76.79717,88.948413 79.44514,85.712023 z"
       style="fill:#1a1a1a;fill-opacity:1;fill-rule:evenodd;stroke:#000000;stroke-width:1px;stroke-linecap:butt;stroke-linejoin:miter;stroke-opacity:1" />
    <path
       sodipodi:nodetypes="ccccc"
       id="path2792"
       d="M 59.807265,53.16537 C 60.463587,58.02437 69.19555,58.5012 73.15665,54.94273 C 72.53071,52.25395 72.36352,49.16051 70.05711,47.29303 C 67.9077,46.52805 65.62211,46.6442 63.37766,46.76809 C 61.377825,47.69526 59.822491,51.38129 59.807265,53.16537 z"
       style="fill:#e9d2af;fill-opacity:1;fill-rule:evenodd;stroke:#3f2d10;stroke-width:1px;stroke-linecap:butt;stroke-linejoin:miter;stroke-opacity:1" />
    <path
       style="fill:#e9d2af;fill-opacity:1;fill-rule:evenodd;stroke:#3f2d10;stroke-width:0.99999994px;stroke-linecap:butt;stroke-linejoin:miter;stroke-opacity:1"
       d="M 51.279811,15.54233 C 49.870609,20.342799 51.913205,25.996141 53.171351,30.697981 C 51.348077,36.55211 51.585202,41.88926 57.137545,46.55944 C 63.56249,48.64797 77.29241,49.61406 79.49179,40.56941 C 80.85831,29.191961 78.37862,35.74454 80.96472,26.240264 C 81.81956,13.926762 77.45061,5.580092 65.87502,6.474709 C 57.873213,6.212589 54.438815,10.339288 51.279811,15.54233 z"
       id="path2649"
       sodipodi:nodetypes="ccccccc" />
    <path
       style="fill:#28170b;fill-opacity:1;fill-rule:evenodd;stroke:#120a04;stroke-width:0.99999994px;stroke-linecap:butt;stroke-linejoin:miter;stroke-opacity:1"
       d="M 66.35922,33.14105 C 60.798159,32.829476 57.929596,36.11407 54.750161,38.08381 C 54.210837,38.26385 53.835315,38.99259 53.414983,39.48351 C 51.73506,42.99785 54.173912,46.82571 57.316767,49.01212 C 59.949604,50.54043 62.63204,51.04311 65.51999,50.54082 C 68.25057,50.05471 71.22093,50.1906 73.631,48.89424 C 77.61468,48.30905 78.99963,46.14022 79.46838,42.2492 C 79.293,39.60128 77.99321,36.46467 75.73158,35.16574 C 72.78506,34.3319 69.42272,32.631876 66.35922,33.14105 z M 65.58544,36.50974 C 67.40061,37.03526 70.92652,38.1016 72.32826,39.27836 C 72.89119,41.60009 71.79169,43.91055 69.39635,43.63074 C 67.84007,41.75412 64.72621,42.21477 62.97789,43.9743 C 60.892404,44.34645 60.019906,41.86486 60.073237,40.1281 C 60.750047,38.30285 64.00639,37.48378 65.58544,36.50974 z"
       id="path2654"
       sodipodi:nodetypes="ccccccccccccccc" />
    <path
       style="fill:#28170b;fill-opacity:1;fill-rule:evenodd;stroke:#120a04;stroke-width:0.99999994px;stroke-linecap:butt;stroke-linejoin:miter;stroke-opacity:1"
       d="M 65.91255,12.61335 C 70.39414,11.58335 69.65798,10.517133 70.79884,9.12303 C 79.725582,8.808283 80.337409,16.722569 78.93719,20.28325 C 80.59356,18.788842 79.72244,18.033859 81.76839,19.475248 C 82.2381,19.877758 81.88297,23.535862 81.80262,24.010154 C 81.71811,24.508977 79.94147,30.873173 80.31483,31.025207 C 84.79244,28.307876 85.60462,16.370776 80.83039,9.833845 C 77.30757,5.010352 71.09762,3.086169 65.75316,4.896201 C 50.380862,1.719525 45.018896,20.868585 52.577231,34.06765 C 53.458557,31.081851 50.944231,25.084485 52.054145,21.834191 C 52.977832,21.011247 53.220717,22.638304 54.414936,22.509889 C 50.396519,14.377879 54.809449,9.983032 60.192453,9.136528 C 61.574666,7.912975 61.543828,12.178157 65.91255,12.61335 z"
       id="path2665"
       sodipodi:nodetypes="ccccscscccccc" />
    <path
       sodipodi:nodetypes="cccc"
       id="path2696"
       d="M 69.49076,22.269019 C 68.07539,25.244483 69.10304,27.019864 72.03496,26.634947 C 72.92686,27.045375 74.835,24.884764 74.42942,23.424136 C 74.81557,19.525844 71.43296,19.385098 69.49076,22.269019 z"
       style="fill:#ffffff;fill-rule:evenodd;stroke:#333333;stroke-width:1px;stroke-linecap:butt;stroke-linejoin:miter;stroke-opacity:1" />
    <path
       sodipodi:nodetypes="ccc"
       id="path2698"
       d="M 61.577746,20.137765 C 58.985862,20.623514 57.743826,22.40089 58.202576,25.082583 C 61.10176,30.149182 66.89264,23.024319 61.577746,20.137765 z"
       style="fill:#ffffff;fill-rule:evenodd;stroke:#333333;stroke-width:0.99999994px;stroke-linecap:butt;stroke-linejoin:miter;stroke-opacity:1" />
    <path
       sodipodi:nodetypes="cssc"
       id="path2700"
       d="M 72.47167,23.263282 C 72.99724,23.283145 71.86225,21.214723 70.52585,22.737664 C 69.49003,23.918068 70.56959,25.518906 71.32841,25.652544 C 72.85247,25.92095 73.12632,23.4736 72.47167,23.263282 z"
       style="fill:#000000;fill-rule:evenodd;stroke:#000000;stroke-width:1px;stroke-linecap:butt;stroke-linejoin:miter;stroke-opacity:1" />
    <path
       sodipodi:nodetypes="cssc"
       id="path2702"
       d="M 60.352561,22.453592 C 60.825539,21.51258 58.178805,22.229925 58.819666,24.428492 C 59.261955,25.945815 60.93446,25.044513 61.061083,24.965662 C 62.75917,23.908258 61.446304,21.119267 60.352561,22.453592 z"
       style="fill:#000000;fill-rule:evenodd;stroke:#000000;stroke-width:1px;stroke-linecap:butt;stroke-linejoin:miter;stroke-opacity:1" />
    <path
       sodipodi:nodetypes="ccc"
       id="path2704"
       d="M 64.30389,25.964012 C 63.16616,28.133429 59.916382,33.33316 64.9338,33.22544 C 69.61638,33.21461 67.18913,27.907528 67.05559,25.884542"
       style="fill:#e9d2af;fill-opacity:1;fill-rule:evenodd;stroke:#3f2d10;stroke-width:1px;stroke-linecap:butt;stroke-linejoin:miter;stroke-opacity:1" />
    <path
       sodipodi:nodetypes="cc"
       id="path2706"
       d="M 63.22219,39.74089 C 64.18013,40.16594 66.91763,39.99341 68.59645,39.82985"
       style="fill:none;fill-rule:evenodd;stroke:#3f2d10;stroke-width:1px;stroke-linecap:butt;stroke-linejoin:miter;stroke-opacity:1" />
    <path
       sodipodi:nodetypes="cc"
       id="path2708"
       d="M 80.25474,20.661411 C 87.66808,17.704179 84.59176,27.838346 80.4054,26.664726"
       style="fill:#e9d2af;fill-opacity:1;fill-rule:evenodd;stroke:#3f2d10;stroke-width:1px;stroke-linecap:butt;stroke-linejoin:miter;stroke-opacity:1" />
    <path
       sodipodi:nodetypes="cs"
       id="path2710"
       d="M 81.22978,22.177755 C 83.35734,20.594817 84.17113,23.781446 81.05514,25.175276"
       style="fill:#e9d2af;fill-opacity:1;fill-rule:evenodd;stroke:#3f2d10;stroke-width:1px;stroke-linecap:butt;stroke-linejoin:miter;stroke-opacity:1" />
    <path
       style="fill:#e9d2af;fill-opacity:1;fill-rule:evenodd;stroke:#3f2d10;stroke-width:1px;stroke-linecap:butt;stroke-linejoin:miter;stroke-opacity:1"
       d="M 52.738489,22.739241 C 44.991532,20.818965 49.419082,30.439873 53.40665,28.70716"
       id="path2743"
       sodipodi:nodetypes="cc" />
    <path
       style="fill:#e9d2af;fill-opacity:1;fill-rule:evenodd;stroke:#3f2d10;stroke-width:1px;stroke-linecap:butt;stroke-linejoin:miter;stroke-opacity:1"
       d="M 51.979,24.374227 C 49.65571,23.095725 49.283404,26.363481 52.560156,27.320052"
       id="path2745"
       sodipodi:nodetypes="cs" />
    <path
       sodipodi:nodetypes="cccccc"
       id="path2580"
       d="M 86.714357,64.774603 C 90.362124,65.926716 91.303078,69.899183 92.901542,72.729554 C 93.179088,74.905522 91.220181,76.001105 89.366008,76.972195 C 86.807211,77.358388 85.167366,77.475883 83.178823,75.911535 C 82.633067,75.365779 81.047782,72.690668 80.880727,72.022448 C 80.106908,68.716807 82.336224,62.585536 86.714357,64.774603 z"
       style="fill:#e9d2af;fill-opacity:1;fill-rule:evenodd;stroke:#3f2d10;stroke-width:1px;stroke-linecap:butt;stroke-linejoin:miter;stroke-opacity:1" />
    <path
       sodipodi:nodetypes="ccccccc"
       id="path2796"
       d="M 75.94986,61.42952 C 76.25144,62.28807 76.77162,62.60306 77.98004,64.80943 C 79.04219,67.099 79.64758,68.51437 80.09261,70.98183 C 84.16326,69.83883 86.30497,68.3451 90.2247,66.33886 C 89.4439,64.37132 88.29227,62.46265 87.54612,60.47513 C 86.42897,57.88142 84.62915,57.29221 83.03955,55.15681 C 81.19988,53.70902 80.58313,53.22107 78.47956,52.02077"
       style="fill:#1a1a1a;fill-opacity:1;fill-rule:evenodd;stroke:#000000;stroke-width:0.99999994000000003px;stroke-linecap:butt;stroke-linejoin:miter;stroke-opacity:1" />
    <path
       style="fill:#e9d2af;fill-opacity:1;fill-rule:evenodd;stroke:#3f2d10;stroke-width:1px;stroke-linecap:butt;stroke-linejoin:miter;stroke-opacity:1"
       d="M 42.571961,63.713943 C 38.924194,64.866056 37.099357,69.722406 35.500893,72.552777 C 35.223347,74.728745 38.242914,79.183086 40.097087,80.154176 C 42.655884,80.540369 44.118952,76.415223 46.107495,74.850875 C 46.653251,74.305119 48.238536,71.630008 48.405591,70.961788 C 49.17941,67.656147 46.950094,61.524876 42.571961,63.713943 z"
       id="path2578"
       sodipodi:nodetypes="cccccc" />
    <path
       style="fill:#1a1a1a;fill-opacity:1;fill-rule:evenodd;stroke:#000000;stroke-width:0.99999994000000003px;stroke-linecap:butt;stroke-linejoin:miter;stroke-opacity:1"
       d="M 52.83521,61.19361 C 52.150578,63.64383 53.245363,62.43919 51.91979,64.57723 C 50.73578,66.80623 49.376102,71.06045 48.798735,73.50035 C 44.795601,72.13963 41.544314,68.30131 37.738397,66.08673 C 38.624104,64.16412 41.002293,62.18182 41.854473,60.2374 C 43.109792,57.70767 44.346528,57.75091 46.048901,55.70428 C 47.611945,54.51248 48.055994,52.90922 51.292687,52.78515"
       id="path2798"
       sodipodi:nodetypes="ccccccc" />
    <g
       id="g2564"
       transform="matrix(0.3682894,0.9297112,0.9297112,-0.3682894,-54.108308,162.3489)">
      <path
         style="fill:#e6e6e6;fill-rule:evenodd;stroke:#333333;stroke-width:1px;stroke-linecap:butt;stroke-linejoin:miter;stroke-opacity:1"
         d="M -14.95934,120.89166 C -12.60409,122.53015 -8.9022501,123.66245 -6.6664001,126.05015 C -6.3474301,126.99283 -6.4860401,128.02295 -6.4804901,129.00895 C -6.7747901,130.27704 -7.6264701,131.00056 -8.6647201,131.68892 C -11.32979,132.37513 -14.08177,131.27159 -16.622,130.48583 C -18.89152,130.1378 -21.51741,129.29919 -22.90032,127.37483 C -25.08336,124.79226 -24.4158,122.66248 -23.78411,119.49751 C -20.85525,120.0691 -17.92235,120.54309 -14.95934,120.89166 z"
         id="path2818"
         sodipodi:nodetypes="cccccccc" />
      <path
         style="fill:none;fill-rule:evenodd;stroke:#333333;stroke-width:1px;stroke-linecap:butt;stroke-linejoin:miter;stroke-opacity:1"
         d="M -7.3066801,129.97973 C -10.49194,130.2805 -13.90405,130.22852 -16.20085,128.99187 C -19.05131,128.26797 -21.56329,127.36369 -23.89252,124.20164"
         id="path2824"
         sodipodi:nodetypes="ccc" />
    </g>
    <path
       style="fill:#00325c;fill-opacity:1;fill-rule:evenodd;stroke:#00192e;stroke-width:1px;stroke-linecap:butt;stroke-linejoin:miter;stroke-opacity:1"
       d="M 38.941757,88.43235 C 38.487157,94.211342 42.136216,98.478628 47.603815,100.27639 C 49.273614,100.90164 50.647852,101.89428 52.376786,102.39771 C 53.443821,101.41409 54.437239,100.13096 55.558766,99.03895 C 56.220514,98.156621 57.401589,96.280083 57.84798,95.387302 C 54.977499,94.75446 51.329999,92.115568 48.893028,90.066234"
       id="path2560"
       sodipodi:nodetypes="cccccc" />
    <g
       transform="matrix(-0.3154575,0.9489397,-0.9489397,-0.3154575,186.29316,156.75308)"
       id="g2568">
      <path
         sodipodi:nodetypes="cccccccc"
         id="path2570"
         d="M -14.95934,120.89166 C -12.60409,122.53015 -8.9022501,123.66245 -6.6664001,126.05015 C -6.3474301,126.99283 -6.4860401,128.02295 -6.4804901,129.00895 C -6.7747901,130.27704 -7.6264701,131.00056 -8.6647201,131.68892 C -11.32979,132.37513 -14.08177,131.27159 -16.622,130.48583 C -18.89152,130.1378 -21.51741,129.29919 -22.90032,127.37483 C -25.08336,124.79226 -24.4158,122.66248 -23.78411,119.49751 C -20.85525,120.0691 -17.92235,120.54309 -14.95934,120.89166 z"
         style="fill:#e6e6e6;fill-rule:evenodd;stroke:#333333;stroke-width:1px;stroke-linecap:butt;stroke-linejoin:miter;stroke-opacity:1" />
      <path
         sodipodi:nodetypes="ccc"
         id="path2572"
         d="M -7.3066801,129.97973 C -10.49194,130.2805 -13.90405,130.22852 -16.20085,128.99187 C -19.05131,128.26797 -21.56329,127.36369 -23.89252,124.20164"
         style="fill:none;fill-rule:evenodd;stroke:#333333;stroke-width:1px;stroke-linecap:butt;stroke-linejoin:miter;stroke-opacity:1" />
    </g>
    <path
       id="path2562"
       d="M 90.276643,88.55735 C 90.759028,92.549692 88.717878,95.371069 86.210779,98.280069 C 83.375993,100.03253 81.533556,101.89305 78.341614,103.02271 C 77.274579,102.03909 74.781161,100.63096 73.659634,99.53895 C 72.918241,97.929974 72.112948,96.548473 71.672197,95.171311 C 73.741708,94.190016 75.625855,92.967099 77.548721,91.739331 C 79.21093,90.453755 81.320157,89.569436 82.218138,87.643137"
       style="fill:#00325c;fill-opacity:1;fill-rule:evenodd;stroke:#00192e;stroke-width:1px;stroke-linecap:butt;stroke-linejoin:miter;stroke-opacity:1"
       sodipodi:nodetypes="ccccccc" />
    <path
       sodipodi:nodetypes="ccccccccccccccc"
       id="path2808"
       d="M 85.440884,73.199418 C 81.849703,74.311782 82.704885,76.551285 81.705733,77.641481 C 79.591032,80.184975 76.690875,82.597746 73.465859,83.395131 C 71.892905,83.298616 72.100882,81.026444 70.33276,81.471771 C 69.47312,82.638005 70.087406,83.908665 70.673931,85.132266 C 68.653405,85.628602 66.293626,85.278602 65.930344,88.050143 C 67.19011,88.56429 68.792783,88.287543 69.943368,87.735875 C 68.942446,88.775486 65.987201,89.714058 68.630207,91.004186 C 70.229893,91.35918 70.904026,89.93866 72.059236,89.049734 C 71.512553,90.900621 69.869863,92.72673 72.901599,91.95067 C 73.947083,91.236979 74.215612,90.206726 74.540386,89.061789 C 75.391355,88.106103 76.695969,87.585216 77.806603,86.917622 C 80.888845,86.372314 83.45914,84.761353 86.074776,83.11633 C 86.704071,80.185324 90.445931,79.406539 91.263654,76.686621 C 91.798616,75.664914 92.582881,75.287515 92.82206,74.20631"
       style="fill:#e9d2af;fill-opacity:1;fill-rule:evenodd;stroke:#3f2d10;stroke-width:1px;stroke-linecap:butt;stroke-linejoin:miter;stroke-opacity:1" />
    <path
       style="font-size:12px;font-style:normal;font-variant:normal;font-weight:normal;font-stretch:normal;fill:#ffffff;fill-opacity:1;stroke:none;stroke-width:1px;stroke-linecap:butt;stroke-linejoin:miter;stroke-opacity:1;font-family:Rufscript;-inkscape-font-specification:Rufscript"
       d="M 56.372392,70.463416 C 56.230776,70.46384 56.019542,70.551648 56.147724,70.323451 C 56.182757,69.232107 55.966856,68.149419 55.99535,67.057231 C 56.001454,66.521894 56.002713,65.983185 56.064235,65.451531 C 56.231081,65.166975 56.610384,65.147286 56.903836,65.089799 C 57.51372,65.017285 58.134432,64.999679 58.746059,65.03783 C 59.041944,65.216956 59.231775,65.529366 59.416292,65.813753 C 59.657902,66.211217 59.525025,66.726808 59.207478,67.04046 C 58.839747,67.480739 58.269618,67.66207 57.865395,68.056419 C 57.565561,68.284318 57.674754,68.714005 57.981124,68.875456 C 58.365657,69.13947 58.836977,69.2927 59.129915,69.67693 C 59.293103,69.89291 59.466885,70.153917 59.440779,70.434873 C 59.16294,70.599438 58.67111,70.537583 58.489038,70.218419 C 58.248807,69.993784 58.046519,69.696692 57.785144,69.512469 C 57.503523,69.412409 57.333001,68.767963 56.989068,69.16638 C 56.802164,69.443748 56.838973,69.807011 56.799623,70.127696 C 56.828927,70.294753 56.610771,70.305097 56.509067,70.389215 C 56.46351,70.413948 56.417951,70.438682 56.372392,70.463416 z M 56.880637,67.88725 C 57.510073,67.563073 58.178732,67.247315 58.650832,66.703069 C 58.871883,66.478771 58.863298,66.083604 58.586848,65.908362 C 58.168538,65.578973 57.600071,65.648204 57.10116,65.650871 C 56.643579,65.57274 56.834041,66.163103 56.830179,66.434391 C 56.884271,66.915786 56.86228,67.403356 56.880637,67.88725 z M 61.781026,70.474151 C 61.806648,69.719503 61.885031,68.956106 61.739986,68.208443 C 61.665723,67.681539 61.594122,67.154265 61.523309,66.626888 C 61.295888,66.383183 60.895689,66.423658 60.58626,66.360334 C 60.206003,66.325827 59.689339,66.231187 59.593724,65.78965 C 59.567638,65.449617 60.141725,65.656398 60.369535,65.582738 C 61.589547,65.580151 62.819737,65.531985 64.029608,65.718611 C 64.306251,65.755998 64.824823,65.885123 64.648539,66.268905 C 64.42363,66.521949 64.035968,66.465083 63.730058,66.468505 C 63.371807,66.458832 63.013254,66.43607 62.654957,66.441314 C 62.373725,66.800589 62.550811,67.281348 62.602541,67.688707 C 62.700901,68.546192 62.690219,69.417922 62.589415,70.274565 C 62.594632,70.616402 62.356548,70.930897 61.995549,70.724652 C 61.884205,70.691247 61.769695,70.603707 61.781029,70.474151 L 61.781026,70.474151 z M 65.751842,68.813981 C 65.520856,69.029127 65.756485,69.443798 65.796427,69.723577 C 65.88451,70.068625 66.068244,70.463654 65.883472,70.805118 C 65.624183,71.06808 65.063771,70.897804 65.079745,70.491226 C 64.956728,69.361239 64.964117,68.221438 64.942703,67.086151 C 64.955909,66.721616 64.913294,66.342878 65.009713,65.989302 C 65.395524,65.647014 65.949008,65.624464 66.436918,65.569223 C 66.907254,65.550969 67.407382,65.485066 67.852903,65.669798 C 68.017878,65.876659 68.408629,66.19687 68.287198,66.464281 C 67.564577,66.380219 66.822834,66.205627 66.095717,66.357286 C 65.709667,66.445247 65.79462,66.951273 65.774979,67.250897 C 65.722437,67.619796 65.888402,68.087179 66.328213,68.079224 C 66.818839,68.132262 67.333758,67.827546 67.804874,68.063285 C 68.207058,68.331227 67.796196,68.77774 67.437126,68.770043 C 66.882606,68.873002 66.31188,68.851105 65.751845,68.813981 L 65.751842,68.813981 z M 72.721084,72.185224 C 72.601473,71.75309 72.652958,71.292284 72.642604,70.847514 C 72.654345,69.397883 72.793575,67.95126 72.779395,66.501501 C 72.708948,66.430176 72.49581,66.831259 72.3719,66.934002 C 72.037883,67.323788 71.61454,67.654251 71.205821,67.941741 C 71.378411,68.124091 71.883031,68.350802 71.746287,68.618931 C 71.480841,68.973348 71.056823,68.817585 70.876943,68.47747 C 70.363523,67.918898 69.857667,67.352478 69.326744,66.810564 C 69.356296,68.088733 69.399525,69.368196 69.363725,70.646493 C 69.362632,70.996899 68.830283,71.186218 68.61491,70.915358 C 68.44538,70.600929 68.531466,70.2238 68.50604,69.881474 C 68.522421,68.716461 68.542791,67.550426 68.613895,66.387387 C 68.626468,66.026258 69.039883,65.933586 69.327874,66.012314 C 69.685535,66.140735 69.997426,66.419364 70.12666,66.782924 C 70.27176,66.995315 70.418083,67.535696 70.726173,67.379703 C 71.150328,66.979943 71.587123,66.592059 72.003355,66.184855 C 72.207911,65.923721 72.540693,65.730783 72.584539,65.375236 C 72.762426,65.136536 73.366404,65.105226 73.361133,65.502666 C 73.417226,66.250454 73.380936,67.002101 73.427368,67.750522 C 73.444758,68.906125 73.371679,70.064245 73.45199,71.218109 C 73.518836,71.524431 73.580748,71.90443 73.245464,72.084748 C 73.112543,72.18501 72.859909,72.385706 72.721087,72.185224 L 72.721084,72.185224 z"
       id="text2445" />
    <g
       id="g3433"
       transform="translate(18,-1)">
      <g
         transform="matrix(1.1760573,0,0,1.0976313,-110.09944,-6.3478248)"
         id="g3406">
        <path
           style="fill:#333333;fill-opacity:1;fill-rule:evenodd;stroke:#000000;stroke-width:0.88015163px;stroke-linecap:butt;stroke-linejoin:miter;stroke-opacity:1"
           d="M 119.25,93.625 C 119.5,97 119.5,97 119.5,97 L 153.75,97.25 L 153,93.25 L 119.25,93.625 z"
           id="path3362" />
        <path
           style="fill:#333333;fill-rule:evenodd;stroke:#000000;stroke-width:0.88015157px;stroke-linecap:butt;stroke-linejoin:miter;stroke-opacity:1"
           d="M 114.45275,70.454428 C 122.17467,70.8068 129.94588,70.12979 137.69308,69.924098 C 140.74329,70.14043 152.78239,67.102003 154.04509,70.631205 C 155.01613,73.474069 156.05121,76.088391 156.46019,79.116486 C 157.18957,83.875354 156.67671,89.024719 157.95931,93.612175 C 153.38256,94.9213 147.9246,93.910551 143.18195,93.788952 C 134.28316,92.900509 124.80095,94.95546 115.98397,93.965728 C 115.23355,86.636827 113.46891,79.382655 112.92824,72.045418 C 113.01808,70.838196 112.67066,70.720297 114.45275,70.454428 z"
           id="path2582"
           sodipodi:nodetypes="ccccccccc" />
        <path
           style="fill:#333333;fill-rule:evenodd;stroke:#000000;stroke-width:0.88015163px;stroke-linecap:butt;stroke-linejoin:miter;stroke-opacity:1"
           d="M 118.20269,95.87106 C 114.78147,98.51136 114.6489,102.96864 111.84241,106.32233 C 110.2216,108.58587 108.36487,110.25638 107.47477,112.90596 C 106.7846,114.43969 107.40106,114.37694 108.20332,115.47183 C 117.95392,115.67022 126.40879,115.94 135.35371,115.53617 C 144.24057,114.53549 153.59793,115.67791 162.40054,114.27728 C 163.21303,114.07416 162.81204,113.00273 162.30955,112.33274 C 161.31548,110.11989 160.32596,107.29898 159.23112,105.11522 C 156.84355,102.24736 157.92674,98.62083 155.31171,96.04784 C 147.38544,95.55324 137.37064,95.311398 129.37363,95.49238 C 126.13528,95.112777 121.57539,95.835126 118.20269,95.87106 z"
           id="path2586"
           sodipodi:nodetypes="ccccccccccc" />
        <path
           style="fill:none;fill-rule:evenodd;stroke:#000000;stroke-width:0.88015163px;stroke-linecap:butt;stroke-linejoin:miter;stroke-opacity:1"
           d="M 107.06576,113.73807 C 113.63112,111.1521 120.8152,114.21447 127.57553,113.30241 C 136.67168,112.40946 152.96243,112.03403 162.10092,112.64708"
           id="path2588"
           sodipodi:nodetypes="ccc" />
        <path
           id="path2590"
           d="M 116.63581,72.183035 C 123.518,72.48017 130.37742,71.908678 137.2461,71.734916 C 141.44515,70.416769 146.74346,71.61012 150.95841,71.036799 C 153.76301,71.93769 153.47522,76.674239 153.90763,79.502302 C 154.29961,83.574993 154.39352,87.740769 155.26464,91.750871 C 149.31319,92.734454 142.10539,92.150244 135.92257,92.150244 C 129.78404,91.64534 124.13777,92.501061 118.03839,92.049617 C 116.96291,86.6718 116.74758,81.160073 115.74031,75.767983 C 115.24369,74.08596 114.66179,72.663842 116.63581,72.183035 z"
           style="fill:#013e61;fill-opacity:1;fill-rule:evenodd;stroke:#000000;stroke-width:0.88015157px;stroke-linecap:butt;stroke-linejoin:miter;stroke-opacity:1"
           sodipodi:nodetypes="ccccccccc" />
        <path
           style="fill:#999999;fill-opacity:1;fill-rule:evenodd;stroke:none;stroke-width:0.99999994px;stroke-linecap:butt;stroke-linejoin:miter;stroke-opacity:1"
           d="M 150.96875,71.03125 C 146.7538,71.604571 141.44905,70.431852 137.25,71.75 C 130.38132,71.923762 123.50719,72.484633 116.625,72.1875 C 115.33299,72.502192 115.15523,73.22613 115.3125,74.15625 C 122.87533,74.244117 130.43817,74.018745 138.001,73.399715 C 142.80842,71.868825 147.61584,73.075671 152.42325,72.918813 C 152.07058,71.441703 152.25793,71.44536 150.96875,71.03125 z"
           id="path3364"
           sodipodi:nodetypes="ccccccc" />
        <path
           style="fill:#999999;fill-opacity:1;fill-rule:evenodd;stroke:none;stroke-width:0.99999994px;stroke-linecap:butt;stroke-linejoin:miter;stroke-opacity:1"
           d="M 117.78125,90.625 C 117.86413,91.103019 117.93604,91.586404 118.03125,92.0625 C 124.13063,92.513944 129.79897,91.651344 135.9375,92.15625 C 142.12032,92.15625 149.29855,92.733584 155.25,91.75 C 155.16823,91.37358 155.10021,91.003958 155.03125,90.625 C 148.5973,90.765005 142.35166,91.469904 135.70726,90.978553 C 129.73324,90.863325 123.9781,91.185881 117.78125,90.625 z"
           id="path3366"
           sodipodi:nodetypes="ccccccc" />
        <path
           sodipodi:nodetypes="ccccccccc"
           id="path3376"
           d="M 119.55307,98.213 C 116.34363,100.61263 117.27992,102.18874 114.64716,105.23673 C 113.12667,107.29394 111.38488,108.81218 110.54987,111.22025 C 118.4251,110.56287 129.78417,111.21413 134.84695,111.04745 C 138.42485,109.64109 152.32856,111.34732 159.69226,110.6109 C 158.75973,108.59975 157.83146,107.62697 156.8044,105.64226 C 154.56461,103.03582 155.9343,100.62373 153.48115,98.28528 C 146.04551,97.83576 136.65064,97.61596 129.14864,97.78045 C 126.11075,97.43545 122.717,98.18034 119.55307,98.213 z"
           style="fill:#b3b3b3;fill-rule:evenodd;stroke:#4d4d4d;stroke-width:0.88015163px;stroke-linecap:butt;stroke-linejoin:miter;stroke-opacity:1" />
        <path
           style="fill:none;fill-rule:evenodd;stroke:#4d4d4d;stroke-width:0.88015163px;stroke-linecap:butt;stroke-linejoin:miter;stroke-opacity:1"
           d="M 122.18384,98.27899 C 117.14571,107.11782 115.11277,110.83014 115.11277,110.83014"
           id="path3378"
           sodipodi:nodetypes="cc" />
        <path
           style="fill:none;fill-rule:evenodd;stroke:#4d4d4d;stroke-width:0.88015163px;stroke-linecap:butt;stroke-linejoin:miter;stroke-opacity:1"
           d="M 112.37274,107.91332 L 158.1579,108.00171"
           id="path3380"
           sodipodi:nodetypes="cc" />
        <path
           style="fill:none;fill-rule:evenodd;stroke:#4d4d4d;stroke-width:0.88015163px;stroke-linecap:butt;stroke-linejoin:miter;stroke-opacity:1"
           d="M 114.58245,105.43844 L 156.39014,105.35006"
           id="path3382"
           sodipodi:nodetypes="cc" />
        <path
           style="fill:none;fill-rule:evenodd;stroke:#4d4d4d;stroke-width:0.88015163px;stroke-linecap:butt;stroke-linejoin:miter;stroke-opacity:1"
           d="M 116.61538,102.61002 L 155.24108,102.7868"
           id="path3384"
           sodipodi:nodetypes="cc" />
        <path
           style="fill:none;fill-rule:evenodd;stroke:#4d4d4d;stroke-width:0.88015163px;stroke-linecap:butt;stroke-linejoin:miter;stroke-opacity:1"
           d="M 117.85281,100.13515 L 154.44559,100.31192"
           id="path3386"
           sodipodi:nodetypes="cc" />
        <path
           style="fill:none;fill-rule:evenodd;stroke:#4d4d4d;stroke-width:0.88015163px;stroke-linecap:butt;stroke-linejoin:miter;stroke-opacity:1"
           d="M 149.67262,98.27899 L 155.32948,110.65336"
           id="path3388"
           sodipodi:nodetypes="cc" />
        <path
           style="fill:none;fill-rule:evenodd;stroke:#4d4d4d;stroke-width:0.88015163px;stroke-linecap:butt;stroke-linejoin:miter;stroke-opacity:1"
           d="M 146.31386,98.10221 L 150.55651,110.74175"
           id="path3390"
           sodipodi:nodetypes="cc" />
        <path
           style="fill:none;fill-rule:evenodd;stroke:#4d4d4d;stroke-width:0.88015163px;stroke-linecap:butt;stroke-linejoin:miter;stroke-opacity:1"
           d="M 125.5426,98.01382 L 122.27223,107.91332"
           id="path3392"
           sodipodi:nodetypes="cc" />
        <path
           style="fill:none;fill-rule:evenodd;stroke:#4d4d4d;stroke-width:0.88015163px;stroke-linecap:butt;stroke-linejoin:miter;stroke-opacity:1"
           d="M 128.37103,97.92544 L 127.8407,107.64816"
           id="path3396"
           sodipodi:nodetypes="cc" />
        <path
           style="fill:none;fill-rule:evenodd;stroke:#4d4d4d;stroke-width:0.88015163px;stroke-linecap:butt;stroke-linejoin:miter;stroke-opacity:1"
           d="M 131.55301,97.92543 L 131.99495,107.82493"
           id="path3398"
           sodipodi:nodetypes="cc" />
        <path
           style="fill:none;fill-rule:evenodd;stroke:#4d4d4d;stroke-width:0.88015163px;stroke-linecap:butt;stroke-linejoin:miter;stroke-opacity:1"
           d="M 134.91176,97.83705 L 136.1492,108.00171"
           id="path3400"
           sodipodi:nodetypes="cc" />
        <path
           style="fill:none;fill-rule:evenodd;stroke:#4d4d4d;stroke-width:0.88015163px;stroke-linecap:butt;stroke-linejoin:miter;stroke-opacity:1"
           d="M 138.27052,97.92544 L 140.83378,107.91332"
           id="path3402"
           sodipodi:nodetypes="cc" />
        <path
           style="fill:none;fill-rule:evenodd;stroke:#4d4d4d;stroke-width:0.88015163px;stroke-linecap:butt;stroke-linejoin:miter;stroke-opacity:1"
           d="M 141.98283,97.74866 L 145.34159,110.47659"
           id="path3404"
           sodipodi:nodetypes="cc" />
      </g>
    </g>
    <path
       style="fill:#e9d2af;fill-opacity:1;fill-rule:evenodd;stroke:#3f2d10;stroke-width:1px;stroke-linecap:butt;stroke-linejoin:miter;stroke-opacity:1"
       d="M 40.41752,77.090696 C 41.684431,79.630952 42.366544,79.61694 42.351929,82.502938 C 42.537003,85.805523 43.431017,89.47064 45.547678,92.031155 C 46.869025,92.889976 48.054509,90.940447 49.210121,92.350824 C 49.206598,93.799625 47.956607,94.454945 46.756934,95.088979 C 48.084984,96.690574 50.189446,97.814101 48.831479,100.25732 C 47.513176,99.92052 46.390156,98.744101 45.794047,97.615897 C 45.97943,99.04707 47.795285,101.56045 44.903601,101.02373 C 43.40691,100.3567 43.710854,98.81399 43.311797,97.412047 C 42.649251,99.22469 42.882112,101.66986 40.908053,99.24153 C 40.492846,98.045708 40.890378,97.058037 41.310988,95.944734 C 41.196135,94.670259 40.457939,93.475096 39.962945,92.277535 C 37.810941,90.004543 36.704667,87.180054 35.582233,84.301195 C 36.821379,81.571478 34.278358,78.718241 35.240442,76.045967 C 35.418799,74.906548 35.55235,73.530194 36.003797,72.519056"
       id="path2810"
       sodipodi:nodetypes="ccccccccccccccc" />
  </g>
</svg>
